<?xml version="1.0" encoding="UTF-8"?><svg id="a" xmlns="http://www.w3.org/2000/svg" viewBox="0 0 2000 2000"><defs><style>.b{stroke-width:0px;}</style></defs><path class="b" d="m1399.3,783.07c14.9,33.03,29.8,66.07,44.7,99.09-9.93,89.14-53.81,137.55-153.96,125.2,19.66,14.42,38.19,25.44,55.95,24.3,26.41-1.7,45.55-1.35,63.34,23.74,15.96,22.52,45.36,17.33,58.84-5.97-4.29-1.78-8.28-4.67-12.46-4.97-34.17-2.47-45.26-22.02-27.19-49.8,10.91-16.77,23.22-32.63,34.91-48.9,42.13,73.78,47.93,151.88,24.57,232.13-13.34,45.83-44.76,73.76-93.73,79.13-22.1-3.47-47.19-1.44-65.72-11.5-46.41-25.21-84.08-11.1-121.46,16.66-14.73,6.49-29.45,12.98-44.18,19.48-4.29,1.05-8.57,2.1-12.86,3.15-14.62,2.62-29.25,5.23-43.87,7.85-11.43.3-22.86.59-34.29.89-12.71,1.77-25.42,3.55-38.13,5.32-13.96-5.45-27.91-10.9-41.86-16.34-.62-1.01-1.09-2.17-1.89-3.02-37.64-40.08-8.91-87.23,38.35-116.49,9.23-5.71,28.92-10.48,32.7-6.11,12.41,14.36,18.18,34.23,29.45,49.86,9.09,12.59,22.44,22.1,33.91,32.98,2.89-2.87,5.79-5.75,8.68-8.62-1.14-4.33-1.52-9.06-3.54-12.94-32.03-61.57-29.8-67.33,35.76-89.07,9.02-2.99,19.39-9.07,27.25-6.9,15.26,4.2,32.12,10.49,42.43,21.45,5.19,5.53-1.65,23.4-4.7,35.26-1.91,7.44-6.89,14.1-10.49,21.11,2.39,2.65,4.78,5.3,7.16,7.94,12.22-10.07,24.91-19.63,36.56-30.32,16.38-15.02,29.7-34.89,48.41-45.55,39.02-22.22,59.18-12.84,77.79,28.77,4.36,9.76,11.03,18.49,18.38,30.55,21.43-42.14-6.96-89.68-52.76-93.34-24.08-1.93-49.64,2.46-73.18,8.95-35.85,9.88-62.35-9.35-58.78-46.46,1.47-15.34,6.13-31.03,4.15-45.86-1.8-13.51-10.62-26.09-16.35-39.08-4.46,1.49-8.93,2.98-13.4,4.46.54,10.9.83,21.82,1.65,32.7,3.43,45.53-19.72,81.51-60.44,93.63-36.13,10.75-56.05-2.21-81.9-48.99-5.14-9.3-18.42-14.11-27.94-20.99-.98,9.61-4.17,19.61-2.58,28.77,7.82,44.91-10.92,77.34-54.69,90.29-45.39,13.44-83.84-2.4-119.86-29.18-6.52-4.85-16-5.72-24.12-8.43.3,8.45-2.87,20.3,1.51,24.76,18.44,18.83,8.17,29.79-6.21,44.03-8.37,8.28-11.3,22.05-16.68,33.35,3.45,2.35,6.89,4.71,10.34,7.06,8.66-8.11,16.86-16.8,26.08-24.22,23.13-18.62,50.82-29.35,74.52-8.07,11.7,10.51,16.5,35.95,13.8,52.95-2.13,13.49-20.42,24.42-31.53,36.48-39.94-.98-79.87-1.97-119.82-2.95-40.11-38.43-70.94-81.19-58.66-140.89,9.26-45.06,29.85-84.81,74.98-102.01,40.1-15.29,70.38,8.69,98.25,34.98,7.61,7.18,17.77,11.65,26.76,17.37,2.88-2.3,5.76-4.6,8.64-6.89-4.58-12.29-7.95-25.22-13.98-36.76-17.68-33.79-13.73-51.93,19.79-70.57,43.15-24,86.35-33.63,129.37,2.51,7.64,6.42,21.09,5.92,31.86,8.61-.22-9.51,1.62-19.64-1.03-28.42-10.32-34.27.14-63.92,30.93-83.03,49.06-30.45,114.43-10.43,139.06,42.31,4.4,9.41,10.27,18.14,15.47,27.18,3.74.59,7.47,1.19,11.21,1.78-5.97-41.34,18.2-56.35,47.02-71.76,27.36-14.63,23.85-41.19-3.46-53.35-29.65,56.69-37.52,59.12-91.3,28.14-1.03-.59-2.02-1.27-3.06-1.85-59.79-32.71-122.44-33.52-163.63,28.48-21.51,32.38-56.31,36.91-92.79,27.18-33.26-29.2-33.34-66.16-23.01-104.55,6.57-24.42,21.65-41.27,49.57-32.5,25.43,7.99,38.44,23.63,21.48,51.27-2.15,3.51,1.22,10.41,2.03,15.74,6.27-1.14,16.27-.3,18.13-3.79,6.34-11.92,14.71-25.87,13.43-38.13-3.32-31.83-28.13-46.68-56.38-51.1-23.24-3.63-34.5-13.57-42.89-35.34-7.94-20.6-20.28-42.42-60.74-41.09,68.39,69.25,42.05,130.46,1.9,178.68,14.28,30.56,24.79,53.04,35.3,75.52-22,17.9-46.32,33.64-65.49,54.17-35.96,38.51-78.81,45.44-127.37,36.19-11.02-2.1-22.23-3.14-33.36-4.67,2.78,2.74,5.55,5.47,8.33,8.21-14.45,32.22-27.58,65.11-43.66,96.49-21.67,42.28-43.45,48.52-87.93,29.62-15.12-6.42-30.83-11.43-46.27-17.09-58.68-56.74-66.32-132.5-19.92-197.27,30.3,35.38,66.53,67.04,60.65,121.6-1.28,11.86,10.76,25.16,16.67,37.79,3.38-1.46,6.76-2.91,10.14-4.37,1.15-4.38,4.33-9.45,3.13-13.04-16.16-48.1-2.6-80.69,44.08-104.69,27.43-14.1,28.01-51.12,9.26-78.94-16.84-24.98-32.94-50.45-51.18-78.5-2.67,5.44-13.94,17.65-11.46,25.51,5.78,18.3,19.83,33.81,27.44,51.76,7.23,17.05,10.52,35.76,15.54,53.74-20.49,5.52-41.6,16.77-61.25,14.63-14.28-1.55-30.33-18.58-38.9-32.75-10.74-17.77-14.64-39.67-21.49-59.79,16.18-30.86,25.76-68.83,49.85-91.14,57.04-52.84,120.72-98.66,196.73-122.75,7.01,52.67,3.18,57.95-42.66,69.28-11.88,2.94-22.44,11.25-33.6,17.1.14,5.27.27,10.53.41,15.8,63.03-20.07,120.4-19.22,166.08,35.48-4.02-19.83-10.22-36.17-21.99-45.49-49.7-39.38-52.93-53.22-18.14-103.83,11.54-2.25,22.99-5.33,34.64-6.62,67.6-7.52,135.5,2.69,203.99-11.74,37.03-7.8,80.04,12.73,120.33,20.47-18.54,7.57-36.54,17.13-55.73,22.16-18.38,4.82-37.97,5.16-57.07,7.07-12.39,1.24-24.85,1.79-37.27,2.64,9.54,6.81,18.15,16.53,28.78,19.89,35.49,11.2,59.14,29.89,55.95,71.08-.38,4.89,2.91,10.07,2,7.18h103.29c.92-3.55,1.85-7.1,2.77-10.66-10.05-4.47-19.75-11.41-30.23-12.94-29.74-4.35-51.72-17.68-48.24-49.83,3.52-32.55,32.1-29.89,55.7-29.38,18.79.41,37.52,3.47,56.27,5.35,22.51,21.54,45.02,43.07,67.53,64.61-16.55,2.89-33.11,5.78-49.66,8.67.33,3.97.65,7.93.98,11.9,37.18,7.87,74.36,15.74,111.54,23.62,0,0-.28-.37-.27-.37,2.07,2.62,4.13,5.25,6.2,7.87Zm-673.13,13.52c-1.8,3.86-3.6,7.72-5.4,11.57,8.03,7.67,16.38,15.03,24.03,23.07,22.98,24.18,33.26,51.07,20.26,84.55-2.98,7.66.94,18,1.68,27.11,7.51-6.3,19.43-11.32,21.7-19.14,7.16-24.65,21.73-34.07,46.7-35.09,9.73-.4,19.06-10.35,28.57-15.96.38-4.7.75-9.4,1.13-14.1-52.48,15.26-78.67-12.26-102.18-48.2-5.75-8.8-23.99-9.44-36.48-13.83Z"/><path class="b" d="m1207.1,1262.18c45.91,33.35,94.74,58.91,153.68,57.4-12.69,12.81-25.39,25.63-38.08,38.44-53.26-25.45-106.51-50.91-159.77-76.36,14.73-6.49,29.45-12.98,44.18-19.48Z"/><path class="b" d="m1106.18,1292.67c14.62-2.62,29.25-5.23,43.88-7.85,7.4,6.97,13.67,16.23,22.39,20.52,45.02,22.12,90.66,42.97,136.09,64.27-12.2,5.3-24.39,10.6-36.59,15.89-11.67-4.99-24-8.85-34.89-15.17-43.86-25.47-87.29-51.7-130.87-77.64Z"/><path class="b" d="m1071.89,1293.55c31.77,24.36,63.61,48.63,95.28,73.12,8.76,6.77,17.01,14.2,25.5,21.34-42.57-15.46-86.18-28.68-127.16-47.61-13.99-6.47-21.36-27.27-31.75-41.52,12.71-1.77,25.42-3.55,38.13-5.32Z"/><path class="b" d="m1372.03,1305.05c-34.16-9.76-74.8-4.2-99.62-36.06,1-3.96,2.01-7.92,3.01-11.87,36.88,6.38,73.76,12.75,110.65,19.13-4.68,9.6-9.35,19.2-14.03,28.8Z"/><path class="b" d="m1399.3,783.07c-2.07-2.62-4.13-5.24-6.2-7.87,2.07,2.62,4.13,5.24,6.2,7.87Z"/></svg>