<?xml version="1.0" encoding="UTF-8"?>
<svg id="a" xmlns="http://www.w3.org/2000/svg" viewBox="0 0 2000 2000">
  <defs>
    <style>
      .b{fill:none;stroke-width:36.7px;}
      .b,.c,.d{stroke:#000;stroke-linejoin:round;}
      .b,.d{stroke-linecap:round;}
      .c{stroke-width:13.54px;}
      .c,.d{fill:#fff;}
      .e{stroke-width:0px;}
      .d{stroke-width:10.66px;}
    </style>
  </defs>
  <g transform="translate(220, 150)">
    <path class="d" d="m1209.19,936.49c-30.45,49.2-63.16,100.14-98.19,144.18-92.14,115.83-199.39,168.24-199.39,168.24l639.72,130.85s113.58-77.23,160.97-208.74c40.76-113.1,34.84-268.62,75.81-371.79,42.12-106.06,102.81-149.55,102.81-149.55l-448.64,10.39s-3.93,1.13-12.07,5.9"/>
    <path class="b" d="m1482.89,867.3s-28.58,26.07-28.58,78.22,9.25,193.94-4.66,245.56c-9.63,35.74-34.95,70.33-96.12,76.35s-81.23-26.32-99.28-68.44-53.65-191.29-45.63-360.77c8.02-169.48,38.11-316.9,74.21-333.94,36.1-17.05,101.29-30.09,139.39,16.05,38.11,46.13-5.01,133.38-12.03,182.52-7.02,49.14-20.06,280.79-17.05,318.9,3.01,38.11-11.88,71.75-36.1,81.23-46.13,18.05-75.35-21.33-86.24-55.16-19.05-59.17-8.7-189.71-8.7-189.71"/>
    <path class="b" d="m1482.89,867.3s-28.58,26.07-28.58,78.22,9.25,193.94-4.66,245.56c-9.63,35.74-34.95,70.33-96.12,76.35s-81.23-26.32-99.28-68.44-53.65-191.29-45.63-360.77c8.02-169.48,38.11-316.9,74.21-333.94,36.1-17.05,101.29-30.09,139.39,16.05,38.11,46.13-5.01,133.38-12.03,182.52-7.02,49.14-20.06,280.79-17.05,318.9,3.01,38.11-11.88,71.75-36.1,81.23-46.13,18.05-75.35-21.33-86.24-55.16-19.05-59.17-8.7-189.71-8.7-189.71"/>
    <path class="c" d="m1092.79,693.04h188.05s1.21,98.29-94.02,98.29-94.02-98.29-94.02-98.29Z"/>
    <circle class="e" cx="1186.81" cy="735.21" r="42.55"/>
    <path class="c" d="m1325.45,693.04h188.05s1.21,98.29-94.02,98.29-94.02-98.29-94.02-98.29Z"/>
    <circle class="e" cx="1419.47" cy="735.21" r="42.55"/>
  </g>
</svg>
