<?xml version="1.0" encoding="UTF-8"?><svg xmlns="http://www.w3.org/2000/svg" viewBox="0 0 2000 2000"><defs><style>.d{fill:none;stroke-width:36.7px;}.d,.e{stroke-linecap:round;}.d,.e,.f{stroke:#000;stroke-linejoin:round;}.e{stroke-width:10.66px;}.e,.f{fill:#fff;}.g{stroke-width:0px;}.f{stroke-width:13.54px;}</style></defs><g id="b"><path class="g" d="m889.55,1030.34c-3.85-5.33-7.42-9.92-10.61-14.74-10.26-15.53-18.67-31.9-21.89-50.48-4.72-27.29,4.37-50.19,22.73-69.94,33.88-36.45,90.58-30.98,116.92,11.29,1.09,1.75,1.37,4.82.64,6.75-5.27,14-11.11,27.79-16.33,41.81-2.48,6.66-4.76,13.6-1.67,20.87,2.59,6.08,7.13,9.51,13.65,10.2,11.48,1.21,21.31-3.24,30.2-9.76,5.98-4.39,11.31-9.66,17.36-14.9,1.09,1.23,2.28,2.54,3.43,3.88,21.76,25.44,43.48,50.92,65.31,76.31,4.39,5.11,7.05,10.61,5,17.36-3.9,12.83-19.12,16.57-28.21,6.64-12.59-13.76-24.72-27.95-37.04-41.96-1.87-2.13-3.73-4.27-5.59-6.4-2.48-2.83-5.4-5.24-8.92-2.17-3.45,3.01-1.75,6.24.8,9.14,11.23,12.75,22.42,25.53,33.63,38.31,2.97,3.38,6,6.71,8.84,10.19,6.08,7.47,5.3,17.75-1.69,23.79-6.95,6-16.75,5.42-23.25-1.85-14.22-15.89-28.23-31.97-42.33-47.96-.99-1.12-1.96-2.83-3.17-3.06-2.04-.39-4.96-.59-6.23.56-1.24,1.12-1.43,4.12-1.07,6.1.29,1.59,2.07,2.93,3.27,4.31,13.71,15.67,27.54,31.24,41.13,47.01,7.18,8.33,5.8,19.42-2.76,25.32-5.65,3.89-13.13,3.78-18.78-.1-3.38-2.32-4.38-4.07-.74-7.57,12.47-11.99,8.94-31.72-6.74-38.43-2.97-1.27-6.44-1.68-9.71-1.87-2.82-.16-4.05-.94-4.57-3.89-1.82-10.34-8.57-17.16-19.14-19.07-3.71-.67-5.23-1.83-5.6-5.83-1.04-11.48-10.01-19.83-21.57-20.35-3.52-.16-5.09-.8-5.76-4.79-3.02-17.97-23.79-25.52-37.78-13.86-7.14,5.96-13.98,12.28-21.76,19.15Z"/><path class="g" d="m1119.81,1036.69c-1.79-1.68-2.83-2.49-3.67-3.46-22.07-25.84-44.09-51.72-66.22-77.51-2.38-2.77-3.32-5.14-.77-8.27,1.13-1.39,1.88-3.16,2.53-4.86,4.01-10.41,12.18-15.89,22.35-19.04,1.75-.54,3.54-.94,5.3-1.44,3.13-.88,5.06-2.91,4.44-6.2-.62-3.25-3.12-4.88-6.34-4.2-14.4,3.02-26.99,8.96-33.7,23.08-7.04,14.81-16.66,27.36-31.08,35.49-4.65,2.62-10.15,4.29-15.45,5.05-6.77.97-9.58-2.57-8.12-9.4.86-4.03,2.42-7.93,3.91-11.8,3.95-10.23,8.05-20.41,12.08-30.6.98-2.47,1.49-5.28,2.99-7.38,13.38-18.71,28.72-35.43,51.72-41.93,28.33-8.01,53.19-.75,73.58,20.23,20.64,21.24,29.39,46.44,22.57,76-3.83,16.63-11.53,31.55-21.03,45.56-4.65,6.86-9.77,13.4-15.12,20.69Z"/><path class="g" d="m990.91,1081.15c-.93,1.57-2.17,5.17-4.61,7.52-7.52,7.26-15.41,14.16-23.34,20.98-5.78,4.98-13.09,4.53-17.88-.71-4.65-5.09-4.49-12.91.88-17.91,8.03-7.46,16.29-14.68,24.61-21.81,4.04-3.46,8.79-3.83,13.53-1.43,4.56,2.32,6.7,6.25,6.81,13.36Z"/><path class="g" d="m966.9,1053.34c-1.62,2.95-2.66,6.52-4.97,8.75-7.79,7.51-15.9,14.71-24.17,21.69-5.83,4.92-13.35,4.14-17.86-1.23-4.45-5.3-3.91-12.91,1.59-17.95,7.74-7.09,15.62-14.02,23.51-20.94,4.18-3.66,9.07-4.29,13.98-2,4.57,2.12,7.05,5.97,7.92,11.69Z"/><path class="g" d="m903.33,1063.08c-6.32-.3-10.16-2.58-12.37-7.19-2.3-4.81-2.02-9.83,1.76-13.46,8.63-8.27,17.51-16.32,26.76-23.88,5.04-4.12,11.99-2.73,16.2,2.03,4.28,4.84,4.65,12.16-.15,16.75-8.51,8.15-17.46,15.85-26.45,23.48-1.76,1.49-4.51,1.81-5.75,2.28Z"/><path class="g" d="m1019.05,1104.17c-.91,1.58-2.09,5.23-4.53,7.57-7.65,7.37-15.67,14.38-23.75,21.28-5.79,4.95-13.11,4.37-17.83-.97-4.65-5.26-4.31-12.76,1.2-17.87,7.8-7.23,15.77-14.26,23.78-21.25,4.13-3.6,9.01-4.36,13.95-1.96,4.52,2.19,6.9,6.06,7.17,13.2Z"/></g><g id="c"><path class="e" d="m1239.49,1002.32c-30.45,49.2-63.16,100.14-98.19,144.18-92.14,115.83-199.39,168.24-199.39,168.24l639.72,130.85s113.58-77.23,160.97-208.74c40.76-113.1,34.84-268.62,75.81-371.79,42.12-106.06,102.81-149.55,102.81-149.55l-448.64,10.39s-3.93,1.13-12.07,5.9"/><path class="d" d="m1513.19,933.12s-28.58,26.07-28.58,78.22,9.25,193.94-4.66,245.56c-9.63,35.74-34.95,70.33-96.12,76.35-61.17,6.02-81.23-26.32-99.28-68.44-18.05-42.12-53.65-191.29-45.63-360.77,8.02-169.48,38.11-316.9,74.21-333.94,36.1-17.05,101.29-30.09,139.39,16.05,38.11,46.13-5.01,133.38-12.03,182.52s-20.06,280.79-17.05,318.9c3.01,38.11-11.88,71.75-36.1,81.23-46.13,18.05-75.35-21.33-86.24-55.16-19.05-59.17-8.7-189.71-8.7-189.71"/><path class="d" d="m1513.19,933.12s-28.58,26.07-28.58,78.22,9.25,193.94-4.66,245.56c-9.63,35.74-34.95,70.33-96.12,76.35-61.17,6.02-81.23-26.32-99.28-68.44-18.05-42.12-53.65-191.29-45.63-360.77,8.02-169.48,38.11-316.9,74.21-333.94,36.1-17.05,101.29-30.09,139.39,16.05,38.11,46.13-5.01,133.38-12.03,182.52s-20.06,280.79-17.05,318.9c3.01,38.11-11.88,71.75-36.1,81.23-46.13,18.05-75.35-21.33-86.24-55.16-19.05-59.17-8.7-189.71-8.7-189.71"/><path class="f" d="m1123.09,821.01h188.05s1.21-98.29-94.02-98.29-94.02,98.29-94.02,98.29Z"/><circle class="g" cx="1217.12" cy="778.84" r="42.55"/><path class="f" d="m1355.75,821.01h188.05s1.21-98.29-94.02-98.29-94.02,98.29-94.02,98.29Z"/><circle class="g" cx="1449.77" cy="778.84" r="42.55"/><path class="e" d="m749.62,1002.32c30.45,49.2,63.16,100.14,98.19,144.18,92.14,115.83,199.39,168.24,199.39,168.24l-639.72,130.85s-113.58-77.23-160.97-208.74c-40.76-113.1-34.84-268.62-75.81-371.79-42.12-106.06-102.81-149.55-102.81-149.55l448.64,10.39s3.93,1.13,12.07,5.9"/><path class="d" d="m475.92,933.12s28.58,26.07,28.58,78.22-9.25,193.94,4.66,245.56c9.63,35.74,34.95,70.33,96.12,76.35,61.17,6.02,81.23-26.32,99.28-68.44,18.05-42.12,53.65-191.29,45.63-360.77-8.02-169.48-38.11-316.9-74.21-333.94-36.1-17.05-101.29-30.09-139.39,16.05-38.11,46.13,5.01,133.38,12.03,182.52s20.06,280.79,17.05,318.9c-3.01,38.11,11.88,71.75,36.1,81.23,46.13,18.05,75.35-21.33,86.24-55.16,19.05-59.17,8.7-189.71,8.7-189.71"/><path class="d" d="m475.92,933.12s28.58,26.07,28.58,78.22-9.25,193.94,4.66,245.56c9.63,35.74,34.95,70.33,96.12,76.35,61.17,6.02,81.23-26.32,99.28-68.44,18.05-42.12,53.65-191.29,45.63-360.77-8.02-169.48-38.11-316.9-74.21-333.94-36.1-17.05-101.29-30.09-139.39,16.05-38.11,46.13,5.01,133.38,12.03,182.52s20.06,280.79,17.05,318.9c-3.01,38.11,11.88,71.75,36.1,81.23,46.13,18.05,75.35-21.33,86.24-55.16,19.05-59.17,8.7-189.71,8.7-189.71"/><path class="f" d="m866.02,821.01h-188.05s-1.21-98.29,94.02-98.29,94.02,98.29,94.02,98.29Z"/><circle class="g" cx="771.99" cy="778.84" r="42.55"/><path class="f" d="m633.36,821.01h-188.05s-1.21-98.29,94.02-98.29,94.02,98.29,94.02,98.29Z"/><circle class="g" cx="539.34" cy="778.84" r="42.55"/></g></svg>