<?xml version="1.0" encoding="UTF-8"?><svg xmlns="http://www.w3.org/2000/svg" viewBox="0 0 3996.42 3991.22"><defs><style>.d{fill:none;stroke-width:36.7px;}.d,.e,.f{stroke:#000;stroke-linejoin:round;}.d,.f{stroke-linecap:round;}.e{stroke-width:13.54px;}.e,.f,.g{fill:#fff;}.h,.g{stroke-width:0px;}.f{stroke-width:10.66px;}</style></defs><g id="a"><path class="h" d="m472.95,0c19.92,28.66,39.3,57.71,59.83,85.93,326.01,448.07,652.18,896.02,978.28,1344.03,2.7,3.71,5.02,7.7,7.51,11.56-1.06.92-2.12,1.83-3.18,2.75-1.99-2.91-3.76-6.01-6.01-8.71C1113.8,961.07,718.18,486.62,322.64,12.1c-3.01-3.61-5.03-8.05-7.51-12.1,52.6,0,105.21,0,157.81,0Z"/><path class="h" d="m3431.91,3991.22c-17.01-24.65-33.5-49.7-51.12-73.9-297.8-408.95-595.75-817.8-893.65-1226.68-3.06-4.2-5.84-8.59-8.76-12.89,1.38-1.28,2.77-2.56,4.15-3.84,1.28,2.74,2.05,5.91,3.92,8.15,362.65,435.57,725.38,871.07,1088.1,1306.57.7.84,1.34,1.73,2.01,2.59h-144.66Z"/><path class="h" d="m3014.37,0c-26.53,52.75-52.94,105.57-79.61,158.25-168.32,332.45-336.75,664.86-505.04,997.32-37.07,73.22-73.74,146.64-110.64,219.95-2.92,5.81-6.11,11.5-11.95,16.23,1.71-4.55,3.24-9.16,5.14-13.63,192.7-454.27,385.43-908.53,578.11-1362.8,2.12-5,3.76-10.21,5.62-15.32,39.45,0,78.91,0,118.36,0Z"/><path class="h" d="m985.83,0c16.87,36.7,33.22,73.65,50.7,110.06,195.11,406.42,390.39,812.76,585.61,1219.13,2.51,5.22,4.89,10.5,4.94,16.85-25.14-45.27-50.19-90.58-75.43-135.79-218.47-391.37-436.99-782.72-655.43-1174.11C889.6,24.27,883.62,12.05,877.34,0c36.17,0,72.33,0,108.5,0Z"/><path class="h" d="m3471.37,0c-316.25,432.28-632.5,864.57-949.95,1298.51,2.05-4.48,3.05-7.59,4.76-10.24C2803.29,859.7,3080.45,431.17,3357.62,2.64c.59-.92,1.31-1.76,1.96-2.64,37.26,0,74.52,0,111.78,0Z"/><path class="h" d="m1048.3,3991.22c19.13-38.65,37.98-77.45,57.44-115.93,169.33-335.01,338.77-669.96,508.16-1004.94,27.56-54.5,55.01-109.04,84.79-162.52-20.34,47.58-40.78,95.11-61,142.74-161.42,380.21-322.79,760.43-484.17,1140.65h-105.21Z"/><path class="h" d="m3655.48,0c-113.28,137.24-226.91,274.2-339.77,411.79-209.41,255.3-418.36,510.98-627.52,766.49-3.41,4.16-6.96,8.2-13.39,10.36,2.75-4.1,5.35-8.31,8.29-12.27,230.64-311.55,461.38-623.03,691.93-934.66,56.66-76.58,112.71-153.62,168.95-230.5,2.51-3.43,4.22-7.45,6.3-11.2,35.07,0,70.14,0,105.21,0Z"/><path class="h" d="m1442.83,0c5.78,25.49,10.88,51.16,17.44,76.44,105.4,406.22,211,812.4,316.52,1218.59,1.61,6.21,2.89,12.51,2.1,19.4-7.78-23.62-15.59-47.23-23.33-70.87-133.72-408.72-267.44-817.44-401.07-1226.19-1.83-5.6-2.51-11.57-3.73-17.37,30.69,0,61.37,0,92.06,0Z"/><path class="h" d="m3994.12,0c1.94,20.8-2.48,37.03-19.26,53.35-128.34,124.87-255.71,250.75-382.56,377.14-233.94,233.08-467.32,466.72-700.94,700.12-3.09,3.08-6.32,6.02-11.73,7.32,3.6-4.09,7.14-8.24,10.81-12.26,332.59-363.72,665.19-727.42,997.73-1091.17,4.36-4.77,7.98-10.23,11.95-15.37,5.03-6.38,10.06-12.75,15.09-19.13,26.3,0,52.6,0,78.91,0Z"/><path class="h" d="m2951.9,3991.22c-159.24-332-318.43-664.02-477.73-995.99-33.85-70.54-68.07-140.89-102.1-211.34-2.3-4.77-4.44-9.62-4.68-15.48,19.77,35.61,39.48,71.25,59.32,106.82,204.99,367.55,410.01,735.09,614.95,1102.67,2.33,4.18,3.75,8.86,5.59,13.31h-95.34Z"/><path class="h" d="m2277.92,0c-6.57,41.01-13.55,81.96-19.64,123.04-24.91,167.86-49.74,335.73-74.26,503.65-24.76,169.55-49.12,339.16-73.65,508.75-9.09,62.82-18.14,125.64-29.44,188.29,2.43-30.8,4.74-61.6,7.31-92.38,10.49-125.52,21.26-251.03,31.55-376.57,15.27-186.12,30.31-372.26,45.26-558.41,7.28-90.63,14.1-181.29,21.21-271.93.64-8.17,1.9-16.3,2.87-24.44,29.59,0,59.18,0,88.77,0Z"/><path class="h" d="m620.9,3991.22c46.38-63.71,92.75-127.42,139.13-191.13,233.36-320.5,466.71-640.99,700.09-961.47,3.33-4.57,6.92-8.95,11.86-12.34-250.82,388.31-501.64,776.63-752.46,1164.94h-98.63Z"/><path class="h" d="m1945.85,0c2.55,196.6,4.88,393.2,7.72,589.8,3.08,213.02,6.65,426.02,9.93,639.04.3,19.68.04,39.38-.59,59.17-6.65-89.18-13.27-178.37-19.97-267.55-12.91-172.01-25.78-344.01-38.81-516.01-11.29-149.07-22.82-298.13-34.12-447.2-1.44-19.05-2.07-38.16-3.08-57.25,26.3,0,52.6,0,78.91,0Z"/><path class="h" d="m5.77,22.34C4.78,14.9,3.79,7.45,2.8,0c27.4,0,54.8,0,82.19,0,12.99,15.34,25.52,31.1,39.05,45.95,313.27,343.64,626.66,687.17,940.01,1030.74,3.15,3.46,6.13,7.07,6.77,12.92-9.22-9.69-18.26-19.56-27.68-29.05-167.45-168.72-334.68-337.65-502.51-506C384.41,397.85,227.55,241.78,70.88,85.51c-4.14-4.13-9.32-7.22-14.02-10.8C39.83,57.26,22.8,39.8,5.77,22.34Z"/><path class="h" d="m2521.21,3991.22c-6.1-26.54-11.54-53.24-18.38-79.58-95.45-367.57-191.1-735.1-286.66-1102.64-.26-1-.03-2.13,1.89-3.93,2.42,6.93,4.96,13.83,7.23,20.8,125.36,383.87,250.69,767.75,376.06,1151.61,1.52,4.66,3.55,9.16,5.34,13.74h-85.48Z"/><path class="h" d="m446.65,3991.22c294.37-358.11,588.75-716.22,883.12-1074.32.52.3,1.04.6,1.56.9-3.2,4.65-6.26,9.41-9.61,13.94-255.61,345.59-511.25,691.16-766.86,1036.74-5.53,7.47-10.77,15.15-16.15,22.74h-92.06Z"/><path class="h" d="m1738.73,3991.22c10.97-72.51,22.18-144.98,32.87-217.53,27.11-184.13,54.16-368.27,80.9-552.45,19.42-133.79,38.29-267.67,57.48-401.49,1.08-7.53,2.78-14.98,5.9-22.3-2.28,28.48-4.51,56.96-6.85,85.43-16.43,199.74-33.01,399.48-49.3,599.23-13.35,163.74-26.35,327.5-39.57,491.25-.48,5.98-1.66,11.9-2.52,17.86h-78.91Z"/><path class="h" d="m101.43,3991.22c9.95-10.69,19.55-21.73,29.89-32.03,321.65-320.6,643.37-641.13,965.09-961.66,4.03-4.02,8.31-7.8,14.65-9.65-4.53,5.04-9.01,10.12-13.58,15.11-297.76,325.26-595.53,650.52-893.28,975.8-3.69,4.03-7.14,8.28-10.71,12.43h-92.06Z"/><path class="h" d="m2047.77,3991.22c-.06-52.51.41-105.03-.26-157.53-2.38-185.08-4.96-370.16-7.84-555.24-2.19-140.72-4.96-281.43-7.44-422.14-.14-8.19-.02-16.39,1.78-24.69,6.77,91.15,13.48,182.31,20.32,273.45,12.73,169.81,25.49,339.62,38.33,509.43,9.08,120.13,18.33,240.24,27.43,360.37.41,5.42.03,10.9.02,16.35h-72.33Z"/><path class="h" d="m2106.95,0c-6.94,108.2-13.85,216.4-20.84,324.6-7.34,113.66-14.84,227.32-22.09,340.99-9.55,149.75-18.94,299.51-28.38,449.27-1.77,28.16-3.44,56.32-4.88,79.84,0-66.04-.41-136.65.08-207.25,1.46-211.4,3.34-422.8,4.91-634.21.87-117.75,1.45-235.5,2.15-353.24,23.01,0,46.03,0,69.04,0Z"/><path class="h" d="m3796.85,3991.22c-3.89-5.14-7.39-10.64-11.72-15.38-280.99-307.95-562.04-615.85-843.08-923.76-4.28-4.68-8.39-9.52-11.21-15.47,25.75,25.51,51.62,50.89,77.21,76.56,288.95,289.79,577.86,579.62,866.75,869.46,2.68,2.69,5.02,5.72,7.52,8.6h-85.48Z"/><path class="h" d="m1160.08,0c28.36,71.72,56.76,143.43,85.07,215.16,113.51,287.58,227.01,575.16,340.48,862.75,1.89,4.8,3.49,9.71,2.47,15.62-20.37-45.35-40.62-90.75-61.13-136.04-142.01-313.61-284.07-627.2-426.08-940.81-2.46-5.44-4.4-11.12-6.57-16.69,21.92,0,43.84,0,65.75,0Z"/><path class="h" d="m2.8,3991.22c3.3-8.01,4.47-18.28,10.21-23.69,315.59-297.53,631.57-594.64,947.52-891.79,4.28-4.02,8.69-7.9,13.04-11.84,1.7,1.71,3.41,3.42,5.11,5.13-29.43,27.45-59.98,53.79-88.1,82.52-270.06,275.91-539.72,552.21-809.44,828.44-3.38,3.46-6.2,7.48-9.29,11.23H2.8Z"/><path class="h" d="m3888.91,3991.22c-3.78-5.08-7.05-10.65-11.4-15.18-273.62-285.37-547.33-570.65-821.01-855.95-5.06-5.27-9.97-10.68-13.51-17.34,65.29,63.04,130.39,126.29,195.91,189.1,239.55,229.64,479.24,459.12,718.84,688.69,3.53,3.38,6.72,7.12,10.08,10.68h-78.91Z"/><path class="h" d="m1899.83,3991.22c2.58-48.59,4.78-97.19,7.82-145.75,7.12-113.64,14.74-227.26,21.99-340.89,10.6-166.09,21.07-332.19,31.57-498.29,1.79-28.4,3.43-56.8,6.93-85.17-3.04,356.7-6.09,713.4-9.13,1070.1h-59.18Z"/><path class="h" d="m2784.23,3991.22c-11.83-31.67-23.18-63.54-35.58-94.99-111.34-282.47-222.87-564.86-334.32-847.29-1.95-4.93-3.57-10-3.08-16.06,1.78,3.24,3.8,6.37,5.32,9.73,140.66,311.09,281.28,622.19,421.83,933.32,2.19,4.86,3.36,10.18,5.01,15.29h-59.18Z"/><path class="h" d="m2432.44,0c-16.36,71.44-33.1,142.79-49.01,214.32-55.59,249.94-110.89,499.94-166.28,749.92-5.19,23.42-10.29,46.86-18.11,69.81,5.89-34.03,11.8-68.06,17.67-102.1,40.15-232.96,80.36-465.92,120.41-698.9,13.35-77.65,26.3-155.37,39.43-233.06,18.63,0,37.26,0,55.89,0Z"/><path class="h" d="m706.38,0c5.31,10.02,10.1,20.36,16.02,30,176.81,288.52,353.74,576.97,530.64,865.44,3.26,5.31,6.43,10.68,6.75,17.64-10.57-15.69-21.14-31.37-31.7-47.06C1037.61,582.99,847.12,299.96,656.71,16.88c-3.59-5.34-6.36-11.24-9.51-16.88,19.73,0,39.45,0,59.18,0Z"/><path class="h" d="m2508.06,0c-11.16,44.5-22.02,89.08-33.54,133.49-73.21,282.17-146.56,564.31-219.9,846.45-1.23,4.71-2.84,9.32-6.48,13.53,5.63-26.73,11.26-53.47,16.89-80.2,63.53-301.35,127.05-602.7,190.63-904.04.67-3.15,2.04-6.15,3.09-9.23,16.44,0,32.88,0,49.32,0Z"/><path class="h" d="m591.31,0c15.03,23.95,29.49,48.28,45.19,71.78,174.29,260.92,348.78,521.7,523.18,782.55,2.55,3.81,4.68,7.9,4.6,13.39-24.92-34.3-49.78-68.65-74.77-102.9C905.86,513.04,722.19,261.28,538.54,9.51c-2.25-3.09-4.28-6.34-6.42-9.51,19.73,0,39.45,0,59.18,0Z"/><path class="h" d="m3260.95,0c-110.7,175.53-221.52,350.99-332.05,526.63-64.74,102.88-129.01,206.06-193.51,309.09-2.59,4.13-5.35,8.15-10.41,11.15,1.45-3.4,2.58-6.98,4.41-10.17C2889,557.78,3048.68,278.89,3208.35,0c17.53,0,35.07,0,52.6,0Z"/><path class="h" d="m3869.29,11.29c-56.87,59.99-114.13,119.63-170.55,180.04-171.59,183.7-342.87,367.7-514.25,551.6-3.32,3.56-6.39,7.34-12.39,8.41C3388.02,500.89,3603.94,250.44,3819.87,0c19.73,0,39.45,0,59.18,0-3.25,3.76-6.5,7.53-9.75,11.29Z"/><path class="h" d="m1594.07,3991.22c67.33-302.63,134.66-605.26,202-907.89l1.98.32c-4.97,28.63-9.98,57.26-14.92,85.9-42.26,245.29-84.56,490.58-126.67,735.89-4.89,28.5-8.74,57.18-13.08,85.77h-49.32Z"/><path class="h" d="m3214.92,3991.22c-159.97-261.08-319.94-522.16-479.91-783.24.57-.49,1.14-.97,1.71-1.46,1.72,2.13,3.61,4.14,5.13,6.41,172.83,257.04,345.64,514.09,518.42,771.16,1.51,2.25,2.65,4.75,3.96,7.14h-49.32Z"/><path class="h" d="m1521.74,3991.22c23.02-88.95,46.02-177.91,69.07-266.85,50.37-194.34,100.75-388.68,151.15-583.02,1.36-5.26,2.92-10.47,6.62-15.24-5.69,27.09-11.36,54.19-17.09,81.28-54.2,256.42-108.41,512.84-162.53,769.29-1,4.72-.82,9.69-1.19,14.54h-46.03Z"/><path class="h" d="m2761.21,0c-32.88,84.61-66.05,169.11-98.58,253.86-73.3,190.97-146.27,382.07-219.39,573.1-1.54,4.04-3.25,8.01-7.4,11.24,3.82-11.77,7.52-23.57,11.46-35.29,88.13-262.37,176.29-524.73,264.36-787.12,1.71-5.08,2.37-10.51,3.52-15.78,15.34,0,30.69,0,46.03,0Z"/><path class="h" d="m3323.42,3991.22c-159.15-238.21-318.3-476.43-477.46-714.64.82-.7,1.64-1.4,2.46-2.1,3.1,3.78,6.39,7.42,9.27,11.37,168.24,230.92,336.46,461.85,504.61,692.84,2.81,3.86,4.78,8.34,7.14,12.53h-46.03Z"/><path class="h" d="m2820.39,0c-15.69,39.02-31.09,78.16-47.12,117.04-92.03,223.11-184.2,446.16-276.36,669.22-1.95,4.73-4.35,9.28-9.19,12.91,3.44-9.56,6.83-19.13,10.33-28.67,92.98-253.84,185.98-507.68,278.99-761.51,1.12-3.06,2.59-5.99,3.9-8.98,13.15,0,26.3,0,39.45,0Z"/><path class="h" d="m818.16,3991.22c47.92-76.53,95.84-153.06,143.76-229.59,100.23-160.07,200.46-320.14,300.71-480.19,3.37-5.38,6.99-10.61,12.63-14.78-1.66,3.68-3.03,7.54-5.03,11.03-135.23,236.03-270.52,472.02-405.81,708.02-1.09,1.89-2.35,3.68-3.53,5.52h-42.74Z"/><path class="h" d="m2166.13,0c-9.8,101.91-19.75,203.81-29.36,305.74-12.95,137.36-25.64,274.75-38.4,412.13-3.12,33.56-6.07,67.13-11.54,100.54,2.72-54.62,5.35-109.24,8.17-163.85,7.16-138.92,14.5-277.83,21.58-416.75,3.77-73.84,7.19-147.69,10.66-221.54.25-5.4-.36-10.85-.56-16.27,13.15,0,26.3,0,39.45,0Z"/><path class="h" d="m239.52,3991.22c63.48-68.08,127-136.13,190.44-204.24,125.06-134.27,250.07-268.57,375.09-402.88,3.63-3.9,7-8.04,10.49-12.07,1.14.95,2.29,1.91,3.43,2.86-4.18,5.11-8.23,10.33-12.55,15.33-169.48,195.94-338.98,391.85-508.42,587.83-3.48,4.02-6.13,8.76-9.16,13.16h-49.32Z"/><path class="h" d="m305.27,0c4.53,6.67,8.61,13.69,13.64,19.95,162.45,202.32,325,404.56,487.52,606.82,4.05,5.04,7.98,10.17,10.37,17.15-2.74-2.54-5.75-4.85-8.18-7.65C627.96,427.73,447.33,219.16,266.75,10.54c-2.81-3.25-5.01-7.02-7.5-10.54,15.34,0,30.69,0,46.03,0Z"/><path class="h" d="m2563.95,0c-4.56,17.92-8.63,35.98-13.74,53.74-65.46,227.5-131.07,454.96-196.67,682.41-1.34,4.65-3.01,9.2-7.23,13.1,6.83-27.9,13.65-55.8,20.5-83.69,53.66-218.79,107.33-437.59,161.03-656.37.77-3.14,2.14-6.14,3.23-9.2,10.96,0,21.92,0,32.88,0Z"/><path class="h" d="m1285.02,3991.22c35.13-90.83,70.48-181.58,105.33-272.52,55.03-143.57,109.71-287.27,164.58-430.9,2.13-5.57,4.64-11.01,8.97-15.87-3.15,9.93-6.14,19.92-9.46,29.8-75.2,223.53-150.45,447.04-225.59,670.58-2.05,6.1-2.94,12.59-4.38,18.9h-39.45Z"/><path class="h" d="m1229.13,3991.22c25.89-63.24,51.68-126.53,77.69-189.72,66.21-160.85,132.51-321.67,198.8-482.49,2.17-5.26,4.67-10.38,9.46-14.57-16.91,46-33.85,91.99-50.72,138-64.76,176.66-129.52,353.33-194.18,530.03-2.21,6.04-3.28,12.49-4.88,18.75h-36.17Z"/><path class="h" d="m3191.91,0c-77.54,129.65-155.19,259.24-232.6,388.98-44.32,74.27-88.24,148.78-132.37,223.16-2.48,4.18-5.26,8.19-10.6,10.76C2929.48,415.27,3042.61,207.63,3155.74,0c12.05,0,24.11,0,36.17,0Z"/><path class="h" d="m1843.93,3991.22c6.96-76.84,13.81-153.69,20.92-230.51,10.43-112.81,21.07-225.6,31.58-338.4,3.75-40.28,7.39-80.58,13.44-120.78-1.45,30.98-2.79,61.96-4.37,92.93-7.53,147.07-15.03,294.13-22.77,441.19-2.73,51.88-6.11,103.72-9.19,155.58h-29.59Z"/><path class="h" d="m1712.42,0c7,58.66,13.68,117.37,21.05,175.98,17.01,135.19,34.34,270.34,51.57,405.51,4.49,35.2,9.08,70.38,10.67,106-8-48.37-15.93-96.74-24.01-145.1-29.2-174.84-58.46-349.68-87.6-524.53-.98-5.86-.87-11.9-1.27-17.86,9.86,0,19.73,0,29.59,0Z"/><path class="h" d="m3066.97,0c-2.47,5.96-4.46,12.18-7.49,17.84-101.92,190.62-203.93,381.2-305.97,571.76-2,3.73-4.4,7.24-8.6,9.82C2842.4,399.62,2939.89,199.81,3037.38,0c9.86,0,19.73,0,29.59,0Z"/><path class="h" d="m3589.72,3991.22c-2.87-4.51-5.34-9.33-8.67-13.47-130-161.77-260.08-323.47-390.12-485.21-3.2-3.98-6.05-8.25-6.62-14.31,15.86,18.35,31.7,36.71,47.57,55.06,128.27,148.26,256.55,296.51,384.75,444.83,3.48,4.03,6.19,8.72,9.25,13.1h-36.17Z"/><path class="h" d="m1469.13,3991.22c18.53-65.17,36.94-130.38,55.63-195.5,40.56-141.34,81.25-282.65,121.91-423.96,1.35-4.68,2.91-9.3,6.67-13.37-7.03,28.76-14.03,57.53-21.1,86.28-44.13,179.49-88.28,358.97-132.38,538.47-.65,2.63-.77,5.39-1.14,8.09h-29.59Z"/><path class="h" d="m1843.93,0c14.22,225.36,28.43,450.73,42.65,676.09-.6.04-1.2.08-1.8.12-22.11-217.23-44.25-434.47-66.27-651.71-.82-8.11-.61-16.33-.87-24.5,8.77,0,17.53,0,26.3,0Z"/><path class="h" d="m1041.73,0c76.74,170.58,153.48,341.16,230.22,511.74,11.11,24.69,22.27,49.37,30.23,75.52C1205.5,391.5,1108.82,195.75,1012.14,0c9.86,0,19.73,0,29.59,0Z"/><path class="h" d="m3974.39,3991.22c-58.5-59.16-116.85-118.47-175.55-177.43-88.1-88.48-176.46-176.7-264.67-265.06-3.64-3.64-6.96-7.59-8.89-12.86,40.98,38.45,81.89,76.97,122.95,115.34,108.82,101.7,217.7,203.34,326.63,304.92,3.87,3.61,8.57,6.31,12.89,9.44l-.51-.54c2.3,8.73,4.59,17.46,6.89,26.19h-19.73Z"/><path class="h" d="m2656.01,0c-9.89,31.7-19.3,63.55-29.76,95.06-50.48,152.03-101.23,303.98-151.93,455.94-2.05,6.15-4.54,12.16-9.12,17.6,2.22-8.17,4.3-16.39,6.69-24.52,52.49-178.34,105.02-356.67,157.58-534.98.92-3.11,2.34-6.07,3.52-9.1,7.67,0,15.34,0,23.01,0Z"/><path class="h" d="m883.91,3991.22c1.1-3.01,1.76-6.27,3.36-8.98,96.37-162.26,192.82-324.48,289.28-486.68,1.38-2.32,3.02-4.48,7.36-5.12-91.24,166.93-182.47,333.86-273.71,500.78h-26.3Z"/><path class="h" d="m249.38,0c120.64,146.15,241.27,292.3,361.91,438.45-.82.72-1.64,1.45-2.46,2.17-9.23-10.33-18.49-20.64-27.69-30.99C463.02,276.64,344.89,143.65,226.85,10.59,224.06,7.45,222.12,3.55,219.79,0c9.86,0,19.73,0,29.59,0Z"/><path class="h" d="m2268.05,3991.22c-5.99-51.05-11.64-102.15-18.05-153.15-14.68-116.76-29.74-233.47-44.62-350.21-2.39-18.75-4.65-37.51-4.49-56.58,31.15,186.64,62.3,373.29,93.46,559.93h-26.3Z"/><path class="h" d="m3869.29,11.29c3.25-3.76,6.5-7.53,9.75-11.29,12.05,0,24.11,0,36.17,0-5.03,6.38-10.06,12.75-15.09,19.13-16.72,16.38-33.91,32.31-50.09,49.21-108.71,113.59-217.22,227.37-325.74,341.14-2.64,2.77-4.73,6.06-7.07,9.1-1.18-.98-2.36-1.95-3.55-2.93,3.49-4.17,6.88-8.44,10.49-12.5,110.79-124.35,221.64-248.66,332.32-373.1,4.99-5.61,8.56-12.48,12.8-18.76Z"/><path class="h" d="m1229.13,0c13.7,39.71,26.97,79.58,41.18,119.1,47.17,131.18,94.69,262.23,142.03,393.34,1.61,4.45,2.73,9.08,1.51,14.54C1343.51,351.33,1273.17,175.66,1202.83,0c8.77,0,17.53,0,26.3,0Z"/><path class="h" d="m2143.12,3991.22c-1.51-34.39-2.52-68.81-4.62-103.16-7.05-115.3-14.49-230.58-21.79-345.87-2.1-33.18-4.21-66.36-4.41-99.67,17.76,175.28,35.55,350.57,53.22,525.86.76,7.56.43,15.23.61,22.84h-23.01Z"/><path class="h" d="m998.99,3991.22c3.93-8.84,7.32-17.97,11.86-26.48,80.16-150.11,160.46-300.14,240.74-450.19,1.28-2.39,2.64-4.72,6.03-6.18-3.1,6.64-6.08,13.33-9.31,19.9-73.96,150.79-147.95,301.57-221.91,452.37-1.68,3.42-2.94,7.05-4.4,10.58h-23.01Z"/><path class="h" d="m1488.86,0c23.43,101.17,46.73,202.37,70.34,303.5,16.64,71.3,33.7,142.5,50.51,213.76.35,1.49.04,3.13-2.03,5.14C1560.4,348.27,1513.12,174.13,1465.84,0c7.67,0,15.34,0,23.01,0Z"/><path class="h" d="m518.98,0c69.38,99.67,138.72,199.37,208.16,299.01,26.28,37.71,52.78,75.26,79.14,112.91,3,4.29,5.76,8.75,6.71,14.74-1.83-2.09-3.81-4.07-5.48-6.28-103.24-137.35-206.47-274.71-309.65-412.1-1.95-2.59-3.46-5.51-5.18-8.27,8.77,0,17.53,0,26.3,0Z"/><path class="h" d="m2896.01,3991.22c-16.23-37.52-32.05-75.22-48.78-112.51-48.09-107.2-96.55-214.22-144.81-321.34-1.67-3.71-2.65-7.73-1.36-12.71,6.44,12.95,12.91,25.88,19.31,38.84,64.11,129.88,128.24,259.75,192.23,389.69,2.8,5.69,4.31,12.01,6.42,18.03h-23.01Z"/><path class="h" d="m3507.53,0c-5.7,8.52-11.01,17.33-17.17,25.51-92.19,122.5-184.49,244.91-276.77,367.34-1.96,2.6-4.05,5.11-8.55,5.93C3298.2,265.85,3391.36,132.93,3484.52,0c7.67,0,15.34,0,23.01,0Z"/><path class="h" d="m758.98,0c75.28,128.97,150.57,257.93,225.82,386.91,2.86,4.89,5.33,10.01,5.18,16.59-11.79-18.77-23.54-37.58-35.38-56.32-70.12-111.02-140.27-222.02-210.37-333.05-2.91-4.61-5.51-9.42-8.26-14.13,7.67,0,15.34,0,23.01,0Z"/><path class="h" d="m157.32,0c3.64,5.25,6.82,10.9,10.99,15.69,89.43,102.8,178.98,205.5,268.48,308.25,3.53,4.05,6.79,8.33,8.8,14.36-2.51-2.04-5.31-3.82-7.5-6.17C338.34,225.37,238.62,118.57,139,11.7c-3.18-3.41-5.34-7.78-7.98-11.7,8.77,0,17.53,0,26.3,0Z"/><path class="h" d="m1383.65,3991.22c3.3-11.97,6.07-24.13,9.99-35.9,45.89-137.89,91.95-275.72,137.98-413.56,1.37-4.1,2.91-8.14,6.39-11.61-12.55,42.47-25.14,84.94-37.64,127.43-31.46,106.96-62.88,213.94-94.26,320.92-1.22,4.15-1.84,8.47-2.74,12.72h-19.73Z"/><path class="h" d="m2721.76,3991.22c-12.57-36.66-24.72-73.47-37.8-109.94-33.81-94.24-68.04-188.33-102.05-282.5-1.77-4.91-3.09-9.98-2.26-15.78,15.15,37.94,30.26,75.91,45.46,113.83,37.47,93.46,75.01,186.89,112.42,280.38,1.79,4.48,2.66,9.34,3.96,14.02h-19.73Z"/><path class="h" d="m3642.33,3991.22c-84.55-102.22-169.11-204.43-253.66-306.65.95-.82,1.9-1.65,2.84-2.47,91.28,103.04,182.55,206.08,273.83,309.13h-23.01Z"/><path class="h" d="m203.35,0c72.76,86.2,145.52,172.4,218.28,258.6,11.74,13.91,23.48,27.82,35.22,41.72-.89.76-1.79,1.52-2.68,2.29-8.63-9.51-17.25-19.02-25.89-28.52C348.35,186.11,268.41,98.15,188.51,10.14,185.59,6.94,183.05,3.39,180.34,0c7.67,0,15.34,0,23.01,0Z"/><path class="h" d="m2478.47,3991.22c-28.95-123.91-57.9-247.82-86.83-371.73-1.83-7.83-3.5-15.69-2.72-24.15,14.85,54.97,29.63,109.96,44.55,164.91,19.47,71.69,39.07,143.34,58.52,215.03,1.41,5.19,1.97,10.62,2.92,15.94h-16.44Z"/><path class="h" d="m795.15,0c58.65,103.73,117.31,207.46,175.95,311.2,4.15,7.34,8.2,14.73,8.98,23.87C911.86,223.38,843.64,111.69,775.42,0c6.58,0,13.15,0,19.73,0Z"/><path class="h" d="m206.64,3991.22c2.04-3.07,3.68-6.51,6.18-9.14,84.93-89.14,169.94-178.21,254.97-267.26,2.11-2.2,4.49-4.14,8.78-4.5-3.53,4.33-6.9,8.8-10.62,12.96-75.41,84.53-150.88,169-226.23,253.58-3.86,4.34-6.74,9.55-10.07,14.35h-23.01Z"/><path class="h" d="m1982.02,0v393.18c-1.22.02-2.43.03-3.65.05-3.31-118.06-6.57-236.13-10.02-354.19-.38-13.03-1.82-26.03-2.77-39.04,5.48,0,10.96,0,16.44,0Z"/><path class="h" d="m3810,0c-1.93,3.13-3.42,6.66-5.84,9.35-78.52,86.82-157.12,173.57-235.74,260.31-2.01,2.21-4.33,4.14-8.53,4.35C3636.69,182.67,3713.48,91.33,3790.28,0c6.58,0,13.15,0,19.73,0Z"/><path class="h" d="m3389.17,3991.22c-65.92-94.6-131.84-189.2-197.76-283.79.99-.73,1.98-1.46,2.97-2.19,71.51,95.33,143.01,190.66,214.52,285.98h-19.73Z"/><path class="h" d="m1531.6,0c24.3,113.6,48.6,227.2,72.9,340.79-1.02.23-2.04.46-3.07.7-12.04-48.55-24.09-97.09-36.11-145.65-14.96-60.46-29.93-120.92-44.78-181.41-1.15-4.7-1.42-9.61-2.09-14.43,4.38,0,8.77,0,13.15,0Z"/><path class="h" d="m2356.82,0c-12.07,62.8-24.23,125.58-36.17,188.41-9.22,48.54-18.14,97.13-30.21,145.21,5.13-33.34,10.26-66.67,15.38-100.01,11.37-74.05,22.75-148.11,34.04-222.17.57-3.75.36-7.62.51-11.43,5.48,0,10.96,0,16.44,0Z"/><path class="h" d="m3162.32,3991.22c-22.99-40.22-45.79-80.55-69.03-120.63-27.68-47.72-55.76-95.2-83.61-142.82-2.03-3.47-3.53-7.25-2.82-12.22,10.07,15.93,20.15,31.85,30.2,47.79,45.15,71.63,90.31,143.25,135.37,214.93,2.54,4.05,4.24,8.62,6.33,12.95h-16.44Z"/><path class="h" d="m3783.7,0c-70.51,79-141.03,158-211.54,237l-2.75-2.32C3634.26,156.46,3699.12,78.23,3763.97,0c6.58,0,13.15,0,19.73,0Z"/><path class="h" d="m860.9,0c7.46,15.59,14.37,31.48,22.49,46.71,37.78,70.87,75.9,141.56,113.85,212.34,1.99,3.71,3.61,7.62,3.4,12.85-1.59-2.03-3.45-3.9-4.73-6.11-49.34-85.08-98.64-170.17-147.84-255.33-1.81-3.14-2.43-6.96-3.61-10.46,5.48,0,10.96,0,16.44,0Z"/><path class="h" d="m584.73,3991.22c61.56-82.29,123.13-164.58,184.69-246.88,1.12.65,2.24,1.29,3.35,1.94-2.46,3.96-4.73,8.06-7.41,11.87-50.6,72.1-101.29,144.13-151.81,216.28-3.63,5.18-6.1,11.17-9.1,16.79h-19.73Z"/><path class="h" d="m1656.53,0c16.63,108.91,33.25,217.82,49.88,326.74-1.07.17-2.14.35-3.21.52C1683.26,218.17,1663.32,109.09,1643.38,0c4.38,0,8.77,0,13.15,0Z"/><path class="h" d="m3540.41,0c-65.05,84.17-130.09,168.33-195.14,252.5-.8-.55-1.59-1.1-2.39-1.65,2.81-4.3,5.47-8.71,8.46-12.88,54-75.15,108.06-150.25,162.02-225.42,2.81-3.91,4.9-8.35,7.32-12.54,6.58,0,13.15,0,19.73,0Z"/><path class="h" d="m1314.61,0c31.7,99.23,63.41,198.45,95.11,297.68-.98.34-1.96.68-2.93,1.02C1371.67,199.14,1336.57,99.57,1301.46,0c4.38,0,8.77,0,13.15,0Z"/><path class="h" d="m3691.64,0c-63.91,75.62-127.82,151.25-191.72,226.87-.94-.63-1.87-1.25-2.81-1.88,2.89-3.92,5.68-7.93,8.7-11.75,52.24-66.12,104.54-132.19,156.71-198.37,3.61-4.58,6.29-9.9,9.4-14.87,6.58,0,13.15,0,19.73,0Z"/><path class="h" d="m3731.1,3991.22c-59.34-68.3-118.68-136.6-178.02-204.91.74-.71,1.47-1.43,2.21-2.14,2.54,2.33,5.26,4.49,7.6,7,60.12,64.43,120.21,128.88,180.25,193.39,1.79,1.92,2.95,4.43,4.41,6.66h-16.44Z"/><path class="h" d="m2014.9,3991.22v-261.77c1.43-.02,2.86-.05,4.29-.07,1.86,87.28,3.72,174.56,5.58,261.84h-9.86Z"/><path class="h" d="m824.74,0c40.57,73.5,81.15,147.01,121.72,220.51-.99.58-1.97,1.15-2.96,1.73C899.52,148.16,855.55,74.08,811.58,0c4.38,0,8.77,0,13.15,0Z"/><path class="h" d="m3129.44,3991.22c-39.56-70.31-79.11-140.62-118.67-210.94,1.06-.63,2.11-1.26,3.17-1.9,42.88,70.94,85.77,141.89,128.65,212.83h-13.15Z"/><path class="h" d="m3685.07,3991.22c-42.23-50.25-84.45-100.5-126.68-150.75-4.03-4.8-8.06-9.6-9.86-16.57,1.75,1.51,3.69,2.86,5.23,4.56,46.36,51.09,92.7,102.18,138.93,153.39,2.38,2.64,3.71,6.23,5.53,9.37h-13.15Z"/><path class="h" d="m2439.02,3991.22c-12.07-54.97-24.16-109.93-36.18-164.9-2.54-11.61-4.84-23.26-4.22-35.56,16.76,66.82,33.51,133.64,50.27,200.46h-9.86Z"/><path class="h" d="m2596.83,0c-21.12,68.93-42.23,137.86-63.35,206.79-1.09-.3-2.18-.6-3.26-.9C2549.13,137.26,2568.05,68.63,2586.96,0c3.29,0,6.58,0,9.86,0Z"/><path class="h" d="m1666.4,3991.22c6.94-39.85,13.72-79.73,20.86-119.55,5.18-28.9,10.83-57.72,19.2-86.1-5.12,33.36-10.42,66.69-15.32,100.09-5.16,35.16-9.93,70.37-14.87,105.56h-9.86Z"/><path class="h" d="m301.98,3991.22c33.75-37.96,67.48-75.94,101.27-113.87,9.27-10.41,18.74-20.64,30.57-28.81-39.56,47.56-79.12,95.12-118.68,142.67h-13.15Z"/><path class="h" d="m1742.01,0c7.8,70.41,15.6,140.81,23.4,211.22-.84.1-1.68.2-2.52.3C1752.65,141.01,1742.4,70.51,1732.15,0c3.29,0,6.58,0,9.86,0Z"/><path class="h" d="m630.76,0c33.08,51.76,66.16,103.53,99.24,155.29-1,.69-2,1.38-3,2.08-6.25-9.07-12.48-18.14-18.74-27.2-26.73-38.67-53.53-77.3-80.13-116.06-2.97-4.32-4.85-9.39-7.23-14.11,3.29,0,6.58,0,9.86,0Z"/><path class="h" d="m2320.66,3991.22c-10.02-66.2-20.04-132.4-30.06-198.6.91-.15,1.82-.29,2.73-.44,12.4,66.35,24.79,132.69,37.19,199.04h-9.86Z"/><path class="h" d="m78.42,3991.22c46.75-49.72,93.51-99.43,140.26-149.15,2.44,2.41,4.88,4.82,7.32,7.24-44.81,47.3-89.62,94.61-134.43,141.91h-13.15Z"/><path class="h" d="m3070.26,3991.22c-26.56-49.43-53.12-98.86-79.68-148.29,1.21-.68,2.42-1.37,3.62-2.05,28.64,50.11,57.28,100.23,85.92,150.34h-9.86Z"/><path class="h" d="m2639.57,3991.22c-10.46-34.86-20.81-69.75-31.43-104.55-6.64-21.77-13.7-43.42-17.6-66.16,19.63,56.9,39.26,113.81,58.9,170.71h-9.86Z"/><path class="h" d="m114.58,0c25.01,28.8,50.02,57.6,75.02,86.41,4.63,5.34,9.25,10.68,12.5,17.86-2.86-2.39-5.97-4.52-8.53-7.2-21.86-22.92-43.52-46.04-65.49-68.85-5.56-5.78-12.03-10.68-18.03-15.92C107.22,8.24,104.33,4.12,101.43,0c4.38,0,8.77,0,13.15,0Z"/><path class="h" d="m555.14,3991.22c28.87-37.31,57.74-74.61,86.61-111.92,1.03.66,2.05,1.32,3.07,1.99-3.14,4.59-6.24,9.2-9.42,13.76-22.36,32.07-44.74,64.12-67.11,96.18h-13.15Z"/><path class="h" d="m328.29,3991.22c30.93-35.28,61.87-70.57,92.8-105.85.91.66,1.81,1.32,2.72,1.98-2.51,3.65-4.76,7.51-7.58,10.9-22.05,26.54-44.28,52.94-66.26,79.54-3.35,4.05-5.71,8.93-8.53,13.42h-13.15Z"/><path class="h" d="m3139.3,0c-23.38,40.41-46.76,80.81-70.14,121.22-1.06-.58-2.12-1.15-3.18-1.73,21.15-39.83,42.3-79.66,63.45-119.49,3.29,0,6.58,0,9.86,0Z"/><path class="h" d="m413.77,3991.22c26.62-31.77,53.23-63.55,79.85-95.32.98.77,1.97,1.54,2.95,2.31l-72.93,93.01h-9.86Z"/><path class="h" d="m2307.51,0c-6.83,41.99-13.65,83.97-20.48,125.96-1.17-.15-2.34-.3-3.51-.44,5.8-41.84,11.61-83.68,17.41-125.52,2.19,0,4.38,0,6.58,0Z"/><path class="h" d="m173.76,0c17.54,21.33,35.08,42.66,52.6,64.01,3.56,4.34,7.01,8.77,7.52,15.62C209.46,53.08,185.04,26.54,160.61,0c4.38,0,8.77,0,13.15,0Z"/><path class="h" d="m3283.96,0c-19.9,31.83-39.79,63.66-59.69,95.49-1.21-.68-2.42-1.35-3.63-2.03,4.17-7.13,8.41-14.22,12.5-21.4,13.68-24,27.31-48.03,40.96-72.05,3.29,0,6.58,0,9.86,0Z"/><path class="h" d="m1068.03,0c14.51,32.79,29.03,65.58,43.54,98.37-1.25.58-2.5,1.17-3.76,1.75C1092.36,66.75,1076.91,33.37,1061.45,0c2.19,0,4.38,0,6.58,0Z"/><path class="h" d="m2018.18,0c-1.67,34.38-3.34,68.75-5.02,103.13-.52,0-1.04.01-1.56.02V0c2.19,0,4.38,0,6.58,0Z"/><path class="h" d="m3099.85,3991.22c-13.18-25.48-26.37-50.96-39.55-76.45.85-.52,1.7-1.03,2.56-1.55,15.62,26,31.24,52,46.86,78h-9.86Z"/><path class="h" d="m101.43,0c2.89,4.12,5.79,8.24,8.63,12.3,11.22,13.67,22.49,27.41,33.76,41.14l-2.56,2.44C124.69,37.25,108.13,18.63,91.57,0c3.29,0,6.58,0,9.86,0Z"/><path class="h" d="m3754.11,0c-15.45,18.86-30.9,37.72-46.36,56.59-1.09-.9-2.18-1.81-3.27-2.71,14.35-17.96,28.7-35.92,43.05-53.88,2.19,0,4.38,0,6.58,0Z"/><path class="h" d="m2241.75,3991.22c-3.54-27.85-7.07-55.69-10.61-83.54,1.21-.14,2.41-.28,3.62-.42,3.43,27.98,6.85,55.97,10.28,83.95h-3.29Z"/><path class="h" d="m1439.54,3991.22c7.91-26.33,15.83-52.67,23.74-79,.92.25,1.84.5,2.77.75-6.64,26.08-13.29,52.16-19.93,78.25h-6.58Z"/><path class="h" d="m1346.49,2552.57C899.31,2912.74,452.14,3272.91,2.8,3634.82c0-31.97,2.36-62.55-.65-92.58-3.15-31.52,8.86-49.1,34.59-67.22,432.54-304.53,864.21-610.29,1296.08-915.76,3.96-2.8,8.02-5.47,12.03-8.21.55.51,1.1,1.01,1.64,1.52Z"/><path class="h" d="m3994.08,484.18c0,43.98.51,86-.6,127.96-.15,5.63-7.55,12.37-13.18,16.35-126.6,89.29-253.71,177.86-380.14,267.38-311.41,220.5-622.52,441.42-933.76,662.16-4.84,3.44-9.78,6.74-15.96,8.42,447.09-360.12,894.17-720.23,1343.64-1082.27Z"/><path class="h" d="m3994.11,1245.56c0,31.45-.53,60.47.27,89.46.31,11.13-6.94,11.97-14.04,14.4-104.49,35.86-209.07,71.47-313.45,107.65-319.35,110.72-638.63,221.66-957.94,332.5-5.45,1.89-10.97,3.58-17.05,3.54,433.38-182.23,866.76-364.45,1302.21-547.55Z"/><path class="h" d="m2.8,2873.33c0-31.04.56-60.07-.29-89.06-.32-10.99,6.6-12.25,13.78-14.72,93.65-32.14,187.37-64.06,280.92-96.48,326.67-113.19,653.28-226.56,979.92-339.85,5.97-2.07,11.96-4.1,18.8-3.66-430.32,180.95-860.65,361.91-1293.14,543.77Z"/><path class="h" d="m2881.29,1244.14c370.16-358.31,740.32-716.62,1112.72-1077.09,0,33.81.44,65.74-.49,97.63-.13,4.58-6.39,9.57-10.7,13.35-142.94,125.21-286.31,249.93-428.95,375.48-219.51,193.22-438.52,387-657.76,580.53-4.42,3.9-8.96,7.65-13.44,11.47-.46-.46-.92-.92-1.38-1.38Z"/><path class="h" d="m1087.79,2901.48C726.97,3250.84,366.15,3600.2,2.8,3952.01c0-20.52,2.07-39.47-.46-57.78-4.36-31.5,8.3-51.37,31.93-72.05,345.08-301.93,689.19-604.96,1033.53-907.73,5.95-5.23,11.94-10.42,17.91-15.63.69.89,1.38,1.77,2.07,2.66Z"/><path class="h" d="m1304.4,1808.19c-60.15-19.82-120.27-39.74-180.45-59.46-367.6-120.43-735.18-240.94-1102.98-360.78-15.07-4.91-19.52-11.42-18.47-26.3,1.3-18.48.31-37.12.31-58.99,436.1,167.07,870.13,333.35,1304.17,499.63-.86,1.97-1.72,3.94-2.57,5.91Z"/><path class="h" d="m1151.74,2573.16c-382.16,245.25-764.31,490.5-1148.87,737.3,0-27.83-.62-53.8.6-79.69.21-4.41,7.73-9.53,12.92-12.48,158.81-90.45,317.91-180.39,476.63-270.99,214.32-122.35,428.37-245.19,642.54-367.8,5.02-2.87,10.16-5.54,15.25-8.3.31.66.62,1.31.92,1.97Z"/><path class="h" d="m3994.1,808.5c0,27.38.59,52.45-.52,77.45-.21,4.75-6.22,10.78-11.08,13.55-167.78,95.66-335.89,190.73-503.64,286.46-202.92,115.8-405.55,232.11-608.32,348.17-4.98,2.85-10.17,5.31-16.33,6,379.06-243.3,758.12-486.59,1139.89-731.63Z"/><path class="h" d="m3969.32,2768.41c-192.34-74.79-384.68-149.59-577.02-224.38.27-.82.53-1.64.8-2.47,26.98,8.76,53.96,17.49,80.93,26.28,167.98,54.74,335.89,109.67,504.04,163.89,12.88,4.15,16.93,9.56,16.37,22.77-1.12,26.58-.33,53.24-.33,82.28-424.13-170.54-846.84-340.52-1269.55-510.49.17-.46.34-.92.51-1.38,414.15,149.45,828.3,298.89,1242.45,448.34.6-1.61,1.2-3.23,1.8-4.84Z"/><path class="h" d="m3016.11,2968.65c3.65,2.75,7.45,5.32,10.91,8.29,318.33,272.45,636.61,544.97,955.08,817.25,8.66,7.4,12.83,14.7,12.29,26.35-.98,21.16-.28,42.39-.28,66.5-327.94-306.85-653.72-611.68-979.5-916.51.5-.62,1-1.25,1.49-1.87Z"/><path class="h" d="m977.01,1148c-27.67-23.81-55.29-47.68-83.02-71.41C601.03,825.89,308.09,575.17,14.93,324.72c-8.65-7.39-12.99-14.45-12.42-26.16,1.02-21.15.29-42.38.29-66.7,327.04,306,651.82,609.88,976.59,913.76l-2.38,2.38Z"/><path class="h" d="m3993.31,2169.54v68.61c-390.12-39.48-779.42-78.88-1168.71-118.28l.08-1.3c389.29,16.98,778.58,33.96,1168.63,50.97Z"/><path class="h" d="m1172.39,2000.42c-389.37-16.98-778.74-33.96-1168.71-50.96v-68.61c390.22,39.5,779.47,78.89,1168.72,118.29,0,.43,0,.85,0,1.28Z"/><path class="h" d="m3990.76,59.33c1.12,18.77,1.53,37.61,3.56,56.29,2.06,18.95-4.73,31.88-18.86,45.12-311.61,292.24-622.69,585.05-933.89,877.74-3.17,2.99-6.45,5.86-11.64,7.09,7.12-7.35,14.21-14.72,21.36-22.04,300.42-307.56,600.86-615.1,901.23-922.71,3.73-3.82,6.69-8.38,10.01-12.59,9.41-9.63,18.82-19.26,28.23-28.89Z"/><path class="h" d="m5.77,22.34c17.03,17.46,34.06,34.91,51.09,52.37,4.04,5.07,7.71,10.5,12.17,15.16,288.42,300.89,576.91,601.71,865.39,902.54,4.42,4.61,8.71,9.33,11.32,15.85-8.01-7.65-16.03-15.28-24.02-22.95C619.39,695.25,317.1,405.13,14.53,115.3c-8.73-8.36-12.8-16.41-11.91-28.34,1.61-21.5,2.16-43.08,3.15-64.62Z"/><path class="h" d="m3.38,2060.46v-63.66c377.86,16.28,755.07,32.53,1132.27,48.78-.01.39-.02.78-.03,1.17-376.83,4.56-753.67,9.12-1132.24,13.71Z"/><path class="h" d="m2863.16,2072.2c376.13-4.6,752.25-9.2,1129.67-13.82v63.66c-376.41-16.2-753.05-32.41-1129.69-48.62v-1.22Z"/><path class="h" d="m3994.05,1152.17c0,20.87.81,39.88-.63,58.72-.32,4.14-8.07,9.09-13.39,11.27-141.73,58.05-283.68,115.55-425.4,173.62-198.41,81.3-396.66,162.98-594.99,244.48-5.47,2.25-11.05,4.25-17.43,4.43,349.91-163.84,699.82-327.69,1051.85-492.52Z"/><path class="h" d="m1039.73,2481.17c-344.99,161.56-689.97,323.11-1036.91,485.58,0-20.26-.92-38.26.6-56.06.42-4.92,7.27-11.29,12.61-13.49,90.49-37.33,181.29-73.93,271.87-111.05,245.94-100.79,491.81-201.75,737.73-302.62,4.36-1.79,8.88-3.21,13.32-4.81.26.81.53,1.62.79,2.44Z"/><path class="h" d="m2951.92,2357.61c347.13,97.83,694.27,195.66,1041.7,293.57v64.05c-347.99-118.81-695.11-237.33-1042.24-355.85.18-.59.36-1.18.54-1.77Z"/><path class="h" d="m3993.36,2585.22v60.42c-351.02-107.75-701.19-215.24-1051.36-322.72.15-.55.29-1.11.44-1.66,350.04,87.92,700.08,175.84,1050.92,263.96Z"/><path class="h" d="m1036.34,1758.34c-343.78-98.88-687.55-197.77-1032.47-296.98v-57.41c344.57,117.66,688.79,235.19,1033,352.73l-.53,1.66Z"/><path class="h" d="m860.6,3052.77C575.52,3311.67,290.45,3570.57,2.9,3831.72c0-22.43-.55-41.92.43-61.33.22-4.32,5.18-9.15,9.08-12.41,211.44-176.69,423.05-353.18,634.52-529.83,66.85-55.84,133.34-112.11,200.03-168.14,3.9-3.28,8.14-6.15,12.23-9.21.47.66.94,1.32,1.41,1.98Z"/><path class="h" d="m3139.57,1063.33c283.95-257.91,567.9-515.81,854.32-775.97,0,22.55.48,42.93-.44,63.25-.16,3.68-5.65,7.54-9.29,10.58-271.46,227.04-542.99,454.02-814.51,680.99-9.38,7.84-18.81,15.64-28.21,23.46-.63-.77-1.25-1.54-1.88-2.31Z"/><path class="h" d="m3162.55,1102.67c276.27-236.18,552.53-472.36,831.46-710.8,0,20.65.5,38.87-.41,57.02-.19,3.78-5.01,8.01-8.63,10.86-270.99,213.43-542.07,426.75-813.16,640.05-2.4,1.89-5.08,3.44-7.62,5.14-.55-.76-1.09-1.51-1.64-2.27Z"/><path class="h" d="m837.57,3013.46c-277.27,237.06-554.55,474.12-834.56,713.51,0-20.77-.64-39.44.5-58,.25-4.03,6.51-8.16,10.66-11.42,220.78-173.68,441.65-347.24,662.46-520.89,49.07-38.59,97.9-77.47,146.88-116.17,4.04-3.19,8.35-6.03,12.54-9.03.51.67,1.01,1.34,1.52,2Z"/><path class="h" d="m887.81,1463.24c-17.33-8.87-34.66-17.76-52-26.62-272.46-139.14-544.88-278.36-817.53-417.11-11.93-6.07-17.13-12.73-15.71-26.03,1.15-10.8.23-21.82.23-35.67,296.73,168.23,591.6,335.41,886.46,502.58l-1.45,2.85Z"/><path class="h" d="m3115.51,2659.07c12.48,6.31,24.99,12.56,37.44,18.92,274.88,140.38,549.71,280.88,824.8,420.86,12.51,6.37,18.37,13.07,16.64,27.26-1.29,10.62-.26,21.52-.26,34.98-294.92-167.22-587.5-333.11-880.08-499,.49-1.01.97-2.01,1.46-3.02Z"/><path class="h" d="m800.21,1174.05c-4.32-2.72-8.79-5.23-12.95-8.18C530.93,984.03,274.68,802.08,18.12,620.58c-11.62-8.22-17.2-16.49-15.55-30.68,1.19-10.25.23-20.75.23-34.57,267.64,206.54,533.21,411.49,798.79,616.43-.46.76-.92,1.52-1.37,2.29Z"/><path class="h" d="m3184.56,2935.83c3.01,1.93,6.1,3.75,9.01,5.82,260.29,184.69,520.48,369.52,781.09,553.74,14.54,10.27,22.36,20.48,19.68,38.44-1.28,8.55-.22,17.45-.22,29.82-271.76-209.68-541.35-417.69-810.94-625.7.46-.71.92-1.41,1.39-2.12Z"/><path class="h" d="m877.51,1753.03c-291.04-72.96-582.07-145.92-873.86-219.07v-47.65c291.71,87.99,582.95,175.83,874.18,263.67-.11,1.02-.21,2.04-.32,3.06Z"/><path class="h" d="m3987.74,3965.57c-7.67-8.88-14.75-18.36-23.1-26.54-226.24-221.52-452.62-442.91-678.96-664.34-2.7-2.64-5.23-5.45-6.57-9.96,3.49,2.67,7.21,5.09,10.45,8.03,231.78,210.07,463.57,420.13,695.02,630.57,5.18,4.71,8.12,13.47,9.14,20.76,1.51,10.74.83,21.89.04,32.8-.21,2.85-4.25,5.42-6.53,8.13,0,0,.51.54.51.54Z"/><path class="h" d="m2.81,151.88c238.3,233.23,474,463.93,709.7,694.62-.4.59-.8,1.17-1.2,1.76-3.49-2.65-7.21-5.05-10.44-7.98C471.26,632.22,241.65,424.15,12.38,215.71c-5.18-4.71-8.34-13.49-9.16-20.74-1.46-12.95-.41-26.19-.41-43.09Z"/><path class="h" d="m3993.51,1878.6v42.33c-298.08,17.08-595.65,34.13-893.22,51.17l-.11-1.59c297.23-30.58,594.45-61.16,893.33-91.91Z"/><path class="h" d="m892.57,2148.81c-295.98,30.44-591.96,60.87-888.94,91.42v-42.16c296.44-16.99,592.54-33.96,888.63-50.93.11.56.21,1.12.32,1.68Z"/><path class="h" d="m698.12,1055.59c-3.83-2.5-7.8-4.8-11.46-7.52C465.6,883.82,244.69,719.36,23.24,555.64c-15.29-11.3-23.9-22.4-20.59-41.53,1-5.76.15-11.84.15-21.22,233.85,188.02,465.4,374.19,696.95,560.36-.54.78-1.09,1.56-1.63,2.34Z"/><path class="h" d="m3296.34,3060.47c74.58,55.65,149.07,111.42,223.77,166.91,149.02,110.7,297.59,222.03,447.81,331.07,25.33,18.39,30.05,37.7,24.28,66.02-233.08-187.42-465.55-374.35-698.02-561.28.72-.91,1.44-1.81,2.16-2.72Z"/><path class="h" d="m2.8,433.12c223.3,186.42,443.71,370.44,664.13,554.45-.47.7-.94,1.39-1.41,2.09-3.34-2.11-6.88-3.97-9.99-6.37C441.57,817.91,227.68,652.46,13.59,487.25c-7.65-5.9-11.89-11.67-10.98-21.65.88-9.64.19-19.43.19-32.48Z"/><path class="h" d="m3328.78,3126.13c5.84,4.45,11.71,8.86,17.52,13.35,206.54,159.7,412.72,319.87,620.07,478.51,23.6,18.06,33.84,36.11,25.47,65.85-221.67-185.05-443.32-370.09-664.97-555.12.64-.86,1.28-1.73,1.92-2.59Z"/><path class="h" d="m3994.12,723.91c0,11.12-.75,19.29.18,27.26,1.25,10.77-3.25,16.5-12.28,22.15-116.9,73.2-233.58,146.73-350.17,220.42-104.56,66.09-208.93,132.48-313.41,198.69-4.32,2.74-8.94,5.03-14.6,5.3,229.05-157.23,458.11-314.46,690.27-473.83Z"/><path class="h" d="m683.03,2928.02c-225.88,155.05-451.76,310.11-680.2,466.93,0-13.87-1.28-24.84.54-35.26.9-5.15,6.71-10.57,11.66-13.71,198.9-125.88,397.97-251.51,597-377.2,22.95-14.49,45.84-29.09,68.76-43.64.75.96,1.49,1.92,2.24,2.88Z"/><path class="h" d="m3992.31,1494.08c.86,2.32,1.51,3.32,1.58,4.35q2.04,31-27.9,38.64c-238.54,60.26-477.1,120.49-715.65,180.71-2.57.65-5.22,1-8.51-1.02,250.18-74.23,500.37-148.47,750.48-222.68Z"/><path class="h" d="m3.45,2625.15v-36.05c246.48-62.22,492.62-124.36,738.76-186.49.28,1.02.55,2.04.83,3.06-245.85,72.96-491.71,145.92-739.59,219.48Z"/><path class="h" d="m3427.8,3283.74c28.11,23.28,56.2,46.57,84.32,69.82,156.61,129.49,313.01,259.24,470.16,388.08,17.78,14.58,9.51,30.99,12.15,51.16-191.63-170.56-380.35-338.54-569.08-506.52.82-.85,1.63-1.69,2.45-2.54Z"/><path class="h" d="m565.69,832.35c-59.37-49.27-118.66-98.63-178.11-147.79-120.66-99.77-240.92-200.05-362.62-298.55-20.06-16.24-25.73-32.63-20.47-58.07,188.54,167.85,376.14,334.85,563.74,501.85-.85.85-1.69,1.7-2.54,2.56Z"/><path class="h" d="m3.63,1205.97c222.46,98.37,443.52,196.13,664.59,293.88-.38.93-.76,1.87-1.14,2.8-21.1-8.41-42.19-16.86-63.31-25.24-191.59-76.04-383.18-152.09-574.8-228.08-27.24-10.8-27.3-10.67-25.33-43.37Z"/><path class="h" d="m3345.55,2623.22c4.48,1.45,9.06,2.64,13.43,4.37,206.88,82.14,413.63,164.62,620.78,246.07,22.16,8.71,11.77,24.08,14.52,39.67-217.72-96.29-433.59-191.76-649.46-287.23.25-.96.49-1.93.74-2.89Z"/><path class="h" d="m3993.07,1085.93q2.53,32.02-23.03,43.63c-203.49,92.98-406.96,185.98-610.45,278.96-6.23,2.85-12.6,5.42-19.75,6.02,217.21-109.27,434.41-218.53,653.24-328.61Z"/><path class="h" d="m4.26,3032.77q-3.68-31.41,22.14-43.16c196.08-89.53,392.15-179.07,588.24-268.58,4.66-2.13,9.46-3.94,15.38-3.14-208.4,104.87-416.8,209.73-625.76,314.88Z"/><path class="h" d="m612.5,1357.7c-4.27-1.7-8.67-3.14-12.8-5.14-194.85-94.29-389.54-188.89-584.69-282.53-19.53-9.37-8.65-23.82-14.16-39.65,206.6,109.62,409.62,217.34,612.63,325.06-.33.75-.65,1.51-.98,2.26Z"/><path class="h" d="m3993.29,3087.16c-202.07-107.23-402.51-213.59-602.95-319.95.41-.94.83-1.88,1.25-2.82,4.47,2,8.99,3.88,13.39,6.01,188.16,91.02,376.31,182.06,564.47,273.09q25.77,12.47,23.84,43.67Z"/><path class="h" d="m4.2,1663.24c215.1,45.52,429.12,90.82,643.13,136.11-.14.84-.29,1.69-.43,2.53-213.77-36.68-427.55-73.35-642.7-110.26v-28.38Z"/><path class="h" d="m573.88,2869.07c-189.46,112.01-378.93,224.02-568.7,336.21q-5.75-28.02,18.25-41.07c178.4-96.94,356.78-193.91,535.19-290.84,4.57-2.48,9.34-4.57,14.02-6.85.41.85.82,1.7,1.23,2.54Z"/><path class="h" d="m3352.84,2317.58c212.95,36.55,425.89,73.09,640.05,109.85v28.23c-213.73-45.22-427.09-90.37-640.45-135.51.13-.86.27-1.71.4-2.57Z"/><path class="h" d="m3992.16,913.47q4.58,28.56-17.91,40.7c-177.75,96.59-355.48,193.21-533.22,289.8-5.54,3.01-11.18,5.83-18.17,6.09,189.6-112.1,379.2-224.19,569.3-336.58Z"/><path class="h" d="m4.13,906.86c190.01,112.94,378.34,224.88,566.68,336.82l-1.2,2.36c-4.6-2.25-9.29-4.33-13.78-6.78-177.09-96.74-354.17-193.52-531.25-290.29q-23.5-12.84-20.45-42.11Z"/><path class="h" d="m3434.09,2876.38c5.15,2.59,10.38,5.02,15.43,7.78,174.25,95.21,348.48,190.45,522.73,285.67q23.46,12.82,20.65,42.22c-187.18-111.24-373.63-222.05-560.09-332.86.43-.94.85-1.88,1.28-2.82Z"/><path class="h" d="m3992.53,2965.93c-197.15-92.55-393.85-184.9-590.56-277.24.25-.73.51-1.47.76-2.2,4.03,1.5,8.13,2.85,12.09,4.53,186.06,79.2,372.09,158.43,558.15,237.63,23.14,9.85,23.17,9.76,19.56,37.28Z"/><path class="h" d="m2.26,1151.95c195.62,91.84,388,182.16,580.38,272.47l-.78,2.36c-3.54-1.12-7.19-1.97-10.59-3.41-185.67-78.94-371.23-158.12-557.09-236.6-17.76-7.5-9.11-20.34-11.92-34.82Z"/><path class="h" d="m2.79,113.94c153.47,152.19,306.36,303.8,459.25,455.41l-1.61,2.07c-3.47-2.86-7.12-5.54-10.4-8.61C304.39,426.72,158.98,290.39,12.86,154.81c-14.36-13.32-8.05-27.23-10.08-40.87Z"/><path class="h" d="m602.75,2395.63c-199.34,51.79-398.69,103.58-599.09,155.64v-26.33c199.42-43.92,398.96-87.87,598.5-131.82.2.83.39,1.67.59,2.5Z"/><path class="h" d="m3406.16,1720.26c195.26-50.73,390.53-101.46,586.97-152.5v26.2c-195.18,42.99-390.51,86.01-585.84,129.03-.38-.91-.75-1.82-1.13-2.73Z"/><path class="h" d="m3423.68,2406.15c189.73,42.65,379.46,85.3,569.68,128.06v25.22c-190.68-50.32-380.28-100.36-569.89-150.4.07-.96.14-1.93.2-2.89Z"/><path class="h" d="m3507.32,1023.52c161.25-114.69,322.5-229.37,484.06-344.27,5.93,23.74,5.32,25.6-13.13,37.79-153.47,101.34-306.96,202.66-460.46,303.96-2.65,1.75-5.43,3.31-8.14,4.96-.77-.81-1.55-1.63-2.32-2.44Z"/><path class="h" d="m3.34,1584.63v-25.12c190.98,50.4,380.95,100.54,570.93,150.68-.21.88-.41,1.76-.62,2.63-189.86-42.67-379.72-85.35-570.31-128.19Z"/><path class="h" d="m4.51,3440.39c-5.3-20.04,1.25-30.66,16.92-40.89,147.61-96.37,294.57-193.72,441.74-290.76,4.76-3.14,9.71-5.99,16.27-6.19-157.94,112.35-315.87,224.7-474.93,337.84Z"/><path class="h" d="m568.65,1858.04c-188.22-23.13-376.43-46.27-565.08-69.46v-23.97c189.16,30.39,377.29,60.62,565.43,90.85-.12.86-.23,1.72-.35,2.58Z"/><path class="h" d="m3993.44,2330.32v23.97c-188.06-30.22-375.18-60.29-562.29-90.35.12-.9.24-1.79.35-2.69,187.14,23,374.29,46,561.94,69.07Z"/><path class="h" d="m3525.36,3054.42c4.01,2.21,8.15,4.22,12.02,6.66,146.89,92.27,293.6,184.83,440.89,276.47,14.82,9.22,18.72,19.09,13.97,36.32-156.43-105.95-312.33-211.55-468.22-317.14l1.34-2.31Z"/><path class="h" d="m3.16,743.95c154.03,104.36,305.27,206.81,456.5,309.27-.4.76-.79,1.51-1.19,2.27-3.52-1.69-7.24-3.07-10.52-5.13-144.68-90.79-289.17-181.88-434.19-272.12-14.07-8.75-10.34-19.42-10.6-34.29Z"/><path class="h" d="m412.05,736.76c-3.74-2.66-7.62-5.13-11.19-8.01-127.55-102.75-254.88-205.77-382.86-307.98-14.03-11.21-18.15-22.68-13.45-40.7,137.05,118.52,273.26,236.33,409.48,354.13-.66.85-1.33,1.7-1.99,2.55Z"/><path class="h" d="m3582.11,3378.99c7.03,5.7,14.04,11.42,21.09,17.1,124.97,100.71,249.73,201.68,375.23,301.72,14.1,11.24,18.72,22.43,13.88,41-138.08-119.37-275.39-238.06-412.69-356.76.83-1.02,1.66-2.04,2.49-3.06Z"/><path class="h" d="m3.64,2321.55v-21.92c178-19.14,355.28-38.21,532.57-57.27l.28,2.25c-177.03,25.56-354.06,51.13-532.84,76.94Z"/><path class="h" d="m3457.8,1874.8c178.06-25.72,356.12-51.44,535.35-77.33v21.8c-178.53,19.2-356.82,38.36-535.1,57.53-.08-.67-.16-1.34-.25-2.01Z"/><path class="h" d="m3464.07,2229.11c176.26,17.32,352.52,34.63,529.35,52.01v21.7c-176.94-23.86-353.27-47.64-529.6-71.42.08-.76.17-1.53.25-2.29Z"/><path class="h" d="m3.6,1837.91v-21.73c170.46,22.98,339.94,45.84,509.41,68.69-.1.99-.2,1.99-.3,2.98-169.5-16.63-338.99-33.25-509.11-49.94Z"/><path class="h" d="m410.33,3185.04c-134.81,98.86-269.62,197.72-404.78,296.83-5.31-21.34-5.06-22.04,10.59-32.72,126.47-86.27,252.93-172.54,379.42-258.78,4.27-2.91,8.8-5.44,13.21-8.14.52.93,1.03,1.87,1.55,2.8Z"/><path class="h" d="m3599.07,924.83c130.79-95.92,261.58-191.83,393.07-288.26,4.8,16.28.74,25.54-12.27,34.33-121.97,82.4-243.42,165.57-365.04,248.48-4.34,2.96-8.89,5.6-13.34,8.39-.8-.98-1.61-1.96-2.41-2.94Z"/><path class="h" d="m3487.3,1832.25c168.28-28.64,336.56-57.28,505.9-86.1v21.04c-168.87,22.55-337.2,45.02-505.53,67.5l-.36-2.44Z"/><path class="h" d="m3.41,2372.78v-21.03c167.69-22.4,335.11-44.76,502.52-67.13.13.86.27,1.72.4,2.58-167.06,28.43-334.13,56.86-502.92,85.58Z"/><path class="h" d="m3.53,2475.48v-19.21c148.76-27.63,297.87-55.33,446.98-83.02l.61,2.88c-148.88,33.05-297.76,66.09-447.59,99.35Z"/><path class="h" d="m3544.38,1743.17c149.24-33.13,298.48-66.25,448.8-99.62v19.14c-149.76,27.8-299.01,55.51-448.25,83.21-.18-.91-.37-1.82-.55-2.73Z"/><path class="h" d="m309.63,862.08c-7.02-4.82-14.04-9.63-21.06-14.44-91.15-62.47-182.22-125.06-273.58-187.23-9.74-6.63-15.34-13.43-10.36-27.54,102.75,75.57,205.08,150.83,307.41,226.09-.8,1.04-1.61,2.08-2.41,3.12Z"/><path class="h" d="m3696.86,3264.15c2.66,1.54,5.44,2.9,7.96,4.63,92.52,63.41,184.92,126.98,277.64,190.09,9.86,6.71,14.5,13.61,9.73,27.13-99.71-73.37-198.65-146.18-297.59-218.99.75-.95,1.51-1.91,2.26-2.86Z"/><path class="h" d="m3677.45,3057.48c4.09,2.02,8.31,3.84,12.26,6.1,97.27,55.7,194.43,111.59,291.88,166.98,9.96,5.66,15.51,11.44,10.91,24.52-105.61-65.21-210.94-130.24-316.28-195.27.41-.78.81-1.56,1.22-2.33Z"/><path class="h" d="m5.43,864.4c99.89,61.69,199.78,123.39,299.67,185.08-.32.77-.64,1.53-.96,2.3-2.96-1.08-6.14-1.76-8.83-3.3-93.98-53.76-187.99-107.46-281.65-161.77-5.98-3.47-9.17-11.73-13.66-17.76,1.81-1.52,3.62-3.04,5.43-4.56Z"/><path class="h" d="m3996.42,1438.59c-3.88,4.64-6.93,12.08-11.76,13.51-108.95,32.31-218.1,63.97-327.22,95.68-1.44.42-3.1.05-5.11-1.85,113.32-37.15,226.64-74.29,339.96-111.44l4.14,4.09Z"/><path class="h" d="m.79,2680.01c3.58-4.43,6.35-11.56,10.84-12.89,105.9-31.26,211.99-61.89,318.05-92.6.43-.12,1,.24,5.48,1.46-112.04,36.75-220.83,72.43-329.62,108.11-1.58-1.36-3.17-2.72-4.75-4.08Z"/><path class="h" d="m3990.76,59.33c-9.41,9.63-18.82,19.26-28.23,28.89-20.76,19.24-41.86,38.14-62.22,57.8-42.7,41.24-85.02,82.87-129.08,122.76,73.21-76.41,146.41-152.83,219.62-229.24,1.25.36,2.49.72,3.74,1.08-1.28,6.24-2.55,12.47-3.83,18.71Z"/><path class="h" d="m.92,2730.2c3.25-3.65,5.84-9.36,9.85-10.64,89.95-28.86,180.05-57.23,270.14-85.65.37-.12.94.42,3.7,1.76-94.38,33.35-187.1,66.11-279.81,98.88-1.29-1.45-2.59-2.9-3.88-4.35Z"/><path class="h" d="m3995.92,1388.11c-3.07,3.81-5.42,9.84-9.3,11.09-90.92,29.1-182,57.69-273.07,86.32-.35.11-.92-.5-2.85-1.62,94.38-33.36,187.73-66.35,281.08-99.34,1.38,1.19,2.76,2.37,4.14,3.56Z"/><path class="h" d="m.9,3092.58c3.06-4.07,5.23-9.91,9.3-11.95,83.98-42.01,168.18-83.59,252.36-125.2.76-.38,1.88-.05,4.94-.05-88.55,47.55-175.49,94.25-262.43,140.94-1.39-1.25-2.78-2.5-4.17-3.75Z"/><path class="h" d="m283.23,2241.03c-92.64,11.25-185.28,22.51-278.19,33.8-5.23-10.43.02-12.26,8.68-12.99,63.76-5.4,127.49-11.06,191.23-16.67,26.01-2.29,52.01-4.67,78.02-7,.09.96.17,1.91.26,2.87Z"/><path class="h" d="m3711.1,1878.28c93.37-11.34,186.73-22.68,280.6-34.07,5.3,9.98.67,12.3-8.23,13.06-64.39,5.48-128.76,11.2-193.14,16.85-26.13,2.3-52.26,4.63-78.39,6.94l-.84-2.78Z"/><path class="h" d="m3995.94,1026.26c-3.02,4.11-5.14,10.03-9.2,12.06-75.14,37.61-150.51,74.75-225.85,111.95-.33.16-.96-.27-4.24-1.33,79.54-42.75,157.28-84.53,235.03-126.32,1.42,1.21,2.84,2.43,4.26,3.64Z"/><path class="h" d="m3991.16,3441.47c-69.09-49.32-138.17-98.65-207.26-147.97l1.59-2.52c2.99,1.8,6.05,3.49,8.95,5.42,63.2,42.11,126.47,84.12,189.42,126.59,5.21,3.52,8.29,10.19,12.37,15.4-1.69,1.03-3.38,2.06-5.06,3.08Z"/><path class="h" d="m198.16,818.81c-3.09-1.81-6.27-3.48-9.25-5.47-58.76-39.11-117.59-78.12-176.1-117.61-5.02-3.39-7.9-9.95-11.77-15.04,1.37-1.19,2.73-2.38,4.1-3.57,64.91,46.33,129.83,92.65,194.74,138.98-.57.9-1.15,1.8-1.72,2.7Z"/><path class="h" d="m3782.3,2445.68c34.7,6.87,69.42,13.68,104.11,20.62,31.65,6.33,63.31,12.65,94.88,19.38,4.81,1.03,9.17,4.22,13.73,6.41-.88,1.86-1.75,3.71-2.63,5.57-70-16.31-140-32.61-210.01-48.92-.03-1.02-.06-2.04-.09-3.06Z"/><path class="h" d="m201.7,1670.73c-47.07-9.44-94.13-18.89-141.2-28.31-15.55-3.11-31.18-5.85-46.62-9.43-4.25-.99-7.93-4.41-11.88-6.71.84-1.69,1.68-3.38,2.52-5.07,66.19,15.43,132.38,30.87,198.58,46.3-.47,1.08-.93,2.15-1.4,3.23Z"/><path class="h" d="m1.99,3060.58c1.97-3.05,3.23-7.57,6.03-8.93,52.83-25.79,105.85-51.2,160.31-73.72-54.53,28.38-109.06,56.76-163.6,85.14-.91-.83-1.83-1.66-2.74-2.48Z"/><path class="h" d="m3844.86,1132.61c50.13-26.09,98.75-51.4,147.38-76.7.9.88,1.8,1.75,2.7,2.63-2.45,3.23-4.19,7.88-7.44,9.46-45.7,22.29-91.6,44.17-137.49,66.05-.69.33-1.94-.5-5.14-1.44Z"/><path class="h" d="m3994.85,966.02c-1.87,3.13-2.98,7.7-5.74,9.17-46.52,24.88-93.26,49.37-141.62,70.9,48.24-27.39,96.48-54.78,144.72-82.18.88.7,1.76,1.4,2.64,2.1Z"/><path class="h" d="m144.7,3075.65c-47.47,26.93-93.68,53.14-139.89,79.36-.91-.84-1.82-1.67-2.73-2.51,2.4-3.23,4.1-7.77,7.31-9.49,43.33-23.14,86.87-45.89,130.41-68.65.66-.35,1.93.47,4.9,1.29Z"/><path class="h" d="m3831.5,1999.99c53.88-2.76,107.75-5.53,161.63-8.29.08,2.18.16,4.36.24,6.55h-161.57c-.1.58-.2,1.16-.31,1.74Z"/><path class="h" d="m3.55,2120.63h132.99c-30.85,1.55-81.84,4.11-132.82,6.67-.06-2.22-.11-4.44-.17-6.67Z"/><path class="h" d="m3898.98,248.37c30.91-32.35,61.82-64.69,92.73-97.04,1.37,1.38,2.74,2.75,4.11,4.13-31.14,32.2-65.77,60.89-96.84,92.91Z"/><path class="h" d="m3994.41,3314.32c-34.55-22.37-66.56-43.11-100.48-65.08,19.71,4.07,95.54,52.12,100.48,65.08Z"/><path class="h" d="m4.82,806.06c28.81,18.68,57.63,37.35,86.44,56.03-.74,1.17-1.48,2.34-2.21,3.52-29.34-17.8-58.69-35.6-88.03-53.39,1.27-2.05,2.53-4.1,3.8-6.15Z"/><path class="h" d="m63.59,3904.54c-20.12,21.3-39.65,41.99-59.19,62.67-1.27-1.26-2.55-2.52-3.82-3.77,19.93-20.24,41.49-38.89,63.01-58.9Z"/><path class="h" d="m80.57,2484.64c-25.18,5.97-50.35,11.95-75.53,17.92-.37-1.58-.74-3.15-1.1-4.72,25.03-5.35,50.07-10.71,75.1-16.06.51.96,1.02,1.91,1.53,2.87Z"/><path class="h" d="m3928.82,1631.33c20.99-4.93,41.97-9.85,62.96-14.78.35,1.52.7,3.03,1.05,4.55-20.94,4.5-41.87,9-62.81,13.49-.4-1.09-.8-2.18-1.2-3.26Z"/></g><g id="c"><path class="h" d="m2083.28,2514.47c10.11-20.77-19.61-61.82-39.9-75.92-20.29-14.1-77.7-33.26-98.78-29.66-21.08,3.6-57.42,15.07-67.97,21.16-10.55,6.09-14.92,43.92-14.92,43.92,3.38,20.8,44.93,54.42,69.12,67.49,24.19,13.07,72.53,40.32,90.53,33.86,18-6.46,51.81-40.09,61.92-60.86Zm-65.3,57.41c-14.42,1.73-59.5-23.29-81.97-35.44s-62.67-40.44-68.51-54.76c0,0,57.59-25.47,75.04-24.86,17.45.61,61.21,12.26,80.5,24.53s39.85,45.17,34.2,57.55c-5.65,12.38-24.84,31.24-39.26,32.97Z"/><path class="h" d="m2367.77,2033.61h0c.41-17.4-6.25-34.22-18.47-46.62l-75.6-76.72c-11.71-11.88-27.58-18.74-44.25-19.14l-99.09-2.34c-12.79-.3-25.37,3.22-36.14,10.11l-32,20.48c-8.48,5.42-15.56,12.77-20.68,21.43l-.49.82c-11.55,19.53-11.92,43.7-1.02,63.6,14.76,26.94,35.98,62.38,51.03,73.61,29.04,21.68,115.63,41.17,163.58,50.68,20.4,4.05,41.5-2.04,56.62-16.33l36.42-34.42c12.46-11.77,19.7-28.04,20.1-45.18Zm-17.71,11.17l-26.22,19.88c-10.88,8.25-27.46,10.3-44.48,5.5-40-11.29-112.46-33.27-138.28-50.99-13.37-9.18-34.2-35.53-48.91-55.41-10.87-14.69-12.98-31.17-5.53-43.36l.31-.51c3.3-5.41,8.34-9.72,14.7-12.58l24.02-10.8c8.08-3.63,17.98-4.78,28.42-3.3l84.37,4.57c13.62,1.94,25.11,8.82,35.84,18.11l67.91,66.31c11.19,9.69,18.3,21.86,19.7,33.71h0c1.38,11.67-2.89,22.06-11.86,28.87Z"/><path class="h" d="m2459.26,2374.28h0c15.06-8.73,25.93-23.19,30.13-40.09l25.99-104.53c4.02-16.19,1.6-33.31-6.77-47.73l-49.72-85.74c-6.42-11.06-15.99-19.96-27.49-25.55l-34.17-16.61c-9.05-4.4-19.01-6.61-29.07-6.46h-.96c-22.69.36-43.5,12.66-54.78,32.34-15.27,26.65-34.43,63.25-36.16,81.94-3.34,36.09,25.23,120.12,42.14,165.98,7.2,19.52,23.4,34.33,43.48,39.77l48.37,13.1c16.55,4.48,34.2,2.17,49.03-6.43Zm-18.77-9.27l-30.64-11.99c-12.72-4.98-23.12-18.04-27.9-35.07-11.24-40.01-30.32-113.29-28.68-144.56.85-16.2,12.45-47.72,21.74-70.64,6.86-16.94,19.81-27.34,34.1-27.35h.6c6.34,0,12.64,2.04,18.4,5.98l21.74,14.85c7.32,5,13.46,12.84,17.65,22.52l40.14,74.35c5.46,12.63,5.58,26.03,3.25,40.02l-21.12,92.54c-2.43,14.6-9.1,27.02-18.47,34.4h0c-9.23,7.27-20.33,9.05-30.81,4.95Z"/><path class="h" d="m1994.57,2292.97c-4.81-22.95-84.89-87.98-118.17-97.35-33.28-9.38-102.15-13.57-118.55,17.97-21.06,40.52-2.76,138.32-2.76,138.32,55.83,88.78,93.44,86.12,116.33,93.01,22.89,6.89,77.96-19.7,91.66-43.6,13.7-23.9,36.3-85.4,31.49-108.35Zm-64.85,95.49c-13.7,23.9-68.77,50.49-91.66,43.6-22.89-6.89-70.46-60.78-80.45-85.74,0,0-11.43-86.01.42-119.52,11.85-33.51,32.77-22.99,66.05-13.61,33.28,9.38,117.81,83.24,122.62,106.19,4.81,22.95-3.29,45.18-16.99,69.08Z"/><path class="h" d="m1759.93,2466.3c18.17-20.71,25.47-81.43,11.53-100.84-13.94-19.42-23.62-55.86-125.71-79.89,0,0-98.45,14.39-129.95,47.46-24.52,25.73,1.77,89.53,21.44,117.97,19.66,28.44,107.14,83.11,130.41,80.22,23.27-2.89,74.12-44.21,92.29-64.92Zm-82.83,11.09c-23.27,2.89-120.55-53.12-140.21-81.57-19.66-28.44-36.4-44.82-8.55-66.9,27.86-22.08,112.93-39.15,112.93-39.15,26.85,1.35,93.26,28.89,107.2,48.3,13.94,19.42,6.64,80.13-11.53,100.84-18.17,20.71-36.57,35.58-59.84,38.47Z"/><path class="h" d="m2044.68,2720.62c16.45,16.71,118.97,28.15,152.04,18.05,33.07-10.1,93.28-43.79,90.03-79.19-4.18-45.48-72.43-117.87-72.43-117.87-94.95-44.53-125.16-21.96-148.14-15.39-22.98,6.57-54.95,58.7-53.56,86.22,1.39,27.52,15.61,91.47,32.06,108.18Zm2.96-115.39c-1.39-27.52,30.58-79.65,53.56-86.22,22.98-6.57,92.13,13.06,114.03,28.67,0,0,56.1,66.19,64.24,100.79,8.14,34.6-15.15,37.05-48.22,47.15-33.07,10.1-144.11-6.37-160.56-23.08-16.45-16.71-21.65-39.79-23.04-67.31Z"/><path class="h" d="m2298.5,2503.88s-26.33-32.49-39.27-34.3c-12.94-1.81-43.66,5.75-46.76,10.26-3.1,4.51-12.19,30.51-12.61,37.44-.42,6.93,13.8,29.91,19.34,34.21,5.55,4.3,27.69,8.13,33.23,8.52,5.54.39,19.2-7.52,26.15-16.46,6.95-8.94,19.89-28.96,19.93-39.67Zm-30.5,35.53c-5.35,7.16-15.49,13.8-19.45,13.72-3.97-.08-19.74-2.16-23.56-5.25s-13.13-20.25-12.56-25.61c.57-5.36,8.14-25.77,10.55-29.36s23.44-2.81,32.68-1.93c9.24.88,28.24,17.06,28.24,17.06-.45,8.26-10.55,24.21-15.9,31.37Z"/><path class="h" d="m2062.25,2453.36s-19.36,37.07-15.88,49.66c3.48,12.6,22.62,37.78,27.99,38.84,5.37,1.06,32.84-.93,39.37-3.3,6.53-2.37,21.97-24.54,23.71-31.34,1.74-6.8-3.54-28.64-5.38-33.88-1.84-5.24-14.53-14.63-25.49-17.46-10.96-2.83-34.47-6.75-44.32-2.53Zm44.72,13.88c8.7,2.06,18.82,8.73,20.32,12.4,1.5,3.67,5.86,18.97,4.53,23.71s-13.37,20.09-18.51,21.69-26.88,2.76-31.14,1.98c-4.26-.78-11.89-20.4-14.75-29.22-2.86-8.83,4.44-32.69,4.44-32.69,7.76-2.87,26.41.07,35.1,2.13Z"/><path class="h" d="m1873.15,2193.75s5.7-34.71,0-44.13c-5.7-9.42-26.34-25.37-30.67-24.96-4.33.41-24.7,8.51-29.08,11.98-4.38,3.47-30.91,51.97-30.58,57.91.33,5.94,29.82-4.39,32.49-.56,2.67,3.82,14.58,8.46,23.58,8.17,9.01-.29,27.8-2.65,34.25-8.41Zm-37.31-.72c-7.1.38-16.4-2.65-18.43-5.28-2.03-2.63-9.05-14.04-9.2-18.2-.14-4.16,5.27-19.49,8.79-22.01,3.52-2.52,19.73-8.59,23.15-8.96,3.42-.37,13.97,13.77,18.29,20.28,4.31,6.5,4.57,27.62,4.57,27.62-5.2,4.16-20.06,6.18-27.16,6.56Z"/><path class="h" d="m1850.41,2079.55c.59-28.98-12.35-46.86-41.56-60.97-29.21-14.11-119.38-24.89-119.38-24.89-19.16,1.37-123.35,72.3-134.47,96.99-11.11,24.69-13.57,150.06,11.18,166.22,24.75,16.17,73.59,20.8,101.67,15.32,28.08-5.48,53.97,2.38,84.12-33.79,30.15-36.17,97.84-129.91,98.43-158.89Zm-90.39,130.01c-26.12,30.41-45.49,31.6-70.71,28.7-17.13-1.97-85.94-12.1-91.72-15.94-22.47-14.91-23.8-122.76-14.48-143.78,9.32-21.02,101.01-79.47,118.18-80.14,0,0,80.78,17.29,107.39,30.25,26.61,12.96,32.03,22.16,32.28,47.16.24,25-54.82,103.32-80.94,133.74Z"/><path class="h" d="m2481.83,2395.26c-5.02-21.69-17.46-30.17-40.61-29.88-23.15.29-88.47,25.48-88.47,25.48-13.19,8.06-73.03,98.95-76.2,121.33-3.17,22.38,18.62,116.16,39.02,119.04,20.41,2.87,55.56-11.67,74.24-26.05,18.68-14.39,38.33-18.09,52.71-55.98,14.38-37.89,44.32-132.24,39.3-153.93Zm-35.97,129.44c-12.63,32.14-28.52,38.61-47.35,47.41-23.94,11.19-51.45,23.37-67.38,21.93-18.74-1.69-28.32-81.43-25.71-100.43,2.6-19,52.46-82.88,64.38-89.7,0,0,51.38-35.14,72.5-35.33,21.11-.19,32.56,7.05,37.42,25.48,4.86,18.43-21.23,98.49-33.85,130.63Z"/><path class="h" d="m1821.53,2118.8c41.75,34.28,87.01,54.84,113.57,62.5,22.97,6.62,93.93-54.9,115.44-72.12,21.64-17.33,59.88-36.59,55.06-59.54-4.81-22.95-67.94-123.47-101.22-132.84-33.28-9.38-117.58,15.15-171.89,85.7-27.86,36.19-10.96,116.31-10.96,116.31Z"/><path class="g" d="m2059.44,2009.06c-4.81-22.95-23.48-77.67-56.76-87.05-33.28-9.38-155.96,54.95-167.81,88.46-11.85,33.51-3.38,57.89-3.38,57.89,9.99,24.96,90.2,22.42,113.09,29.31,22.89,6.89,54.89-12.75,76.6-32.27,20.49-18.42,43.08-33.39,38.26-56.34Z"/><path class="h" d="m2105.6,2049.64c-4.81-22.95-67.94-123.47-101.22-132.84-33.28-9.38-117.58,15.15-171.89,85.7-27.86,36.19-10.96,116.31-10.96,116.31,41.75,34.28,87.01,54.84,113.57,62.5,22.97,6.62,93.93-54.9,115.44-72.12,21.64-17.33,59.88-36.59,55.06-59.54Zm-84.42,15.76c-21.71,19.52-53.72,39.16-76.6,32.27-22.89-6.89-103.1-4.34-113.09-29.31,0,0-8.47-24.38,3.38-57.89,11.85-33.51,134.53-97.84,167.81-88.46,33.28,9.38,51.95,64.1,56.76,87.05,4.81,22.95-17.78,37.92-38.26,56.34Z"/><path class="h" d="m2140.89,1880.94c-4.4-20.74-26.67-29.3-56.82-37.82-30.15-8.52-70.25,10.21-147.96,30.65-51.57,13.56-61.15,66.15-61.15,66.15,37.85,31.03,86.56,37.76,110.62,44.72,20.8,6.02,57.22-27.19,76.66-42.7,19.57-15.61,83.05-40.25,78.65-60.98Zm-30.6-14.76c-11.17,5.26-51.36,22.34-74.94,30.24-14.42,4.83-23.29,12.11-41.33,12.7-21.65.71-81.8,14.52-98.09-1.82,0,0,9.93-16.82,38.75-26.13,30.52-9.86,117.71-41.86,147.85-33.34,30.15,8.52,35.62,14.65,27.76,18.35Z"/><path class="h" d="m1893.55,1936.83c-7.19-10.44-22.02-34.46-62.87-23.08-18.82,5.24-59.11,28.01-73.56,72.2-7.41,22.67.2,34.56.2,34.56,29.01,9.56,57.1,11.75,72.7,10.87,13.48-.76,38.56-43.42,46.45-55.65,7.94-12.3,24.26-28.46,17.07-38.91Zm-41.45,22.52c-7.53,13.4-20.38,21.34-33.98,29.27-26.14,15.23-57.61,19.4-58.12.85-.51-18.55,51.34-71.64,70.84-72.85,19.5-1.21,22.91-2.11,30.09,8.33,7.19,10.44-1.73,21.76-8.84,34.4Z"/><path class="h" d="m2211.47,2521.47c3.49-7.44,12.02-23.68-6.28-40.47-8.43-7.73-32.7-20.13-60.82-11.59-14.43,4.38-18.57,12.56-18.57,12.56,3.49,18.28,10.67,33.44,15.78,41.09,4.42,6.62,34.89,4.07,43.83,3.69,9-.38,22.57,2.15,26.06-5.3Zm-24.48-13.08c-9.46.98-17.57-2.73-25.89-6.83-15.99-7.88-27.61-22.46-17.76-29.41,9.85-6.95,53.91.43,60.36,9.97,6.46,9.53,7.96,10.95,4.47,18.39-3.49,7.44-12.24,6.96-21.17,7.88Z"/><path class="h" d="m2046.39,2598.87c-5.93-11.21-17.86-36.79-59.76-30.23-19.3,3.02-61.96,20.95-81.45,63.17-10,21.65-3.81,34.35-3.81,34.35,27.7,12.86,55.35,18.31,70.94,19.24,13.48.81,43.35-38.65,52.61-49.88,9.32-11.3,27.4-25.45,21.48-36.66Zm-43.79,17.55c-9.04,12.43-22.72,18.83-37.15,25.12-27.73,12.09-59.47,12.58-57.82-5.91,1.65-18.49,59.32-65.19,78.82-64.12,19.5,1.06,23,.56,28.92,11.77,5.93,11.21-4.24,21.41-12.77,33.14Z"/><path class="h" d="m1496.02,2339.56c12.6,1.4,40.47,5.9,58.59-32.44,8.35-17.66,17.5-63.03-6.46-102.87-12.29-20.44-26.27-22.46-26.27-22.46-26.21,15.68-46.25,35.49-55.79,47.86-8.25,10.69,7.6,57.58,11.68,71.54,4.11,14.06,5.65,36.97,18.25,38.37Zm10.1-46.08c-5.2-14.46-2.8-29.37.11-44.84,5.59-29.73,23.02-56.26,37.39-44.51,14.36,11.75,20.57,85.7,8.73,101.24-11.84,15.53-13.39,18.7-25.99,17.3-12.6-1.4-15.32-15.54-20.23-29.19Z"/><path class="h" d="m2199.55,2228.24c4.1,1.75,6.78,2.58,8.03,2.48,4.45.85,7.13,1.8,8.03,2.85,2.05,3.85,3,6.18,2.85,6.98-.1.85-.34.61-.71-.71s-1.04-2.21-1.99-2.66c-.2.2-.04.93.49,2.18.53,1.25,1.31,2.74,2.36,4.46,1.05,1.73,2.29,3.51,3.71,5.36,1.43,1.85,2.94,3.45,4.54,4.8.55-.4.92-.7,1.12-.9.2-.2.53-.53.98-.98.45-.4.76-.74.94-1.01.17-.27.39-.64.64-1.09,0,.25-.03.48-.07.68.85-.3,1.85-1.6,3-3.9,1.15-2.3,2.25-4.78,3.3-7.43,1.05-2.65,2.33-6.15,3.83-10.5.8-2.05.65-4-.45-5.85-1.05-1.05-1.03-2.6.08-4.65l-2.1-1.28,3.45.3-.6-2.1c2.4-2.55,6.63-4.05,12.68-4.5,1,0,2.78-1.45,5.33-4.35l-1.65,3.6,2.93-1.73-1.43,2.93c.35-.6,1.28-.7,2.78-.3-.6,0-1.2.65-1.8,1.95-.15,1.65-1.08,3.93-2.78,6.83l2.18-.3-3.15,1.8c-1.05,4.05-2.66,8.08-4.84,12.08-2.18,4-4.42,7.65-6.71,10.95-2.3,3.3-4.39,6.05-6.26,8.25s-2.99,3.5-3.34,3.9l4.58,2.78c-1.5.55-1.09,2,1.24,4.35,2.33,2.35,5.18,4.84,8.55,7.46s8.14,6.04,14.29,10.24c2.3,1.85,5.08,2.63,8.33,2.33,2.1-.6,4.23.15,6.38,2.25l3.08-1.58-2.48,3.53,3.23.38c1.05,1.9,1.58,3.79,1.58,5.66s-.21,3.56-.64,5.06c-.43,1.5-1.16,3.18-2.21,5.03-.55,1.05.42,3.65,2.93,7.8l-4.05-3.45.68,3.98-3.23-3c.6.7.2,1.75-1.2,3.15.3-.6-.28-1.58-1.73-2.93-2.15-.9-4.73-2.98-7.73-6.23l-.9,2.48-.67-4.28c-4.3-2.6-8.34-5.71-12.12-9.34-3.78-3.63-7.19-7.25-10.24-10.88-3.05-3.63-5.68-7.05-7.88-10.28-2.2-3.23-3.83-5.71-4.88-7.46l.53,2.33c-2-2.25-3.4-3.2-4.2-2.85l-.23-.22c-1.75,2.85-3.98,5.92-6.68,9.19-2.7,3.28-5.88,5.96-9.53,8.06l-.07,2.85-.83-1.73c-1.7,2.05-3.23,3.3-4.58,3.75-.85.8-1.12,1.42-.83,1.88-1.05-1-1.43-1.73-1.12-2.18l-1.88,1.88.08-2.63-2.4,2.1c1.25-2.65,1.65-4.35,1.2-5.1-2.7-4.55-3.53-8.08-2.48-10.58l2.1-.08-1.95-2.48,2.18,1.2c1.2-1.25,2.55-1.65,4.05-1.2,2.2.45,3.98.08,5.33-1.12,5.6-3.85,9.43-6.68,11.48-8.48l1.35-1.58c-1.65-2.2-3.58-4.71-5.78-7.54-2.2-2.83-4.35-5.53-6.45-8.1-2.1-2.58-4-4.81-5.7-6.71-1.7-1.9-2.93-3.05-3.68-3.45,1.1.1,1.8.28,2.1.52-1.05-.85-1.88-1.32-2.48-1.42l1.12-.45-.9-1.05Z"/><path class="h" d="m2087.74,2228.24c4.1,1.75,6.78,2.58,8.03,2.48,4.45.85,7.13,1.8,8.03,2.85,2.05,3.85,3,6.18,2.85,6.98-.1.85-.34.61-.71-.71s-1.04-2.21-1.99-2.66c-.2.2-.04.93.49,2.18.53,1.25,1.31,2.74,2.36,4.46,1.05,1.73,2.29,3.51,3.71,5.36,1.43,1.85,2.94,3.45,4.54,4.8.55-.4.92-.7,1.12-.9.2-.2.53-.53.98-.98.45-.4.76-.74.94-1.01.17-.27.39-.64.64-1.09,0,.25-.03.48-.07.68.85-.3,1.85-1.6,3-3.9,1.15-2.3,2.25-4.78,3.3-7.43,1.05-2.65,2.33-6.15,3.83-10.5.8-2.05.65-4-.45-5.85-1.05-1.05-1.03-2.6.08-4.65l-2.1-1.28,3.45.3-.6-2.1c2.4-2.55,6.63-4.05,12.68-4.5,1,0,2.78-1.45,5.33-4.35l-1.65,3.6,2.93-1.73-1.43,2.93c.35-.6,1.28-.7,2.78-.3-.6,0-1.2.65-1.8,1.95-.15,1.65-1.08,3.93-2.78,6.83l2.18-.3-3.15,1.8c-1.05,4.05-2.66,8.08-4.84,12.08-2.18,4-4.42,7.65-6.71,10.95-2.3,3.3-4.39,6.05-6.26,8.25s-2.99,3.5-3.34,3.9l4.58,2.78c-1.5.55-1.09,2,1.24,4.35,2.33,2.35,5.18,4.84,8.55,7.46s8.14,6.04,14.29,10.24c2.3,1.85,5.08,2.63,8.33,2.33,2.1-.6,4.23.15,6.38,2.25l3.08-1.58-2.48,3.53,3.23.38c1.05,1.9,1.58,3.79,1.58,5.66s-.21,3.56-.64,5.06c-.43,1.5-1.16,3.18-2.21,5.03-.55,1.05.42,3.65,2.93,7.8l-4.05-3.45.68,3.98-3.23-3c.6.7.2,1.75-1.2,3.15.3-.6-.28-1.58-1.73-2.93-2.15-.9-4.73-2.98-7.73-6.23l-.9,2.48-.67-4.28c-4.3-2.6-8.34-5.71-12.12-9.34-3.78-3.63-7.19-7.25-10.24-10.88-3.05-3.63-5.68-7.05-7.88-10.28-2.2-3.23-3.83-5.71-4.88-7.46l.53,2.33c-2-2.25-3.4-3.2-4.2-2.85l-.23-.22c-1.75,2.85-3.98,5.92-6.68,9.19-2.7,3.28-5.88,5.96-9.53,8.06l-.07,2.85-.83-1.73c-1.7,2.05-3.23,3.3-4.58,3.75-.85.8-1.12,1.42-.83,1.88-1.05-1-1.43-1.73-1.12-2.18l-1.88,1.88.08-2.63-2.4,2.1c1.25-2.65,1.65-4.35,1.2-5.1-2.7-4.55-3.53-8.08-2.48-10.58l2.1-.08-1.95-2.48,2.18,1.2c1.2-1.25,2.55-1.65,4.05-1.2,2.2.45,3.98.08,5.33-1.12,5.6-3.85,9.43-6.68,11.48-8.48l1.35-1.58c-1.65-2.2-3.58-4.71-5.78-7.54-2.2-2.83-4.35-5.53-6.45-8.1-2.1-2.58-4-4.81-5.7-6.71-1.7-1.9-2.93-3.05-3.68-3.45,1.1.1,1.8.28,2.1.52-1.05-.85-1.88-1.32-2.48-1.42l1.12-.45-.9-1.05Z"/><path class="f" d="m1977.39,2152.93c36.55-44.85,208.62-65.45,249.04-104.59,106.33-102.95,310.41,165.56,310.41,165.56l-341.17-428.59s-189.91,74.95-328.17,95.52c-169.2,25.16-245.59,227.44-344.39,278.04-90.83,46.52-57.6,243.11-57.6,243.11l226.02,158.06s38.47,3.68,47.15,0"/><path class="d" d="m2494.72,2157.99s-48.32,164.98-196.98,254.14c-98.94,59.34-566.27,155.8-623.31,141-35.82-9.3,158.12-99.2,273.87-331.85,27.38-55.03,90.5-323.55,72.45-365.67-18.05-42.12,391.13,309.31,358.56,142.79-11.53-58.93-279.23,100.12-366.9,287.17-82.09,175.14,73.14,464.53-111.05,380.59-54.45-24.81-375.38-315.15-382.4-266.01-7.02,49.14,156.27-183.52,159.28-145.41,3.01,38.11-11.88,71.75-36.1,81.23-46.13,18.05-75.35-21.33-86.24-55.16-19.05-59.17-11.5-115.01-11.5-115.01"/><path class="d" d="m2480.31,2365.37s-75.71,236.12-249.91,276.74c-175.32,40.89-482.68-41.93-526.02-74.52-29.58-22.24-95.37-23.29-134.68-70.54-139.76-167.99,48.28-234.92-20.33-340.31-25-38.4,249.29-457.96,312.15-615.55,62.86-157.6,139.38-287.14,179.07-291.48,39.69-4.34,105.56,4.6,126.54,60.63,20.98,56.04-48.24,124.45-70.9,168.61-22.66,44.16-110.54,258.9-120.13,295.9-9.59,37.01-34.63,63.95-60.62,65.01-49.5,2.02-64.27-44.74-63.54-80.27,1.29-62.15,53.65-182.17,53.65-182.17"/><path class="e" d="m1799.37,1366.18l177.77,61.33s-30.92,93.31-120.94,62.25c-90.02-31.06-56.83-123.58-56.83-123.58Z"/><circle class="h" cx="1874.5" cy="1436.7" r="42.55"/><path class="e" d="m2019.3,1442.06l177.77,61.33s-30.92,93.31-120.94,62.25c-90.02-31.06-56.83-123.58-56.83-123.58Z"/><circle class="h" cx="2094.43" cy="1512.58" r="42.55"/></g></svg>