<?xml version="1.0" encoding="UTF-8"?><svg xmlns="http://www.w3.org/2000/svg" viewBox="0 0 2000 2000"><defs><style>.d{fill:none;stroke-width:36.7px;}.d,.e{stroke-linecap:round;}.d,.e,.f{stroke:#000;stroke-linejoin:round;}.e{stroke-width:10.66px;}.e,.f,.g{fill:#fff;}.h,.g{stroke-width:0px;}.f{stroke-width:13.54px;}</style></defs><g id="a"><path class="h" d="m-525.26-995.61c19.92,28.66,39.3,57.71,59.83,85.93C-139.42-461.62,186.75-13.66,512.85,434.34c2.7,3.71,5.02,7.7,7.51,11.56-1.06.92-2.12,1.83-3.18,2.75-1.99-2.91-3.76-6.01-6.01-8.71C115.59-34.54-280.02-508.99-675.57-983.51c-3.01-3.61-5.03-8.05-7.51-12.1,52.6,0,105.21,0,157.81,0Z"/><path class="h" d="m2433.7,2995.61c-17.01-24.65-33.5-49.7-51.12-73.9-297.8-408.95-595.75-817.8-893.65-1226.68-3.06-4.2-5.84-8.59-8.76-12.89,1.38-1.28,2.77-2.56,4.15-3.84,1.28,2.74,2.05,5.91,3.92,8.15,362.65,435.57,725.38,871.07,1088.1,1306.57.7.84,1.34,1.73,2.01,2.59h-144.66Z"/><path class="h" d="m2016.16-995.61c-26.53,52.75-52.94,105.57-79.61,158.25-168.32,332.45-336.75,664.86-505.04,997.32-37.07,73.22-73.74,146.64-110.64,219.95-2.92,5.81-6.11,11.5-11.95,16.23,1.71-4.55,3.24-9.16,5.14-13.63,192.7-454.27,385.43-908.53,578.11-1362.8,2.12-5,3.76-10.21,5.62-15.32,39.45,0,78.91,0,118.36,0Z"/><path class="h" d="m-12.37-995.61c16.87,36.7,33.22,73.65,50.7,110.06C233.43-479.13,428.71-72.79,623.94,333.58c2.51,5.22,4.89,10.5,4.94,16.85-25.14-45.27-50.19-90.58-75.43-135.79C334.97-176.74,116.46-568.09-101.99-959.48c-6.62-11.86-12.6-24.08-18.88-36.13,36.17,0,72.33,0,108.5,0Z"/><path class="h" d="m2473.16-995.61c-316.25,432.28-632.5,864.57-949.95,1298.51,2.05-4.48,3.05-7.59,4.76-10.24,277.11-428.57,554.28-857.1,831.45-1285.62.59-.92,1.31-1.76,1.96-2.64,37.26,0,74.52,0,111.78,0Z"/><path class="h" d="m50.09,2995.61c19.13-38.65,37.98-77.45,57.44-115.93,169.33-335.01,338.77-669.96,508.16-1004.94,27.56-54.5,55.01-109.04,84.79-162.52-20.34,47.58-40.78,95.11-61,142.74-161.42,380.21-322.79,760.43-484.17,1140.65H50.09Z"/><path class="h" d="m2657.27-995.61c-113.28,137.24-226.91,274.2-339.77,411.79-209.41,255.3-418.36,510.98-627.52,766.49-3.41,4.16-6.96,8.2-13.39,10.36,2.75-4.1,5.35-8.31,8.29-12.27,230.64-311.55,461.38-623.03,691.93-934.66,56.66-76.58,112.71-153.62,168.95-230.5,2.51-3.43,4.22-7.45,6.3-11.2,35.07,0,70.14,0,105.21,0Z"/><path class="h" d="m444.62-995.61c5.78,25.49,10.88,51.16,17.44,76.44,105.4,406.22,211,812.4,316.52,1218.59,1.61,6.21,2.89,12.51,2.1,19.4-7.78-23.62-15.59-47.23-23.33-70.87-133.72-408.72-267.44-817.44-401.07-1226.19-1.83-5.6-2.51-11.57-3.73-17.37,30.69,0,61.37,0,92.06,0Z"/><path class="h" d="m2995.91-995.61c1.94,20.8-2.48,37.03-19.26,53.35-128.34,124.87-255.71,250.75-382.56,377.14-233.94,233.08-467.32,466.72-700.94,700.12-3.09,3.08-6.32,6.02-11.73,7.32,3.6-4.09,7.14-8.24,10.81-12.26,332.59-363.72,665.19-727.42,997.73-1091.17,4.36-4.77,7.98-10.23,11.95-15.37,5.03-6.38,10.06-12.75,15.09-19.13,26.3,0,52.6,0,78.91,0Z"/><path class="h" d="m1953.69,2995.61c-159.24-332-318.43-664.02-477.73-995.99-33.85-70.54-68.07-140.89-102.1-211.34-2.3-4.77-4.44-9.62-4.68-15.48,19.77,35.61,39.48,71.25,59.32,106.82,204.99,367.55,410.01,735.09,614.95,1102.67,2.33,4.18,3.75,8.86,5.59,13.31h-95.34Z"/><path class="h" d="m1279.71-995.61c-6.57,41.01-13.55,81.96-19.64,123.04-24.91,167.86-49.74,335.73-74.26,503.65-24.76,169.55-49.12,339.16-73.65,508.75-9.09,62.82-18.14,125.64-29.44,188.29,2.43-30.8,4.74-61.6,7.31-92.38,10.49-125.52,21.26-251.03,31.55-376.57,15.27-186.12,30.31-372.26,45.26-558.41,7.28-90.63,14.1-181.29,21.21-271.93.64-8.17,1.9-16.3,2.87-24.44,29.59,0,59.18,0,88.77,0Z"/><path class="h" d="m-377.31,2995.61c46.38-63.71,92.75-127.42,139.13-191.13C-4.82,2483.99,228.53,2163.49,461.91,1843.01c3.33-4.57,6.92-8.95,11.86-12.34-250.82,388.31-501.64,776.63-752.46,1164.94h-98.63Z"/><path class="h" d="m947.65-995.61c2.55,196.6,4.88,393.2,7.72,589.8,3.08,213.02,6.65,426.02,9.93,639.04.3,19.68.04,39.38-.59,59.17-6.65-89.18-13.27-178.37-19.97-267.55-12.91-172.01-25.78-344.01-38.81-516.01-11.29-149.07-22.82-298.13-34.12-447.2-1.44-19.05-2.07-38.16-3.08-57.25,26.3,0,52.6,0,78.91,0Z"/><path class="h" d="m-992.44-973.27c-.99-7.45-1.98-14.9-2.97-22.34,27.4,0,54.8,0,82.19,0,12.99,15.34,25.52,31.1,39.05,45.95C-560.89-606.03-247.51-262.49,65.84,81.08c3.15,3.46,6.13,7.07,6.77,12.92-9.22-9.69-18.26-19.56-27.68-29.05C-122.51-103.77-289.74-272.71-457.57-441.05c-156.23-156.71-313.09-312.78-469.76-469.05-4.14-4.13-9.32-7.22-14.02-10.8-17.03-17.46-34.06-34.91-51.09-52.37Z"/><path class="h" d="m1523,2995.61c-6.1-26.54-11.54-53.24-18.38-79.58-95.45-367.57-191.1-735.1-286.66-1102.64-.26-1-.03-2.13,1.89-3.93,2.42,6.93,4.96,13.83,7.23,20.8,125.36,383.87,250.69,767.75,376.06,1151.61,1.52,4.66,3.55,9.16,5.34,13.74h-85.48Z"/><path class="h" d="m-551.56,2995.61c294.37-358.11,588.75-716.22,883.12-1074.32.52.3,1.04.6,1.56.9-3.2,4.65-6.26,9.41-9.61,13.94-255.61,345.59-511.25,691.16-766.86,1036.74-5.53,7.47-10.77,15.15-16.15,22.74h-92.06Z"/><path class="h" d="m740.52,2995.61c10.97-72.51,22.18-144.98,32.87-217.53,27.11-184.13,54.16-368.27,80.9-552.45,19.42-133.79,38.29-267.67,57.48-401.49,1.08-7.53,2.78-14.98,5.9-22.3-2.28,28.48-4.51,56.96-6.85,85.43-16.43,199.74-33.01,399.48-49.3,599.23-13.35,163.74-26.35,327.5-39.57,491.25-.48,5.98-1.66,11.9-2.52,17.86h-78.91Z"/><path class="h" d="m-896.78,2995.61c9.95-10.69,19.55-21.73,29.89-32.03,321.65-320.6,643.37-641.13,965.09-961.66,4.03-4.02,8.31-7.8,14.65-9.65-4.53,5.04-9.01,10.12-13.58,15.11-297.76,325.26-595.53,650.52-893.28,975.8-3.69,4.03-7.14,8.28-10.71,12.43h-92.06Z"/><path class="h" d="m1049.57,2995.61c-.06-52.51.41-105.03-.26-157.53-2.38-185.08-4.96-370.16-7.84-555.24-2.19-140.72-4.96-281.43-7.44-422.14-.14-8.19-.02-16.39,1.78-24.69,6.77,91.15,13.48,182.31,20.32,273.45,12.73,169.81,25.49,339.62,38.33,509.43,9.08,120.13,18.33,240.24,27.43,360.37.41,5.42.03,10.9.02,16.35h-72.33Z"/><path class="h" d="m1108.75-995.61c-6.94,108.2-13.85,216.4-20.84,324.6-7.34,113.66-14.84,227.32-22.09,340.99-9.55,149.75-18.94,299.51-28.38,449.27-1.77,28.16-3.44,56.32-4.88,79.84,0-66.04-.41-136.65.08-207.25,1.46-211.4,3.34-422.8,4.91-634.21.87-117.75,1.45-235.5,2.15-353.24,23.01,0,46.03,0,69.04,0Z"/><path class="h" d="m161.88-995.61c28.36,71.72,56.76,143.43,85.07,215.16C360.46-492.87,473.96-205.28,587.43,82.31c1.89,4.8,3.49,9.71,2.47,15.62-20.37-45.35-40.62-90.75-61.13-136.04C386.77-351.72,244.7-665.31,102.7-978.92c-2.46-5.44-4.4-11.12-6.57-16.69,21.92,0,43.84,0,65.75,0Z"/><path class="h" d="m901.62,2995.61c2.58-48.59,4.78-97.19,7.82-145.75,7.12-113.64,14.74-227.26,21.99-340.89,10.6-166.09,21.07-332.19,31.57-498.29,1.79-28.4,3.43-56.8,6.93-85.17-3.04,356.7-6.09,713.4-9.13,1070.1h-59.18Z"/><path class="h" d="m1434.23-995.61c-16.36,71.44-33.1,142.79-49.01,214.32-55.59,249.94-110.89,499.94-166.28,749.92-5.19,23.42-10.29,46.86-18.11,69.81,5.89-34.03,11.8-68.06,17.67-102.1,40.15-232.96,80.36-465.92,120.41-698.9,13.35-77.65,26.3-155.37,39.43-233.06,18.63,0,37.26,0,55.89,0Z"/><path class="h" d="m348.28,1556.96c-447.18,360.17-894.35,720.34-1343.69,1082.25,0-31.97,2.36-62.55-.65-92.58-3.15-31.52,8.86-49.1,34.59-67.22,432.54-304.53,864.21-610.29,1296.08-915.76,3.96-2.8,8.02-5.47,12.03-8.21.55.51,1.1,1.01,1.64,1.52Z"/><path class="h" d="m2995.87-511.43c0,43.98.51,86-.6,127.96-.15,5.63-7.55,12.37-13.18,16.35-126.6,89.29-253.71,177.86-380.14,267.38-311.41,220.5-622.52,441.42-933.76,662.16-4.84,3.44-9.78,6.74-15.96,8.42,447.09-360.12,894.17-720.23,1343.64-1082.27Z"/><path class="h" d="m2995.9,249.95c0,31.45-.53,60.47.27,89.46.31,11.13-6.94,11.97-14.04,14.4-104.49,35.86-209.07,71.47-313.45,107.65-319.35,110.72-638.63,221.66-957.94,332.5-5.45,1.89-10.97,3.58-17.05,3.54,433.38-182.23,866.76-364.45,1302.21-547.55Z"/><path class="h" d="m-995.41,1877.72c0-31.04.56-60.07-.29-89.06-.32-10.99,6.6-12.25,13.78-14.72,93.65-32.14,187.37-64.06,280.92-96.48,326.67-113.19,653.28-226.56,979.92-339.85,5.97-2.07,11.96-4.1,18.8-3.66-430.32,180.95-860.65,361.91-1293.14,543.77Z"/><path class="h" d="m1883.09,248.53c370.16-358.31,740.32-716.62,1112.72-1077.09,0,33.81.44,65.74-.49,97.63-.13,4.58-6.39,9.57-10.7,13.35-142.94,125.21-286.31,249.93-428.95,375.48-219.51,193.22-438.52,387-657.76,580.53-4.42,3.9-8.96,7.65-13.44,11.47-.46-.46-.92-.92-1.38-1.38Z"/><path class="h" d="m89.58,1905.87c-360.82,349.36-721.64,698.71-1084.99,1050.52,0-20.52,2.07-39.47-.46-57.78-4.36-31.5,8.3-51.37,31.93-72.05,345.08-301.93,689.19-604.96,1033.53-907.73,5.95-5.23,11.94-10.42,17.91-15.63.69.89,1.38,1.77,2.07,2.66Z"/><path class="h" d="m306.19,812.58c-60.15-19.82-120.27-39.74-180.45-59.46-367.6-120.43-735.18-240.94-1102.98-360.78-15.07-4.91-19.52-11.42-18.47-26.3,1.3-18.48.31-37.12.31-58.99C-559.31,474.11-125.28,640.39,308.76,806.67c-.86,1.97-1.72,3.94-2.57,5.91Z"/><path class="h" d="m153.53,1577.55c-382.16,245.25-764.31,490.5-1148.87,737.3,0-27.83-.62-53.8.6-79.69.21-4.41,7.73-9.53,12.92-12.48,158.81-90.45,317.91-180.39,476.63-270.99,214.32-122.35,428.37-245.19,642.54-367.8,5.02-2.87,10.16-5.54,15.25-8.3.31.66.62,1.31.92,1.97Z"/><path class="h" d="m2995.89-187.12c0,27.38.59,52.45-.52,77.45-.21,4.75-6.22,10.78-11.08,13.55-167.78,95.66-335.89,190.73-503.64,286.46-202.92,115.8-405.55,232.11-608.32,348.17-4.98,2.85-10.17,5.31-16.33,6,379.06-243.3,758.12-486.59,1139.89-731.63Z"/><path class="h" d="m2971.11,1772.8c-192.34-74.79-384.68-149.59-577.02-224.38.27-.82.53-1.64.8-2.47,26.98,8.76,53.96,17.49,80.93,26.28,167.98,54.74,335.89,109.67,504.04,163.89,12.88,4.15,16.93,9.56,16.37,22.77-1.12,26.58-.33,53.24-.33,82.28-424.13-170.54-846.84-340.52-1269.55-510.49.17-.46.34-.92.51-1.38,414.15,149.45,828.3,298.89,1242.45,448.34.6-1.61,1.2-3.23,1.8-4.84Z"/><path class="h" d="m2995.11,1173.92v68.61c-390.12-39.48-779.42-78.88-1168.71-118.28l.08-1.3c389.29,16.98,778.58,33.96,1168.63,50.97Z"/><path class="h" d="m174.18,1004.81c-389.37-16.98-778.74-33.96-1168.71-50.96v-68.61c390.22,39.5,779.47,78.89,1168.72,118.29,0,.43,0,.85,0,1.28Z"/><path class="h" d="m-994.82,1064.85v-63.66c377.86,16.28,755.07,32.53,1132.27,48.78-.01.39-.02.78-.03,1.17-376.83,4.56-753.67,9.12-1132.24,13.71Z"/><path class="h" d="m1864.95,1076.59c376.13-4.6,752.25-9.2,1129.67-13.82v63.66c-376.41-16.2-753.05-32.41-1129.69-48.62v-1.22Z"/><path class="h" d="m2995.85,156.55c0,20.87.81,39.88-.63,58.72-.32,4.14-8.07,9.09-13.39,11.27-141.73,58.05-283.68,115.55-425.4,173.62-198.41,81.3-396.66,162.98-594.99,244.48-5.47,2.25-11.05,4.25-17.43,4.43,349.91-163.84,699.82-327.69,1051.85-492.52Z"/><path class="h" d="m41.53,1485.55c-344.99,161.56-689.97,323.11-1036.91,485.58,0-20.26-.92-38.26.6-56.06.42-4.92,7.27-11.29,12.61-13.49,90.49-37.33,181.29-73.93,271.87-111.05,245.94-100.79,491.81-201.75,737.73-302.62,4.36-1.79,8.88-3.21,13.32-4.81.26.81.53,1.62.79,2.44Z"/><path class="h" d="m1953.71,1362c347.13,97.83,694.27,195.66,1041.7,293.57v64.05c-347.99-118.81-695.11-237.33-1042.24-355.85.18-.59.36-1.18.54-1.77Z"/><path class="h" d="m2995.15,1589.61v60.42c-351.02-107.75-701.19-215.24-1051.36-322.72.15-.55.29-1.11.44-1.66,350.04,87.92,700.08,175.84,1050.92,263.96Z"/><path class="h" d="m38.13,762.73c-343.78-98.88-687.55-197.77-1032.47-296.98v-57.41c344.57,117.66,688.79,235.19,1033,352.73l-.53,1.66Z"/></g><g id="c"><path class="h" d="m1085.08,1518.86c10.11-20.77-19.61-61.82-39.9-75.92-20.29-14.1-77.7-33.26-98.78-29.66-21.08,3.6-57.42,15.07-67.97,21.16-10.55,6.09-14.92,43.92-14.92,43.92,3.38,20.8,44.93,54.42,69.12,67.49,24.19,13.07,72.53,40.32,90.53,33.86,18-6.46,51.81-40.09,61.92-60.86Zm-65.3,57.41c-14.42,1.73-59.5-23.29-81.97-35.44-22.48-12.15-62.67-40.44-68.51-54.76,0,0,57.59-25.47,75.04-24.86,17.45.61,61.21,12.26,80.5,24.53,19.3,12.27,39.85,45.17,34.2,57.55-5.65,12.38-24.84,31.24-39.26,32.97Z"/><path class="h" d="m1369.56,1038h0c.41-17.4-6.25-34.22-18.47-46.62l-75.6-76.72c-11.71-11.88-27.58-18.74-44.25-19.14l-99.09-2.34c-12.79-.3-25.37,3.22-36.14,10.11l-32,20.48c-8.48,5.42-15.56,12.77-20.68,21.43l-.49.82c-11.55,19.53-11.92,43.7-1.02,63.6,14.76,26.94,35.98,62.38,51.03,73.61,29.04,21.68,115.63,41.17,163.58,50.68,20.4,4.05,41.5-2.04,56.62-16.33l36.42-34.42c12.46-11.77,19.7-28.04,20.1-45.18Zm-17.71,11.17l-26.22,19.88c-10.88,8.25-27.46,10.3-44.48,5.5-40-11.29-112.46-33.27-138.28-50.99-13.37-9.18-34.2-35.53-48.91-55.41-10.87-14.69-12.98-31.17-5.53-43.36l.31-.51c3.3-5.41,8.34-9.72,14.7-12.58l24.02-10.8c8.08-3.63,17.98-4.78,28.42-3.3l84.37,4.57c13.62,1.94,25.11,8.82,35.84,18.11l67.91,66.31c11.19,9.69,18.3,21.86,19.7,33.71h0c1.38,11.67-2.89,22.06-11.86,28.87Z"/><path class="h" d="m1461.05,1378.67h0c15.06-8.73,25.93-23.19,30.13-40.09l25.99-104.53c4.02-16.19,1.6-33.31-6.77-47.73l-49.72-85.74c-6.42-11.06-15.99-19.96-27.49-25.55l-34.17-16.61c-9.05-4.4-19.01-6.61-29.07-6.46h-.96c-22.69.36-43.5,12.66-54.78,32.34-15.27,26.65-34.43,63.25-36.16,81.94-3.34,36.09,25.23,120.12,42.14,165.98,7.2,19.52,23.4,34.33,43.48,39.77l48.37,13.1c16.55,4.48,34.2,2.17,49.03-6.43Zm-18.77-9.27l-30.64-11.99c-12.72-4.98-23.12-18.04-27.9-35.07-11.24-40.01-30.32-113.29-28.68-144.56.85-16.2,12.45-47.72,21.74-70.64,6.86-16.94,19.81-27.34,34.1-27.35h.6c6.34,0,12.64,2.04,18.4,5.98l21.74,14.85c7.32,5,13.46,12.84,17.65,22.52l40.14,74.35c5.46,12.63,5.58,26.03,3.25,40.02l-21.12,92.54c-2.43,14.6-9.1,27.02-18.47,34.4h0c-9.23,7.27-20.33,9.05-30.81,4.95Z"/><path class="h" d="m996.36,1297.36c-4.81-22.95-84.89-87.98-118.17-97.35-33.28-9.38-102.15-13.57-118.55,17.97-21.06,40.52-2.76,138.32-2.76,138.32,55.83,88.78,93.44,86.12,116.33,93.01,22.89,6.89,77.96-19.7,91.66-43.6,13.7-23.9,36.3-85.4,31.49-108.35Zm-64.85,95.49c-13.7,23.9-68.77,50.49-91.66,43.6-22.89-6.89-70.46-60.78-80.45-85.74,0,0-11.43-86.01.42-119.52,11.85-33.51,32.77-22.99,66.05-13.61,33.28,9.38,117.81,83.24,122.62,106.19,4.81,22.95-3.29,45.18-16.99,69.08Z"/><path class="h" d="m761.72,1470.69c18.17-20.71,25.47-81.43,11.53-100.84-13.94-19.42-23.62-55.86-125.71-79.89,0,0-98.45,14.39-129.95,47.46-24.52,25.73,1.77,89.53,21.44,117.97,19.66,28.44,107.14,83.11,130.41,80.22,23.27-2.89,74.12-44.21,92.29-64.92Zm-82.83,11.09c-23.27,2.89-120.55-53.12-140.21-81.57-19.66-28.44-36.4-44.82-8.55-66.9,27.86-22.08,112.93-39.15,112.93-39.15,26.85,1.35,93.26,28.89,107.2,48.3,13.94,19.42,6.64,80.13-11.53,100.84-18.17,20.71-36.57,35.58-59.84,38.47Z"/><path class="h" d="m1046.47,1725.01c16.45,16.71,118.97,28.15,152.04,18.05,33.07-10.1,93.28-43.79,90.03-79.19-4.18-45.48-72.43-117.87-72.43-117.87-94.95-44.53-125.16-21.96-148.14-15.39-22.98,6.57-54.95,58.7-53.56,86.22,1.39,27.52,15.61,91.47,32.06,108.18Zm2.96-115.39c-1.39-27.52,30.58-79.65,53.56-86.22,22.98-6.57,92.13,13.06,114.03,28.67,0,0,56.1,66.19,64.24,100.79,8.14,34.6-15.15,37.05-48.22,47.15-33.07,10.1-144.11-6.37-160.56-23.08-16.45-16.71-21.65-39.79-23.04-67.31Z"/><path class="h" d="m1300.29,1508.27s-26.33-32.49-39.27-34.3c-12.94-1.81-43.66,5.75-46.76,10.26-3.1,4.51-12.19,30.51-12.61,37.44-.42,6.93,13.8,29.91,19.34,34.21,5.55,4.3,27.69,8.13,33.23,8.52,5.54.39,19.2-7.52,26.15-16.46,6.95-8.94,19.89-28.96,19.93-39.67Zm-30.5,35.53c-5.35,7.16-15.49,13.8-19.45,13.72-3.97-.08-19.74-2.16-23.56-5.25s-13.13-20.25-12.56-25.61,8.14-25.77,10.55-29.36c2.41-3.6,23.44-2.81,32.68-1.93,9.24.88,28.24,17.06,28.24,17.06-.45,8.26-10.55,24.21-15.9,31.37Z"/><path class="h" d="m1064.04,1457.75s-19.36,37.07-15.88,49.66c3.48,12.6,22.62,37.78,27.99,38.84,5.37,1.06,32.84-.93,39.37-3.3,6.53-2.37,21.97-24.54,23.71-31.34,1.74-6.8-3.54-28.64-5.38-33.88-1.84-5.24-14.53-14.63-25.49-17.46-10.96-2.83-34.47-6.75-44.32-2.53Zm44.72,13.88c8.7,2.06,18.82,8.73,20.32,12.4,1.5,3.67,5.86,18.97,4.53,23.71-1.32,4.73-13.37,20.09-18.51,21.69-5.15,1.6-26.88,2.76-31.14,1.98-4.26-.78-11.89-20.4-14.75-29.22-2.86-8.83,4.44-32.69,4.44-32.69,7.76-2.87,26.41.07,35.1,2.13Z"/><path class="h" d="m874.95,1198.14s5.7-34.71,0-44.13c-5.7-9.42-26.34-25.37-30.67-24.96-4.33.41-24.7,8.51-29.08,11.98-4.38,3.47-30.91,51.97-30.58,57.91.33,5.94,29.82-4.39,32.49-.56,2.67,3.82,14.58,8.46,23.58,8.17,9.01-.29,27.8-2.65,34.25-8.41Zm-37.31-.72c-7.1.38-16.4-2.65-18.43-5.28-2.03-2.63-9.05-14.04-9.2-18.2s5.27-19.49,8.79-22.01,19.73-8.59,23.15-8.96,13.97,13.77,18.29,20.28c4.31,6.5,4.57,27.62,4.57,27.62-5.2,4.16-20.06,6.18-27.16,6.56Z"/><path class="h" d="m852.2,1083.94c.59-28.98-12.35-46.86-41.56-60.97-29.21-14.11-119.38-24.89-119.38-24.89-19.16,1.37-123.35,72.3-134.47,96.99-11.11,24.69-13.57,150.06,11.18,166.22,24.75,16.17,73.59,20.8,101.67,15.32,28.08-5.48,53.97,2.38,84.12-33.79,30.15-36.17,97.84-129.91,98.43-158.89Zm-90.39,130.01c-26.12,30.41-45.49,31.6-70.71,28.7-17.13-1.97-85.94-12.1-91.72-15.94-22.47-14.91-23.8-122.76-14.48-143.78,9.32-21.02,101.01-79.47,118.18-80.14,0,0,80.78,17.29,107.39,30.25,26.61,12.96,32.03,22.16,32.28,47.16.24,25-54.82,103.32-80.94,133.74Z"/><path class="h" d="m1483.62,1399.65c-5.02-21.69-17.46-30.17-40.61-29.88-23.15.29-88.47,25.48-88.47,25.48-13.19,8.06-73.03,98.95-76.2,121.33-3.17,22.38,18.62,116.16,39.02,119.04,20.41,2.87,55.56-11.67,74.24-26.05,18.68-14.39,38.33-18.09,52.71-55.98,14.38-37.89,44.32-132.24,39.3-153.93Zm-35.97,129.44c-12.63,32.14-28.52,38.61-47.35,47.41-23.94,11.19-51.45,23.37-67.38,21.93-18.74-1.69-28.32-81.43-25.71-100.43,2.6-19,52.46-82.88,64.38-89.7,0,0,51.38-35.14,72.5-35.33,21.11-.19,32.56,7.05,37.42,25.48,4.86,18.43-21.23,98.49-33.85,130.63Z"/><path class="h" d="m823.33,1123.19c41.75,34.28,87.01,54.84,113.57,62.5,22.97,6.62,93.93-54.9,115.44-72.12,21.64-17.33,59.88-36.59,55.06-59.54-4.81-22.95-67.94-123.47-101.22-132.84-33.28-9.38-117.58,15.15-171.89,85.7-27.86,36.19-10.96,116.31-10.96,116.31Z"/><path class="g" d="m1061.24,1013.45c-4.81-22.95-23.48-77.67-56.76-87.05-33.28-9.38-155.96,54.95-167.81,88.46-11.85,33.51-3.38,57.89-3.38,57.89,9.99,24.96,90.2,22.42,113.09,29.31,22.89,6.89,54.89-12.75,76.6-32.27,20.49-18.42,43.08-33.39,38.26-56.34Z"/><path class="h" d="m1107.4,1054.03c-4.81-22.95-67.94-123.47-101.22-132.84-33.28-9.38-117.58,15.15-171.89,85.7-27.86,36.19-10.96,116.31-10.96,116.31,41.75,34.28,87.01,54.84,113.57,62.5,22.97,6.62,93.93-54.9,115.44-72.12,21.64-17.33,59.88-36.59,55.06-59.54Zm-84.42,15.76c-21.71,19.52-53.72,39.16-76.6,32.27-22.89-6.89-103.1-4.34-113.09-29.31,0,0-8.47-24.38,3.38-57.89,11.85-33.51,134.53-97.84,167.81-88.46,33.28,9.38,51.95,64.1,56.76,87.05,4.81,22.95-17.78,37.92-38.26,56.34Z"/><path class="h" d="m1142.68,885.33c-4.4-20.74-26.67-29.3-56.82-37.82-30.15-8.52-70.25,10.21-147.96,30.65-51.57,13.56-61.15,66.15-61.15,66.15,37.85,31.03,86.56,37.76,110.62,44.72,20.8,6.02,57.22-27.19,76.66-42.7,19.57-15.61,83.05-40.25,78.65-60.98Zm-30.6-14.76c-11.17,5.26-51.36,22.34-74.94,30.24-14.42,4.83-23.29,12.11-41.33,12.7-21.65.71-81.8,14.52-98.09-1.82,0,0,9.93-16.82,38.75-26.13,30.52-9.86,117.71-41.86,147.85-33.34,30.15,8.52,35.62,14.65,27.76,18.35Z"/><path class="h" d="m895.34,941.22c-7.19-10.44-22.02-34.46-62.87-23.08-18.82,5.24-59.11,28.01-73.56,72.2-7.41,22.67.2,34.56.2,34.56,29.01,9.56,57.1,11.75,72.7,10.87,13.48-.76,38.56-43.42,46.45-55.65,7.94-12.3,24.26-28.46,17.07-38.91Zm-41.45,22.52c-7.53,13.4-20.38,21.34-33.98,29.27-26.14,15.23-57.61,19.4-58.12.85-.51-18.55,51.34-71.64,70.84-72.85,19.5-1.21,22.91-2.11,30.09,8.33,7.19,10.44-1.73,21.76-8.84,34.4Z"/><path class="h" d="m1213.26,1525.86c3.49-7.44,12.02-23.68-6.28-40.47-8.43-7.73-32.7-20.13-60.82-11.59-14.43,4.38-18.57,12.56-18.57,12.56,3.49,18.28,10.67,33.44,15.78,41.09,4.42,6.62,34.89,4.07,43.83,3.69,9-.38,22.57,2.15,26.06-5.3Zm-24.48-13.08c-9.46.98-17.57-2.73-25.89-6.83-15.99-7.88-27.61-22.46-17.76-29.41,9.85-6.95,53.91.43,60.36,9.97s7.96,10.95,4.47,18.39c-3.49,7.44-12.24,6.96-21.17,7.88Z"/><path class="h" d="m1048.19,1603.26c-5.93-11.21-17.86-36.79-59.76-30.23-19.3,3.02-61.96,20.95-81.45,63.17-10,21.65-3.81,34.35-3.81,34.35,27.7,12.86,55.35,18.31,70.94,19.24,13.48.81,43.35-38.65,52.61-49.88,9.32-11.3,27.4-25.45,21.48-36.66Zm-43.79,17.55c-9.04,12.43-22.72,18.83-37.15,25.12-27.73,12.09-59.47,12.58-57.82-5.91,1.65-18.49,59.32-65.19,78.82-64.12,19.5,1.06,23,.56,28.92,11.77,5.93,11.21-4.24,21.41-12.77,33.14Z"/><path class="h" d="m497.81,1343.95c12.6,1.4,40.47,5.9,58.59-32.44,8.35-17.66,17.5-63.03-6.46-102.87-12.29-20.44-26.27-22.46-26.27-22.46-26.21,15.68-46.25,35.49-55.79,47.86-8.25,10.69,7.6,57.58,11.68,71.54,4.11,14.06,5.65,36.97,18.25,38.37Zm10.1-46.08c-5.2-14.46-2.8-29.37.11-44.84,5.59-29.73,23.02-56.26,37.39-44.51,14.36,11.75,20.57,85.7,8.73,101.24-11.84,15.53-13.39,18.7-25.99,17.3-12.6-1.4-15.32-15.54-20.23-29.19Z"/><path class="h" d="m1201.34,1232.63c4.1,1.75,6.78,2.58,8.03,2.48,4.45.85,7.13,1.8,8.03,2.85,2.05,3.85,3,6.18,2.85,6.98-.1.85-.34.61-.71-.71s-1.04-2.21-1.99-2.66c-.2.2-.04.93.49,2.18.53,1.25,1.31,2.74,2.36,4.46,1.05,1.73,2.29,3.51,3.71,5.36,1.43,1.85,2.94,3.45,4.54,4.8.55-.4.92-.7,1.12-.9.2-.2.53-.53.98-.98.45-.4.76-.74.94-1.01.17-.27.39-.64.64-1.09,0,.25-.03.48-.07.68.85-.3,1.85-1.6,3-3.9,1.15-2.3,2.25-4.78,3.3-7.43,1.05-2.65,2.33-6.15,3.83-10.5.8-2.05.65-4-.45-5.85-1.05-1.05-1.03-2.6.08-4.65l-2.1-1.28,3.45.3-.6-2.1c2.4-2.55,6.63-4.05,12.68-4.5,1,0,2.78-1.45,5.33-4.35l-1.65,3.6,2.93-1.73-1.43,2.93c.35-.6,1.28-.7,2.78-.3-.6,0-1.2.65-1.8,1.95-.15,1.65-1.08,3.93-2.78,6.83l2.18-.3-3.15,1.8c-1.05,4.05-2.66,8.08-4.84,12.08-2.18,4-4.42,7.65-6.71,10.95-2.3,3.3-4.39,6.05-6.26,8.25s-2.99,3.5-3.34,3.9l4.58,2.78c-1.5.55-1.09,2,1.24,4.35,2.33,2.35,5.18,4.84,8.55,7.46s8.14,6.04,14.29,10.24c2.3,1.85,5.08,2.63,8.33,2.33,2.1-.6,4.23.15,6.38,2.25l3.08-1.58-2.48,3.53,3.23.38c1.05,1.9,1.58,3.79,1.58,5.66s-.21,3.56-.64,5.06c-.43,1.5-1.16,3.18-2.21,5.03-.55,1.05.42,3.65,2.93,7.8l-4.05-3.45.68,3.98-3.23-3c.6.7.2,1.75-1.2,3.15.3-.6-.28-1.58-1.73-2.93-2.15-.9-4.73-2.98-7.73-6.23l-.9,2.48-.67-4.28c-4.3-2.6-8.34-5.71-12.12-9.34-3.78-3.63-7.19-7.25-10.24-10.88-3.05-3.63-5.68-7.05-7.88-10.28-2.2-3.23-3.83-5.71-4.88-7.46l.53,2.33c-2-2.25-3.4-3.2-4.2-2.85l-.23-.22c-1.75,2.85-3.98,5.92-6.68,9.19-2.7,3.28-5.88,5.96-9.53,8.06l-.07,2.85-.83-1.73c-1.7,2.05-3.23,3.3-4.58,3.75-.85.8-1.12,1.42-.83,1.88-1.05-1-1.43-1.73-1.12-2.18l-1.88,1.88.08-2.63-2.4,2.1c1.25-2.65,1.65-4.35,1.2-5.1-2.7-4.55-3.53-8.08-2.48-10.58l2.1-.08-1.95-2.48,2.18,1.2c1.2-1.25,2.55-1.65,4.05-1.2,2.2.45,3.98.08,5.33-1.12,5.6-3.85,9.43-6.68,11.48-8.48l1.35-1.58c-1.65-2.2-3.58-4.71-5.78-7.54-2.2-2.83-4.35-5.53-6.45-8.1-2.1-2.58-4-4.81-5.7-6.71-1.7-1.9-2.93-3.05-3.68-3.45,1.1.1,1.8.28,2.1.52-1.05-.85-1.88-1.32-2.48-1.42l1.12-.45-.9-1.05Z"/><path class="h" d="m1089.53,1232.63c4.1,1.75,6.78,2.58,8.03,2.48,4.45.85,7.13,1.8,8.03,2.85,2.05,3.85,3,6.18,2.85,6.98-.1.85-.34.61-.71-.71s-1.04-2.21-1.99-2.66c-.2.2-.04.93.49,2.18.53,1.25,1.31,2.74,2.36,4.46,1.05,1.73,2.29,3.51,3.71,5.36,1.43,1.85,2.94,3.45,4.54,4.8.55-.4.92-.7,1.12-.9.2-.2.53-.53.98-.98.45-.4.76-.74.94-1.01.17-.27.39-.64.64-1.09,0,.25-.03.48-.07.68.85-.3,1.85-1.6,3-3.9,1.15-2.3,2.25-4.78,3.3-7.43,1.05-2.65,2.33-6.15,3.83-10.5.8-2.05.65-4-.45-5.85-1.05-1.05-1.03-2.6.08-4.65l-2.1-1.28,3.45.3-.6-2.1c2.4-2.55,6.63-4.05,12.68-4.5,1,0,2.78-1.45,5.33-4.35l-1.65,3.6,2.93-1.73-1.43,2.93c.35-.6,1.28-.7,2.78-.3-.6,0-1.2.65-1.8,1.95-.15,1.65-1.08,3.93-2.78,6.83l2.18-.3-3.15,1.8c-1.05,4.05-2.66,8.08-4.84,12.08-2.18,4-4.42,7.65-6.71,10.95-2.3,3.3-4.39,6.05-6.26,8.25s-2.99,3.5-3.34,3.9l4.58,2.78c-1.5.55-1.09,2,1.24,4.35,2.33,2.35,5.18,4.84,8.55,7.46s8.14,6.04,14.29,10.24c2.3,1.85,5.08,2.63,8.33,2.33,2.1-.6,4.23.15,6.38,2.25l3.08-1.58-2.48,3.53,3.23.38c1.05,1.9,1.58,3.79,1.58,5.66s-.21,3.56-.64,5.06c-.43,1.5-1.16,3.18-2.21,5.03-.55,1.05.42,3.65,2.93,7.8l-4.05-3.45.68,3.98-3.23-3c.6.7.2,1.75-1.2,3.15.3-.6-.28-1.58-1.73-2.93-2.15-.9-4.73-2.98-7.73-6.23l-.9,2.48-.67-4.28c-4.3-2.6-8.34-5.71-12.12-9.34-3.78-3.63-7.19-7.25-10.24-10.88-3.05-3.63-5.68-7.05-7.88-10.28-2.2-3.23-3.83-5.71-4.88-7.46l.53,2.33c-2-2.25-3.4-3.2-4.2-2.85l-.23-.22c-1.75,2.85-3.98,5.92-6.68,9.19-2.7,3.28-5.88,5.96-9.53,8.06l-.07,2.85-.83-1.73c-1.7,2.05-3.23,3.3-4.58,3.75-.85.8-1.12,1.42-.83,1.88-1.05-1-1.43-1.73-1.12-2.18l-1.88,1.88.08-2.63-2.4,2.1c1.25-2.65,1.65-4.35,1.2-5.1-2.7-4.55-3.53-8.08-2.48-10.58l2.1-.08-1.95-2.48,2.18,1.2c1.2-1.25,2.55-1.65,4.05-1.2,2.2.45,3.98.08,5.33-1.12,5.6-3.85,9.43-6.68,11.48-8.48l1.35-1.58c-1.65-2.2-3.58-4.71-5.78-7.54-2.2-2.83-4.35-5.53-6.45-8.1-2.1-2.58-4-4.81-5.7-6.71-1.7-1.9-2.93-3.05-3.68-3.45,1.1.1,1.8.28,2.1.52-1.05-.85-1.88-1.32-2.48-1.42l1.12-.45-.9-1.05Z"/><path class="e" d="m979.19,1157.32c36.55-44.85,208.62-65.45,249.04-104.59,106.33-102.95,310.41,165.56,310.41,165.56l-341.17-428.59s-189.91,74.95-328.17,95.52c-169.2,25.16-245.59,227.44-344.39,278.04-90.83,46.52-57.6,243.11-57.6,243.11l226.02,158.06s38.47,3.68,47.15,0"/><path class="d" d="m1496.51,1162.38s-48.32,164.98-196.98,254.14c-98.94,59.34-566.27,155.8-623.31,141-35.82-9.3,158.12-99.2,273.87-331.85,27.38-55.03,90.5-323.55,72.45-365.67-18.05-42.12,391.13,309.31,358.56,142.79-11.53-58.93-279.23,100.12-366.9,287.17-82.09,175.14,73.14,464.53-111.05,380.59-54.45-24.81-375.38-315.15-382.4-266.01-7.02,49.14,156.27-183.52,159.28-145.41,3.01,38.11-11.88,71.75-36.1,81.23-46.13,18.05-75.35-21.33-86.24-55.16-19.05-59.17-11.5-115.01-11.5-115.01"/><path class="d" d="m1482.1,1369.76s-75.71,236.12-249.91,276.74c-175.32,40.89-482.68-41.93-526.02-74.52-29.58-22.24-95.37-23.29-134.68-70.54-139.76-167.99,48.28-234.92-20.33-340.31-25-38.4,249.29-457.96,312.15-615.55,62.86-157.6,139.38-287.14,179.07-291.48,39.69-4.34,105.56,4.6,126.54,60.63,20.98,56.04-48.24,124.45-70.9,168.61-22.66,44.16-110.54,258.9-120.13,295.9-9.59,37.01-34.63,63.95-60.62,65.01-49.5,2.02-64.27-44.74-63.54-80.27,1.29-62.15,53.65-182.17,53.65-182.17"/><path class="f" d="m801.16,370.57l177.77,61.33s-30.92,93.31-120.94,62.25c-90.02-31.06-56.83-123.58-56.83-123.58Z"/><circle class="h" cx="876.29" cy="441.09" r="42.55"/><path class="f" d="m1021.1,446.45l177.77,61.33s-30.92,93.31-120.94,62.25-56.83-123.58-56.83-123.58Z"/><circle class="h" cx="1096.23" cy="516.97" r="42.55"/></g></svg>