<?xml version="1.0" encoding="UTF-8"?><svg id="a" xmlns="http://www.w3.org/2000/svg" viewBox="0 0 2000 2000"><defs><style>.b{fill:none;stroke:#000;stroke-miterlimit:10;stroke-width:30px;}.c{stroke-width:0px;}</style></defs><path class="c" d="m1411.71,1367.73c-.15-3.12-.42-6.24-.42-9.36-.02-147.01-.02-294.02,0-441.03,0-3.12.27-6.24.42-9.36,11.43.55,23.11-.21,34.25,1.89,33.05,6.2,55.41,33.91,55.43,67.35.05,106.77.03,213.53,0,320.3,0,39.03-28.73,68.75-67.77,70.11-7.3.25-14.61.08-21.91.11Z"/><path class="c" d="m590.41,907.99c.12,4.51.33,9.02.33,13.52.02,144.11.02,288.23,0,432.34,0,4.51-.22,9.02-.33,13.52-12.45-.64-25.29.46-37.26-2.26-31.5-7.15-52.18-34.53-52.19-66.75-.03-106.67-.03-213.34,0-320.01.01-39.35,29.28-69.34,68.6-70.34,6.95-.18,13.9-.04,20.85-.04Z"/><path class="c" d="m999.68,1178.59c-13.57,0-27.14.26-40.69-.09-11.13-.29-14.52-5.73-9.43-15.71,13.56-26.63,27.38-53.13,41.47-79.47,5.35-9.99,12.93-9.68,18.36.59,13.82,26.1,27.49,52.28,40.92,78.59,5.31,10.39,1.84,15.82-9.93,16.05-13.56.26-27.13.06-40.69.05Z"/><circle class="b" cx="821.81" cy="1023.14" r="97.36"/><circle class="b" cx="1175.56" cy="1023.14" r="97.36"/><line class="b" x1="842.08" y1="1254.63" x2="842.08" y2="1363.2"/><line class="b" x1="1175.56" y1="1254.63" x2="1175.56" y2="1363.2"/><line class="b" x1="1087.47" y1="1254.63" x2="1087.47" y2="1363.2"/><line class="b" x1="920.73" y1="1254.63" x2="920.73" y2="1363.2"/><line class="b" x1="999.39" y1="1254.69" x2="999.39" y2="1363.26"/><path class="c" d="m1208.09,801.19c52.38,0,94.82.02,133.56.05,10.06,0,18.84,2.62,25.38,7.55,6.12,4.61,10.12,11.08,11.9,19.24,1.17,5.35,1.28,12.29,1.4,19.64.04,2.64.09,5.37.18,8.17.41,12.23.65,24.79.88,36.93.09,4.93.19,9.85.29,14.78-.03.55-.06,1.09-.1,1.64-.14,2.41-.31,5.14-.31,8.16-.02,147.03-.02,295.41,0,441.04,0,3.02.16,5.76.31,8.17.03.51.06,1.02.09,1.53-.18,6.44-.4,13-.61,19.35-.5,15.23-1.01,30.97-1.15,46.64-.1,11.22-3.59,20.57-10.1,27.05-6.51,6.47-15.88,9.9-27.1,9.9-115.09,0-230.18,0-345.27,0s-226.45,0-339.67,0c-22.8,0-37-14.14-37.04-36.91-.03-15.41-.12-31.05-.22-46.17-.04-6.75-.08-13.49-.12-20.24.03-1.21.07-2.42.11-3.64.11-3.26.22-6.64.22-10.2.02-143.44.02-288.91,0-432.35,0-3.56-.11-6.94-.22-10.2-.04-1.21-.08-2.42-.11-3.64.04-6.76.08-13.52.12-20.28.09-15.12.19-30.74.21-46.15.01-8.98,1.73-21.39,9.87-29.47,8.2-8.15,20.81-9.86,29.94-9.86,41.92,0,83.83,0,125.75,0h87.48s87.48,0,87.48,0h42.83v-.71h36.89c27.85,0,55.7,0,83.55,0,27.85,0,55.69,0,83.54,0m-447.22,102.94c-34.24,17.01-57.12,44.03-68.02,80.33-19.23,64,11.51,133.37,70.08,159.1,15.9,9.32,35.42,14.23,56.66,14.23,32.31,0,65.13-11.66,87.78-31.2l2.07-1.78,1.71-2.13c2.42-3,5.12-6.08,7.98-9.34,7.1-8.07,15.14-17.23,21.41-28.41,16.66-29.71,20.4-64.67,10.54-98.45-9.96-34.14-33.21-63.15-63.82-79.68-21.37-12.15-43.42-18.31-65.55-18.31-20.43,0-40.9,5.26-60.85,15.64m338.74,229.34c19.9,15.43,46.79,23.91,76.01,23.91s57.59-9.12,77.19-25.05c21.16-16,36.76-35.88,47.66-60.75,24.76-56.47-1.1-132.31-55.35-162.75-.61-.38-1.36-.88-2.14-1.4-3.19-2.12-7.56-5.02-13.07-7.28-18.86-7.74-37.53-11.66-55.51-11.66-21.34,0-42.01,5.47-61.45,16.26l-1.8,1-1.65,1.24c-2.59,1.95-5.49,3.93-8.56,6.02-7.87,5.37-16.78,11.47-24.74,19.88-27.2,28.76-39.52,68.75-33.8,109.73,5.39,38.67,26.19,71.65,57.18,90.85m-124.3,75.21c3.91,0,7.81-.02,11.72-.04,3.8-.02,7.6-.04,11.39-.04h1.26c4.06,0,8.12.02,12.19.04,4.15.02,8.3.04,12.46.04,6.4,0,11.68-.04,16.63-.14,22.25-.43,32.47-12.02,36.58-18.88,4.1-6.84,9.48-21.23-.51-40.8-12.62-24.72-26.07-50.56-41.12-78.99-11.4-21.53-28.93-23.86-35.95-23.86h0c-14.61,0-27.51,8.44-35.38,23.15-13.93,26.03-27.97,52.95-41.76,80.01-9.82,19.29-4.49,33.59-.44,40.4,4.06,6.82,14.11,18.34,35.82,18.91,5.06.13,10.5.2,17.11.2m-175.96,184.52h419.31c46.46,0,84.26-37.8,84.26-84.26s-37.8-84.26-84.26-84.26h-419.31c-46.46,0-84.26,37.8-84.26,84.26s37.8,84.26,84.26,84.26m200.84-892.73c-.22,0-.43,0-.65,0-38.29.3-70.3,25.99-79.06,63.43-9.43,40.33,9.34,74.07,53.62,96.54v111.47h-12.83c-58.32,0-116.65,0-174.96,0-41.92,0-83.83,0-125.76,0-43.19,0-69.76,26.42-69.81,69.29-.03,22.26-.22,44.53-.33,66.79.12,4.51.33,9.02.33,13.52.02,144.11.02,288.23,0,432.34,0,4.51-.22,9.02-.33,13.52.12,22.26.29,44.52.34,66.78.08,39.27,27.67,66.85,67.04,66.85,113.22,0,226.45,0,339.67,0s230.18,0,345.27,0c39.44,0,66.86-27.45,67.2-66.68.2-22.21,1.16-44.41,1.78-66.61-.15-3.12-.42-6.24-.42-9.36-.02-147.01-.02-294.02,0-441.03,0-3.12.27-6.24.42-9.36-.38-17.72-.6-35.45-1.2-53.16-.37-11.09.08-22.47-2.26-33.19-6.76-31.01-32.84-50.37-66.57-50.4-44.53-.04-89.06-.05-133.59-.05-55.7,0-111.39.02-167.09.02h-14.88v-110.68c51.12-20.87,61.23-66.46,53.23-98.72-8.86-35.74-41.88-61.34-79.16-61.34h0Zm-.38,115.22c-.21,0-.41,0-.62,0-18.62-.29-32.54-14.69-32.5-33.59.05-19.19,14.29-33.27,33.58-33.27.09,0,.18,0,.28,0,19.18.13,33.24,14.65,33.02,34.11-.21,18.8-14.66,32.76-33.76,32.76h0Zm-180.23,512.11c-15.87,0-31.05-3.56-42.94-10.99-45.49-18.91-70.04-73.88-55.07-123.71,8.53-28.4,26.31-49.08,52.89-62.22,15.84-8.29,31.59-12.38,47.25-12.39,17.11,0,34.11,4.89,51.01,14.56,48.38,25.91,68.63,89.08,41.64,137.21-6.9,12.31-17.63,22.47-26.6,33.62-18.06,15.58-43.92,23.91-68.19,23.91h0Zm356.04-.41c-21.79,0-43.61-6.19-58.84-18.58-51.78-30.76-61.66-109.94-18.76-155.3,8.39-8.87,19.6-15.08,29.51-22.52,15.47-8.59,31.12-12.49,46.89-12.49,14.61,0,29.33,3.35,44.12,9.42,4.06,1.66,7.63,4.51,11.42,6.81,41.02,22.64,61.94,81.72,43.05,124.82-8.98,20.49-21.43,36.24-38.72,49.2-15.04,12.43-36.83,18.65-58.66,18.65h0Zm-200.32,51.3c-5.44,0-10.88-.04-16.32-.18-11.13-.29-14.52-5.73-9.43-15.71,13.56-26.63,27.38-53.13,41.47-79.47,2.61-4.88,5.76-7.31,8.93-7.31,3.31,0,6.65,2.65,9.43,7.9,13.82,26.1,27.49,52.28,40.92,78.59,5.31,10.39,1.84,15.82-9.93,16.05-5.35.1-10.7.14-16.05.14-8.21,0-16.43-.07-24.64-.07-.42,0-.84,0-1.26,0-7.7,0-15.41.08-23.11.08h0Zm-175.96,184.52c-29.96,0-54.26-24.29-54.26-54.26h0c0-29.96,24.29-54.26,54.26-54.26h419.31c29.96,0,54.26,24.29,54.26,54.26h0c0,29.96-24.29,54.26-54.26,54.26h-419.31Z"/></svg>