<?xml version="1.0" encoding="UTF-8"?><svg id="a" xmlns="http://www.w3.org/2000/svg" viewBox="0 0 2000 2000"><defs><style>.b{fill:#fff;stroke:#000;stroke-linejoin:round;stroke-width:11.01px;}.c{stroke-width:0px;}</style></defs><path class="c" d="m1166.32,1161.26c-.98-23.08-46.64-45.06-71.19-47.82-24.55-2.76-84.17,7.68-101.01,20.88-16.83,13.19-43.35,40.56-49.73,50.94-6.38,10.38,7.76,45.73,7.76,45.73,12.86,16.69,65.4,26.51,92.9,26.51s82.98.98,95.74-13.26c12.77-14.24,26.51-59.9,25.53-82.98Zm-30.15,81.55c-11.86,8.38-63.41,7.8-88.96,7.8s-74.36-5.78-86.31-15.6c0,0,38.56-49.79,54.2-57.55,15.64-7.76,59.68-18.32,82.49-16.69,22.81,1.62,56.53,20.79,57.45,34.37.91,13.58-7,39.3-18.86,47.67Z"/><path class="c" d="m890.09,704.41c.32.26.64.53.96.8,1.06.74,2.12,1.51,3.14,2.3,3.09,2.41,6.01,5.06,8.7,7.92-.85-1.45-1.73-2.88-2.7-4.26-4.64-6.62-11.47-10.87-19.03-13.48,3.16,2.05,6.13,4.41,8.93,6.72Z"/><path class="c" d="m917.26,742.89c-.27-1.68-.74-3.3-1.34-4.87.66,2.49,1,5.07.69,7.59-.14,1.16-.41,2.36-.79,3.54.02.97.02,1.96-.04,2.92.38.22.76.44,1.13.66.49-3.27.87-6.59.35-9.84Z"/><path class="c" d="m861.97,686.52c-1.32-1.27-3.19-2.29-5.09-2.83.01.18.01.37.02.55,2.01.91,3.97,1.93,5.81,3.13-.23-.3-.47-.58-.75-.85Z"/><path class="c" d="m1187.96,602.97c-7.91-15.5-21.77-27.14-38.41-32.23l-102.99-31.55c-15.95-4.89-33.17-3.38-48.03,4.21l-88.28,45.06c-11.39,5.81-20.79,14.9-26.99,26.08l-18.42,33.23c-4.88,8.8-7.62,18.63-8.01,28.69l-.04.96c-.05,1.41-.04,2.81,0,4.21,2.5.59,5.04,1.9,6.77,3.67,1.34,1.37,2.12,3,2.57,4.76.69.65,1.32,1.33,1.89,2.05,1.82.33,3.6.85,5.32,1.52,5.23,1.03,10.36,2.64,15.11,5.06,3.38,1.72,6.63,3.89,9.34,6.56,2.82,2.78,5.01,6.12,7,9.52,2.02,3.45,3.87,7.01,6.11,10.33,2.4,3.56,4.79,7.17,6.45,11.14,1.76,4.2,2.36,8.46,1.95,12.99-.14,1.54-.35,3.06-.56,4.59,18.03,10.26,35.85,18.88,47.27,20.56,35.86,5.27,121.3-18.76,168-33.19,19.87-6.14,35.54-21.53,42.05-41.28l15.68-47.6c5.36-16.28,4-34.03-3.79-49.3Zm-10.27,18.25l-13.61,29.96c-5.65,12.44-19.25,22.12-36.51,25.98-40.56,9.08-114.76,24.2-145.89,20.89-16.13-1.72-46.98-14.99-69.38-25.49-16.55-7.76-26.24-21.25-25.48-35.52l.03-.6c.33-6.33,2.72-12.51,6.95-18.06l16-20.92c5.38-7.04,13.54-12.76,23.44-16.42l76.4-36.09c12.9-4.77,26.29-4.18,40.14-1.1l91.27,26.05c14.45,3.21,26.49,10.53,33.36,20.29h0c6.77,9.61,7.95,20.78,3.29,31.03Z"/><path class="c" d="m1430.43,859.17h0c9.1-14.84,11.78-32.73,7.45-49.59l-26.84-104.31c-4.16-16.15-14.43-30.06-28.65-38.77l-84.51-51.79c-10.91-6.68-23.56-9.96-36.33-9.41l-37.96,1.63c-10.06.43-19.87,3.22-28.65,8.14l-.84.47c-19.79,11.09-32.26,31.8-32.82,54.49-.77,30.7-.21,72.02,7.15,89.28,14.22,33.33,79.31,93.68,115.99,125.98,15.61,13.75,36.91,19.08,57.16,14.32l48.78-11.47c16.69-3.92,31.12-14.35,40.07-28.97Zm-20.93.77l-32.66,4.02c-13.56,1.67-28.92-4.88-41.22-17.58-28.92-29.85-80.54-85.25-93.96-113.54-6.95-14.65-11.73-47.9-14.47-72.48-2.02-18.16,4.43-33.47,17-40.28l.53-.29c5.57-3.02,12.09-4.21,19.03-3.49l26.19,2.73c8.82.92,17.95,4.9,26.24,11.42l70.66,46.33c10.8,8.51,17.29,20.24,21.89,33.66l25.42,91.45c4.81,14,4.84,28.09.11,39.04h0c-4.67,10.79-13.58,17.63-24.75,19.01Z"/><path class="c" d="m982.96,1008.58c-15.15-17.9-116.51-37.03-150.25-29.46-33.74,7.57-96.32,36.64-95.74,72.18.74,45.66,63.34,123,63.34,123,91.33,51.55,123.15,31.33,146.56,26.51,23.41-4.82,59.21-54.39,59.9-81.94.69-27.54-8.67-92.39-23.81-110.29Zm-11.65,114.84c-.69,27.54-36.49,77.12-59.9,81.94-23.41,4.82-90.89-19.97-111.54-37.18,0,0-50.95-70.23-56.46-105.35-5.51-35.12,17.9-35.8,51.64-43.38,33.74-7.57,143.22,17.21,158.36,35.12,15.15,17.9,18.59,41.31,17.9,68.85Z"/><path class="c" d="m955.62,1209.78c-18.55-20.37-78.07-34.4-98.92-22.72-20.85,11.68-58.15,17.23-93.43,115.99,0,0,3.31,99.44,32.64,134.44,22.83,27.24,89.17,8.24,119.63-8.12,30.46-16.36,94.56-97.18,94.29-120.63s-35.65-78.59-54.2-98.96Zm1.76,83.55c.27,23.45-66.26,113.86-96.72,130.22-30.46,16.36-48.61,31.17-67.43,1.02-18.83-30.15-26.29-116.6-26.29-116.6,4.35-26.53,39.12-89.45,59.98-101.13,20.85-11.68,80.37,2.35,98.92,22.72,18.55,20.37,31.27,40.32,31.54,63.77Z"/><path class="c" d="m1141.45,1248.33c1.61,23.4,71.98,98.81,103.66,112.68,31.68,13.87,99.32,27.48,119.89-1.5,26.43-37.24,21.75-136.63,21.75-136.63-43.09-95.61-80.71-98.15-102.44-108.12-21.72-9.97-79.92,8.79-96.78,30.58-16.86,21.79-47.7,79.59-46.09,102.99Zm77.36-85.66c16.86-21.79,75.06-40.56,96.78-30.58,21.72,9.97,61.44,69.89,67.9,95.99,0,0-.5,86.77-16.85,118.33-16.35,31.56-35.62,18.26-67.3,4.4-31.68-13.87-105.24-98.65-106.86-122.04-1.61-23.4,9.47-44.3,26.33-66.09Z"/><path class="c" d="m1350.62,1049.62s-38.61-16.07-50.86-11.5c-12.25,4.56-35.67,25.82-36.26,31.26-.58,5.44,3.78,32.64,6.71,38.94,2.93,6.3,26.36,19.75,33.28,20.9,6.92,1.15,28.22-6.01,33.28-8.3,5.06-2.29,13.31-15.75,15.18-26.91,1.86-11.17,3.73-34.93-1.33-44.38Zm-9.94,45.76c-1.3,8.85-7.06,19.51-10.59,21.32-3.53,1.81-18.39,7.49-23.22,6.58-4.83-.91-21.18-11.57-23.22-16.56s-5.09-26.54-4.68-30.85,19.29-13.62,27.83-17.23c8.55-3.61,32.95,1.58,32.95,1.58,3.53,7.49,2.23,26.31.93,35.16Z"/><path class="c" d="m1118.76,1117.5s.59,41.81,9.64,51.24c9.05,9.43,37.86,22.48,43.09,20.86,5.22-1.62,28.45-16.43,33.07-21.62,4.62-5.19,7.66-32.04,5.96-38.84-1.7-6.81-16.73-23.51-20.84-27.25-4.11-3.73-19.74-5.96-30.73-3.24-10.99,2.72-33.54,10.45-40.2,18.85Zm45.94-9.05c8.63-2.32,20.71-1.27,23.77,1.25,3.07,2.52,14.17,13.91,15.26,18.7s-2.21,24.03-5.97,27.89-22.33,15.21-26.45,16.55-20.16-12.29-26.87-18.7c-6.71-6.41-11.64-30.87-11.64-30.87,5.47-6.21,23.26-12.5,31.9-14.82Z"/><path class="c" d="m828.97,979.03s-11.49-33.24-20.98-38.82c-9.49-5.58-35.23-9.8-38.85-7.38-3.61,2.42-17.68,19.23-19.89,24.36-2.2,5.13-2.48,60.42.63,65.48,3.11,5.07,24.15-18.04,28.32-15.94,4.17,2.09,16.85.51,24.63-4.02,7.78-4.54,23.2-15.55,26.14-23.68Zm-33.17,17.1c-6.07,3.71-15.69,5.47-18.73,4.11-3.04-1.35-14.64-8.05-16.74-11.64s-4.63-19.65-2.74-23.54,13.27-16.94,16.11-18.89,18.84,5.47,25.73,9.14c6.88,3.67,17.15,22.13,17.15,22.13-2.59,6.13-14.71,14.97-20.78,18.68Z"/><path class="c" d="m756.43,893.85c-.1.08-.21.13-.34.16-3.36.65-6.86.57-10.13-.48-.02,0-.04-.02-.06-.02,9.9,26.35-.75,115.58-8.93,153.22-8.51,39.17-25,49.43-48.56,58.87-16,6.41-81.36,30.21-88.27,29.59-26.86-2.43-79.31-96.68-81.1-119.6s51.08-117.94,65.87-126.69c0,0,79.29-23.2,108.86-24.45,8.57-.36,15.42-.15,21.13.86-.82-1.19-1.44-2.51-1.7-3.82-.62-1.55-1.08-3.17-1.42-4.82-6.79-1.18-14.29-1.55-22.64-1.17-32.41,1.47-116.86,34.86-116.86,34.86-16.2,10.31-74.14,122.26-72.18,149.26,1.96,27.01,59.41,138.46,88.87,140.92s74.63-16.69,96.73-34.86c22.1-18.17,48.61-23.57,57.94-69.72,8.87-43.87,22.83-149.6,12.81-182.1Z"/><path class="c" d="m1460.25,866.89c-14.73-16.69-29.7-18.24-49.93-6.98-20.23,11.26-65.72,64.48-65.72,64.48-7.77,13.36-17.2,121.77-9.35,142.97,7.85,21.2,71.61,93.34,90.93,86.17,19.32-7.18,43.33-36.68,52.93-58.22s25.12-34.14,19.76-74.31c-5.36-40.17-23.89-137.41-38.61-154.1Zm29.9,130.98c4.17,34.28-6.74,47.52-19.12,64.22-15.74,21.22-34.15,45.02-48.84,51.33-17.29,7.42-63.63-58.17-70.37-76.12-6.74-17.95,6.74-97.86,13.99-109.52,0,0,28.5-55.35,46.98-65.55,18.48-10.2,32-9.28,45.04,4.63,13.04,13.91,28.15,96.73,32.33,131.01Z"/><path class="c" d="m964.95,741.72c-15.15-17.9-118.47-76.31-152.21-68.74s-96.24,69.23-110.47,157.12c-7.3,45.08,45.66,107.53,45.66,107.53,53.03,10.31,102.62,6.87,129.62.98,23.35-5.09,56.53-92.96,67.27-118.33,10.8-25.53,35.28-60.66,20.13-78.56Zm-66.78,54.01c-.31.86-.62,1.72-.95,2.59-.65,1.74-1.33,3.49-2.05,5.25-1.08,2.64-2.23,5.29-3.45,7.94-3.26,7.06-7.03,14.04-11.24,20.44-2.63,4-5.44,7.78-8.4,11.2-1.18,1.37-2.39,2.68-3.63,3.93-1.85,1.87-3.75,3.6-5.71,5.16-1.3,1.04-2.63,2-3.97,2.88-4.04,2.63-8.27,4.51-12.65,5.41-23.41,4.82-92.76,45.2-113.42,27.99,0,0-19.04-17.42-24.55-52.54s71.83-150.04,105.56-157.61,76.18,31.69,91.33,49.59c15.15,17.9,2.39,41.81-6.87,67.76Z"/><path class="c" d="m854.76,683.3c2.75,1.15,5.47,2.43,7.95,4.06-.23-.29-.47-.58-.74-.84-1.81-1.74-4.66-3.04-7.21-3.22Z"/><path class="c" d="m915.78,576.54c-13.73-16.15-37.39-13.09-67.97-6.26-30.58,6.83-56.95,42.38-115.6,97.31-38.92,36.45-22.34,87.27-22.34,87.27,9.2,1.78,18.33,2.58,27.25,2.69.84-.83,1.72-1.61,2.67-2.31.26-.19.58-.18.86-.06.23-.35.47-.69.72-1.02.54-2.06,1.15-4.11,1.85-6.13,2.51-7.22,6.12-13.96,10.13-20.45,3.77-6.1,8-11.92,12.77-17.28,4.92-5.52,10.33-11.03,16.93-14.5,2.41-1.27,4.92-2.31,7.4-3.41,1.31-4.4,4-8.36,7.78-11.06,3.46-2.47,7.48-3.39,11.39-2.85.33-.22.67-.42,1.03-.61,2.47-1.25,5.23-1.82,7.97-2.11,11.11-1.17,22.02,2.04,32.27,5.99,1.41-.41,2.87-.59,4.34-.43,2.96.33,6.23,1.82,8.33,3.96,1.35,1.37,2.12,3,2.57,4.76.03.03.07.07.1.1,3.57-8.38,6.7-16.35,9.34-22.56,9.79-23.04,53.92-74.89,40.2-91.05Zm-33.94,1.56c-7.32,9.94-34.56,44.07-51.55,62.23-10.39,11.11-14.73,21.73-30.32,30.82-18.71,10.91-65.06,51.67-87.15,45.04,0,0,.74-19.52,21.66-41.41,22.16-23.19,83.65-92.79,114.22-99.63,30.58-6.83,38.3-4.05,33.14,2.95Z"/><path class="c" d="m719.98,788.75c.4-1.11.83-2.22,1.28-3.32,0-.02,0-.05,0-.07-1.07,2.31-1.87,4.71-2.46,7.16.36-1.27.74-2.53,1.19-3.78Z"/><path class="c" d="m710.95,850.84c-.44-4.91-.27-9.9.43-14.78-.04-1.66-.05-3.32,0-4.98.24-7.57,1.6-15.04,3.32-22.39.25-1.05.51-2.09.76-3.14-.02-2.11.03-4.21.21-6.31.52-6.1,2.11-12.02,5.12-17.37.42-.74,1.62-.59,1.83.24,0,.03.01.06.02.1.23-.5.46-.99.7-1.49.24-.71.51-1.41.82-2.11,1.29-2.91,2.72-5.78,4.25-8.57.75-1.38,1.54-2.78,2.38-4.17,1.05-9.94.7-19.12-6.02-22.55-11.29-5.77-35.75-19.85-66.28,9.59-14.06,13.56-38.68,52.75-30.38,98.49,4.26,23.46,16.61,30.31,16.61,30.31,28.76-5.15,53.56-15.83,67.3-23.91-.1-.43-.19-.87-.28-1.31-.73-1.77-.93-3.7-.78-5.64Zm-11.95-68.01c-.26,15.37-7.78,28.46-15.98,41.9-15.75,25.83-41.45,44.46-50.72,28.38-9.27-16.08,11.11-87.44,27.68-97.77,16.58-10.33,19.15-12.75,30.44-6.98s8.82,19.96,8.58,34.46Z"/><path class="c" d="m1282.42,1106.48c-.47-8.21-.68-26.55-24.76-32.62-11.09-2.79-38.34-2.16-59.02,18.72-10.61,10.71-10.36,19.88-10.36,19.88,11.76,14.43,25.28,24.34,33.42,28.65,7.04,3.72,32.63-13.01,40.32-17.59,7.74-4.61,20.87-8.84,20.41-17.05Zm-27.76.13c-7.86,5.36-16.76,5.95-26.02,6.31-17.82.68-34.97-6.63-29.61-17.43,5.36-10.8,47.63-25.25,57.84-19.93,10.21,5.32,12.21,5.85,12.68,14.06.47,8.21-7.46,11.94-14.88,17Z"/><path class="c" d="m1429.52,1442.33c2.8-12.37,10.39-39.55-25.69-61.85-16.62-10.27-60.68-24.43-102.95-5.07-21.68,9.93-25.26,23.6-25.26,23.6,12.66,27.8,30.1,49.93,41.32,60.79,9.71,9.39,58.07-1.12,72.4-3.62,14.43-2.51,37.37-1.48,40.17-13.85Zm-44.66-15.19c-14.95,3.55-29.5-.5-44.55-5.11-28.92-8.87-53.33-29.17-40.05-42.13,13.28-12.96,87.47-10.87,101.58,2.64,14.11,13.51,17.09,15.4,14.29,27.76-2.8,12.37-17.16,13.49-31.27,16.84Z"/><path class="c" d="m788.45,1442.33c2.8-12.37,10.39-39.55-25.69-61.85-16.62-10.27-60.68-24.43-102.95-5.07-21.68,9.93-25.26,23.6-25.26,23.6,12.66,27.8,30.1,49.93,41.32,60.79,9.71,9.39,58.07-1.12,72.4-3.62,14.43-2.51,37.37-1.48,40.17-13.85Zm-44.66-15.19c-14.95,3.55-29.5-.5-44.55-5.11-28.92-8.87-53.33-29.17-40.05-42.13,13.28-12.96,87.47-10.87,101.58,2.64,14.11,13.51,17.09,15.4,14.29,27.76-2.8,12.37-17.16,13.49-31.27,16.84Z"/><path class="b" d="m1134.92,904.41h152.98s.98,79.96-76.49,79.96-76.49-79.96-76.49-79.96Z"/><circle class="c" cx="1211.41" cy="938.71" r="34.62"/><path class="b" d="m918.4,904.41h152.98s.98,79.96-76.49,79.96-76.49-79.96-76.49-79.96Z"/><circle class="c" cx="994.9" cy="938.71" r="34.62"/></svg>