<?xml version="1.0" encoding="UTF-8"?><svg id="Ebene_1" xmlns="http://www.w3.org/2000/svg" viewBox="0 0 1365.1 800.85"><defs><style>.cls-1{fill:#797979;}.cls-1,.cls-2,.cls-3{stroke-width:0px;}.cls-3{fill:#7a7a7a;}</style></defs><path class="cls-2" d="m573.55,730.53c68.48,15.32,135.88,43.84,207.8,16.95,37.47-20.04,74.45-41.06,112.57-59.77,23.92-11.74,48.92-25.67,74.56-28.52,39.82-4.44,81.96,6.5,120.64-1.34,59.05-11.96,115.98-34.37,173.82-52.34l.71.84c-13.9,18.68-29.6,36.31-41.36,56.25-35.07,59.48-85.68,88.22-154.83,96.3-57.63,6.74-113.76,26.35-170.55,40.26-2.36,5.18-41.33-3.09-58.63-3.43-95.53-1.92-191.6,3.78-283.9-29.12,6.39-12.02,12.79-24.04,19.18-36.07Z"/><path class="cls-2" d="m1131.79,208.67c71.09,86.15,143.8,171.03,212.66,258.92,41.42,52.87,19.42,98.98-56.2,129.01-8.2,3.25-16.4,6.49-24.61,9.74,0,0-.71-.84-.71-.83,27.12-70.1-15.23-120.53-56.93-162.64-50.84-51.34-101.4-100.77-131.02-167.81,3.04-6.3,6.08-12.6,9.12-18.9,15.89-15.83,31.78-31.66,47.68-47.49Z"/><path class="cls-2" d="m545.25,766.66c-45.85-7.47-91.61-15.6-137.58-22.28-118.87-17.26-221.37-72.68-320.73-135.87-12.95-8.23-27.3-14.27-41-21.32-7.11-9.77-9.97-21.36-17.08-31.14,43.04,13.13,84.47,22.68,124.36,42.24,110.57,54.21,223.1,46.93,337.75,21.45,4.04-.9,8.74,1.19,15.96,2.34-1.7,6.65-1.61,13.17-4.7,17.34-26.68,36.09-22.46,56.69,17.88,74.4,16.98,7.46,35.58,11.22,53.44,16.68-6.39,12.04-12.79,24.06-19.18,36.08-3.04-.04-6.08-.01-9.12.07Z"/><path class="cls-2" d="m1084.12,256.16c-4.44-1.24-11.85-1.32-12.87-3.91-61.39-155.78-47.37-136.11-62.42-162.25,54.04,26.02,101.19,59.2,122.97,118.66-15.89,15.83-31.78,31.66-47.68,47.49Z"/><path class="cls-2" d="m1027.23,360.17v34.22c-16.53-9.49-30.75-19.21-46.19-26.25-58-26.45-92.05,8.91-123.81,49.29-3.17-.2-6.33-.4-9.5-.6-2.68-6.58-5.35-13.17-8.03-19.75-3.12-6.07-6.24-12.15-9.36-18.22-3.58-3.92-7.15-7.85-10.73-11.77-9.08-3.08-18.16-6.16-27.24-9.23-80.7-17.71-159.95,40.73-170.04,125.4-12-5.02-29.49-6.61-35.13-15.61-49.11-78.41-129.28-108.06-209.5-138.9-23.97-9.21-46.17-23.01-69.19-34.7,58.89,13.79,118.2,26.03,176.56,41.79,66.35,17.92,130.93,22.5,197.78-.31,48.47-16.54,99.52-25.71,149.67-37.04,10.04-2.27,22.1-1.86,31.75,1.52,60.62,21.21,93.39,4.65,115.74-57.91,7.71-21.58,19.14-41.82,28.87-62.68,4.14,44.56,8.28,89.13,12.42,133.7.93,9.33,1.86,18.66,2.77,27.99,1.04,6.35,2.09,12.7,3.14,19.05Z"/><path class="cls-3" d="m819.62,367.09c3.57,3.92,7.15,7.85,10.72,11.77-3.57-3.92-7.15-7.85-10.72-11.77Z"/><path class="cls-1" d="m1027.23,360.17c-1.05-6.35-2.1-12.7-3.14-19.05,1.05,6.35,2.1,12.7,3.14,19.05Z"/><path class="cls-2" d="m48.63,570.73c-2.5,40.91-44.36-66.64-46.57-81.21-20.01-131.92,111.91-237.95,127.96-250.48,18.76-42.22,64.39-57.95,101.32-80.33,58.26-45.32,153.84-107.11,283.61-137.88,214.23-50.8,475.94-4.53,518.39,93.76-31.76-73.55-455.51-128.33-628.09-38.54C278.12,142.18,63.03,334.83,48.63,570.73Z"/></svg>