<?xml version="1.0" encoding="UTF-8"?><svg xmlns="http://www.w3.org/2000/svg" viewBox="0 0 2000 2000"><defs><style>.d{stroke-width:0px;}.e{fill:#fff;stroke:#000;stroke-linejoin:round;stroke-width:9.17px;}</style></defs><g id="b"><path class="d" d="m889.55,1030.34c-3.85-5.33-7.42-9.92-10.61-14.74-10.26-15.53-18.67-31.9-21.89-50.48-4.72-27.29,4.37-50.19,22.73-69.94,33.88-36.45,90.58-30.98,116.92,11.29,1.09,1.75,1.37,4.82.64,6.75-5.27,14-11.11,27.79-16.33,41.81-2.48,6.66-4.76,13.6-1.67,20.87,2.59,6.08,7.13,9.51,13.65,10.2,11.48,1.21,21.31-3.24,30.2-9.76,5.98-4.39,11.31-9.66,17.36-14.9,1.09,1.23,2.28,2.54,3.43,3.88,21.76,25.44,43.48,50.92,65.31,76.31,4.39,5.11,7.05,10.61,5,17.36-3.9,12.83-19.12,16.57-28.21,6.64-12.59-13.76-24.72-27.95-37.04-41.96-1.87-2.13-3.73-4.27-5.59-6.4-2.48-2.83-5.4-5.24-8.92-2.17-3.45,3.01-1.75,6.24.8,9.14,11.23,12.75,22.42,25.53,33.63,38.31,2.97,3.38,6,6.71,8.84,10.19,6.08,7.47,5.3,17.75-1.69,23.79-6.95,6-16.75,5.42-23.25-1.85-14.22-15.89-28.23-31.97-42.33-47.96-.99-1.12-1.96-2.83-3.17-3.06-2.04-.39-4.96-.59-6.23.56-1.24,1.12-1.43,4.12-1.07,6.1.29,1.59,2.07,2.93,3.27,4.31,13.71,15.67,27.54,31.24,41.13,47.01,7.18,8.33,5.8,19.42-2.76,25.32-5.65,3.89-13.13,3.78-18.78-.1-3.38-2.32-4.38-4.07-.74-7.57,12.47-11.99,8.94-31.72-6.74-38.43-2.97-1.27-6.44-1.68-9.71-1.87-2.82-.16-4.05-.94-4.57-3.89-1.82-10.34-8.57-17.16-19.14-19.07-3.71-.67-5.23-1.83-5.6-5.83-1.04-11.48-10.01-19.83-21.57-20.35-3.52-.16-5.09-.8-5.76-4.79-3.02-17.97-23.79-25.52-37.78-13.86-7.14,5.96-13.98,12.28-21.76,19.15Z"/><path class="d" d="m1119.81,1036.69c-1.79-1.68-2.83-2.49-3.67-3.46-22.07-25.84-44.09-51.72-66.22-77.51-2.38-2.77-3.32-5.14-.77-8.27,1.13-1.39,1.88-3.16,2.53-4.86,4.01-10.41,12.18-15.89,22.35-19.04,1.75-.54,3.54-.94,5.3-1.44,3.13-.88,5.06-2.91,4.44-6.2-.62-3.25-3.12-4.88-6.34-4.2-14.4,3.02-26.99,8.96-33.7,23.08-7.04,14.81-16.66,27.36-31.08,35.49-4.65,2.62-10.15,4.29-15.45,5.05-6.77.97-9.58-2.57-8.12-9.4.86-4.03,2.42-7.93,3.91-11.8,3.95-10.23,8.05-20.41,12.08-30.6.98-2.47,1.49-5.28,2.99-7.38,13.38-18.71,28.72-35.43,51.72-41.93,28.33-8.01,53.19-.75,73.58,20.23,20.64,21.24,29.39,46.44,22.57,76-3.83,16.63-11.53,31.55-21.03,45.56-4.65,6.86-9.77,13.4-15.12,20.69Z"/><path class="d" d="m990.91,1081.15c-.93,1.57-2.17,5.17-4.61,7.52-7.52,7.26-15.41,14.16-23.34,20.98-5.78,4.98-13.09,4.53-17.88-.71-4.65-5.09-4.49-12.91.88-17.91,8.03-7.46,16.29-14.68,24.61-21.81,4.04-3.46,8.79-3.83,13.53-1.43,4.56,2.32,6.7,6.25,6.81,13.36Z"/><path class="d" d="m966.9,1053.34c-1.62,2.95-2.66,6.52-4.97,8.75-7.79,7.51-15.9,14.71-24.17,21.69-5.83,4.92-13.35,4.14-17.86-1.23-4.45-5.3-3.91-12.91,1.59-17.95,7.74-7.09,15.62-14.02,23.51-20.94,4.18-3.66,9.07-4.29,13.98-2,4.57,2.12,7.05,5.97,7.92,11.69Z"/><path class="d" d="m903.33,1063.08c-6.32-.3-10.16-2.58-12.37-7.19-2.3-4.81-2.02-9.83,1.76-13.46,8.63-8.27,17.51-16.32,26.76-23.88,5.04-4.12,11.99-2.73,16.2,2.03,4.28,4.84,4.65,12.16-.15,16.75-8.51,8.15-17.46,15.85-26.45,23.48-1.76,1.49-4.51,1.81-5.75,2.28Z"/><path class="d" d="m1019.05,1104.17c-.91,1.58-2.09,5.23-4.53,7.57-7.65,7.37-15.67,14.38-23.75,21.28-5.79,4.95-13.11,4.37-17.83-.97-4.65-5.26-4.31-12.76,1.2-17.87,7.8-7.23,15.77-14.26,23.78-21.25,4.13-3.6,9.01-4.36,13.95-1.96,4.52,2.19,6.9,6.06,7.17,13.2Z"/></g><g id="c"><path class="d" d="m567.73,1134.22c-.82-19.21-38.82-37.5-59.26-39.8-20.43-2.29-70.06,6.39-84.07,17.37-14.01,10.98-36.08,33.76-41.39,42.39-5.31,8.64,6.46,38.06,6.46,38.06,10.71,13.89,54.43,22.07,77.32,22.07s69.06.82,79.69-11.03c10.63-11.85,22.07-49.86,21.25-69.06Zm-25.1,67.88c-9.87,6.97-52.78,6.49-74.04,6.49s-61.89-4.81-71.84-12.98c0,0,32.09-41.44,45.11-47.9,13.02-6.46,49.67-15.24,68.65-13.89,18.98,1.35,47.05,17.3,47.81,28.61.76,11.3-5.82,32.71-15.7,39.68Z"/><path class="d" d="m337.82,753.98c.27.22.53.44.8.67.89.62,1.76,1.25,2.61,1.92,2.58,2,5,4.21,7.24,6.59-.71-1.21-1.44-2.4-2.25-3.55-3.86-5.51-9.55-9.05-15.84-11.22,2.63,1.71,5.1,3.67,7.44,5.59Z"/><path class="d" d="m360.44,786c-.22-1.4-.62-2.74-1.11-4.05.55,2.07.83,4.22.57,6.32-.12.97-.34,1.96-.66,2.95.02.81.02,1.63-.04,2.43.31.18.63.37.94.55.4-2.72.72-5.48.29-8.19Z"/><path class="d" d="m314.42,739.09c-1.1-1.06-2.65-1.91-4.23-2.36,0,.15,0,.31.02.46,1.67.76,3.31,1.6,4.83,2.61-.19-.25-.39-.49-.62-.71Z"/><path class="d" d="m585.74,669.55c-6.58-12.9-18.12-22.59-31.97-26.83l-85.72-26.26c-13.27-4.07-27.61-2.81-39.97,3.5l-73.48,37.5c-9.48,4.84-17.3,12.4-22.46,21.71l-15.33,27.66c-4.06,7.33-6.34,15.51-6.66,23.88l-.03.8c-.04,1.17-.03,2.34,0,3.5,2.08.49,4.19,1.59,5.64,3.06,1.12,1.14,1.77,2.5,2.14,3.96.57.54,1.1,1.1,1.58,1.7,1.52.28,2.99.71,4.43,1.27,4.36.86,8.62,2.2,12.57,4.21,2.81,1.43,5.52,3.24,7.78,5.46,2.35,2.31,4.17,5.09,5.83,7.92,1.68,2.87,3.22,5.83,5.08,8.6,2,2.96,3.98,5.97,5.37,9.27,1.47,3.5,1.96,7.04,1.62,10.81-.11,1.28-.29,2.55-.47,3.82,15.01,8.54,29.84,15.72,39.34,17.11,29.84,4.38,100.96-15.61,139.83-27.62,16.54-5.11,29.58-17.92,35-34.36l13.05-39.62c4.46-13.55,3.33-28.33-3.16-41.03Zm-8.55,15.19l-11.33,24.93c-4.7,10.35-16.03,18.41-30.39,21.63-33.76,7.56-95.51,20.14-121.43,17.38-13.42-1.43-39.1-12.48-57.74-21.21-13.77-6.46-21.84-17.69-21.21-29.56l.03-.5c.28-5.27,2.26-10.42,5.79-15.03l13.31-17.41c4.48-5.86,11.27-10.62,19.51-13.66l63.59-30.04c10.74-3.97,21.88-3.48,33.41-.92l75.97,21.68c12.03,2.67,22.05,8.76,27.76,16.89h0c5.63,8,6.62,17.3,2.74,25.83Z"/><path class="d" d="m787.55,882.79h0c7.57-12.35,9.81-27.24,6.2-41.27l-22.34-86.82c-3.46-13.44-12.01-25.02-23.85-32.27l-70.34-43.1c-9.08-5.56-19.61-8.29-30.24-7.83l-31.59,1.36c-8.37.36-16.54,2.68-23.84,6.78l-.7.39c-16.48,9.23-26.85,26.47-27.32,45.35-.64,25.55-.18,59.94,5.95,74.31,11.84,27.74,66.01,77.97,96.54,104.86,12.99,11.44,30.72,15.88,47.57,11.92l40.6-9.55c13.89-3.27,25.9-11.95,33.35-24.11Zm-17.42.64l-27.18,3.35c-11.28,1.39-24.07-4.06-34.31-14.64-24.07-24.85-67.03-70.96-78.2-94.5-5.79-12.2-9.76-39.87-12.04-60.33-1.68-15.12,3.69-27.86,14.15-33.52l.44-.24c4.64-2.51,10.06-3.51,15.84-2.91l21.8,2.27c7.34.76,14.94,4.07,21.84,9.51l58.81,38.56c8.99,7.09,14.39,16.85,18.22,28.02l21.16,76.12c4,11.65,4.03,23.38.09,32.5h0c-3.88,8.98-11.3,14.67-20.6,15.82Z"/><path class="d" d="m415.12,1007.14c-12.61-14.9-96.97-30.82-125.05-24.52-28.08,6.3-80.17,30.49-79.69,60.07.61,38.01,52.72,102.37,52.72,102.37,76.01,42.91,102.5,26.08,121.98,22.07,19.48-4.01,49.28-45.27,49.86-68.2.57-22.92-7.21-76.89-19.82-91.79Zm-9.69,95.58c-.57,22.92-30.37,64.18-49.86,68.2-19.48,4.01-75.65-16.62-92.84-30.95,0,0-42.41-58.45-46.99-87.68-4.58-29.23,14.9-29.8,42.98-36.1,28.08-6.3,119.2,14.33,131.81,29.23,12.61,14.9,15.47,34.38,14.9,57.31Z"/><path class="d" d="m392.37,1174.6c-15.44-16.95-64.98-28.63-82.33-18.91-17.35,9.72-48.4,14.34-77.76,96.54,0,0,2.75,82.76,27.17,111.89,19,22.67,74.21,6.86,99.57-6.76,25.35-13.62,78.7-80.88,78.47-100.4s-29.67-65.41-45.11-82.36Zm1.47,69.54c.22,19.52-55.15,94.76-80.5,108.38-25.35,13.62-40.46,25.94-56.13.85-15.67-25.09-21.88-97.04-21.88-97.04,3.62-22.09,32.56-74.45,49.92-84.17,17.35-9.72,66.89,1.96,82.33,18.91,15.44,16.95,26.03,33.56,26.25,53.07Z"/><path class="d" d="m547.03,1206.68c1.34,19.47,59.91,82.24,86.28,93.78,26.36,11.54,82.66,22.87,99.79-1.25,22-31,18.1-113.71,18.1-113.71-35.87-79.58-67.18-81.69-85.26-89.99-18.08-8.3-66.52,7.32-80.55,25.45-14.03,18.14-39.7,66.25-38.36,85.72Zm64.39-71.3c14.03-18.14,62.47-33.75,80.55-25.45,18.08,8.3,51.13,58.17,56.51,79.89,0,0-.42,72.21-14.02,98.49-13.6,26.27-29.65,15.2-56.01,3.66-26.36-11.54-87.59-82.1-88.94-101.57-1.34-19.47,7.88-36.87,21.91-55.01Z"/><path class="d" d="m721.12,1041.3s-32.13-13.37-42.33-9.57c-10.19,3.8-29.69,21.49-30.18,26.02-.49,4.53,3.15,27.16,5.58,32.41,2.44,5.24,21.94,16.44,27.7,17.39,5.76.95,23.49-5,27.7-6.91,4.21-1.91,11.08-13.11,12.63-22.4,1.55-9.29,3.1-29.07-1.11-36.93Zm-8.27,38.08c-1.08,7.36-5.88,16.24-8.81,17.75-2.94,1.51-15.31,6.23-19.33,5.47-4.02-.76-17.63-9.63-19.33-13.78s-4.24-22.09-3.9-25.67c.34-3.59,16.05-11.33,23.16-14.34,7.11-3.01,27.43,1.32,27.43,1.32,2.94,6.23,1.86,21.9.77,29.26Z"/><path class="d" d="m528.15,1097.8s.49,34.8,8.02,42.65c7.53,7.85,31.51,18.71,35.86,17.36,4.35-1.35,23.68-13.68,27.52-17.99,3.84-4.32,6.38-26.66,4.96-32.33-1.41-5.67-13.92-19.57-17.34-22.68-3.42-3.11-16.43-4.96-25.57-2.7-9.14,2.27-27.91,8.7-33.46,15.69Zm38.24-7.53c7.19-1.93,17.23-1.06,19.79,1.04,2.55,2.1,11.8,11.57,12.7,15.56.9,3.99-1.84,20-4.97,23.21-3.14,3.21-18.59,12.66-22.02,13.77-3.43,1.11-16.78-10.23-22.36-15.56-5.58-5.33-9.69-25.69-9.69-25.69,4.55-5.17,19.36-10.4,26.55-12.33Z"/><path class="d" d="m286.96,982.54s-9.56-27.67-17.46-32.31c-7.9-4.64-29.33-8.16-32.33-6.14-3.01,2.01-14.72,16.01-16.55,20.28-1.83,4.27-2.06,50.28.53,54.5,2.59,4.22,20.1-15.01,23.57-13.27,3.47,1.74,14.02.43,20.5-3.35,6.48-3.78,19.31-12.94,21.75-19.71Zm-27.6,14.23c-5.05,3.09-13.06,4.55-15.59,3.42-2.53-1.12-12.18-6.7-13.94-9.69-1.75-2.99-3.86-16.35-2.28-19.59s11.05-14.1,13.4-15.72,15.68,4.56,21.41,7.61c5.73,3.05,14.27,18.42,14.27,18.42-2.16,5.1-12.24,12.46-17.29,15.55Z"/><path class="d" d="m226.58,911.65c-.08.06-.17.11-.29.13-2.8.54-5.71.47-8.43-.4-.02,0-.04-.01-.05-.02,8.24,21.93-.62,96.2-7.43,127.52-7.09,32.6-20.8,41.14-40.41,49-13.32,5.34-67.71,25.15-73.47,24.63-22.35-2.02-66.01-80.47-67.5-99.55-1.49-19.08,42.51-98.16,54.82-105.44,0,0,65.99-19.31,90.6-20.35,7.13-.3,12.83-.12,17.58.72-.68-.99-1.2-2.09-1.42-3.18-.52-1.29-.9-2.64-1.18-4.01-5.65-.98-11.9-1.29-18.85-.98-26.97,1.23-97.26,29.01-97.26,29.01-13.49,8.58-61.71,101.76-60.07,124.23,1.63,22.48,49.45,115.24,73.97,117.29,24.52,2.04,62.12-13.89,80.51-29.01,18.39-15.12,40.46-19.62,48.22-58.03,7.38-36.51,19-124.51,10.66-151.56Z"/><path class="d" d="m812.37,889.22c-12.26-13.9-24.72-15.19-41.56-5.81-16.84,9.37-54.7,53.66-54.7,53.66-6.47,11.12-14.32,101.35-7.78,118.99,6.54,17.64,59.6,77.69,75.68,71.72,16.08-5.97,36.07-30.53,44.05-48.46s20.91-28.42,16.44-61.85c-4.46-33.43-19.88-114.36-32.14-128.26Zm24.89,109.01c3.47,28.53-5.61,39.55-15.91,53.45-13.1,17.66-28.42,37.47-40.65,42.72-14.39,6.18-52.96-48.42-58.57-63.36-5.61-14.94,5.61-81.45,11.65-91.15,0,0,23.72-46.06,39.1-54.56,15.38-8.49,26.63-7.72,37.48,3.85,10.85,11.57,23.43,80.51,26.9,109.04Z"/><path class="d" d="m400.13,785.04c-12.61-14.9-98.6-63.52-126.68-57.21s-80.1,57.62-91.95,130.77c-6.08,37.52,38.01,89.5,38.01,89.5,44.14,8.58,85.41,5.72,107.89.82,19.44-4.24,47.05-77.37,55.99-98.49,8.99-21.25,29.36-50.49,16.76-65.39Zm-55.58,44.95c-.26.72-.52,1.43-.79,2.16-.54,1.44-1.11,2.9-1.71,4.37-.89,2.2-1.85,4.41-2.87,6.61-2.71,5.87-5.85,11.69-9.36,17.02-2.19,3.33-4.53,6.47-6.99,9.32-.99,1.14-1.99,2.23-3.02,3.27-1.54,1.56-3.12,3-4.75,4.3-1.08.86-2.19,1.67-3.31,2.4-3.36,2.19-6.88,3.75-10.53,4.51-19.48,4.01-77.21,37.62-94.4,23.29,0,0-15.85-14.5-20.43-43.73-4.58-29.23,59.78-124.88,87.86-131.18s63.4,26.37,76.01,41.27c12.61,14.9,1.99,34.8-5.72,56.39Z"/><path class="d" d="m308.42,736.41c2.29.96,4.55,2.02,6.62,3.38-.19-.24-.39-.48-.62-.7-1.51-1.45-3.88-2.53-6-2.68Z"/><path class="d" d="m359.21,647.55c-11.43-13.45-31.12-10.9-56.57-5.21-25.45,5.69-47.4,35.28-96.21,80.99-32.39,30.34-18.6,72.63-18.6,72.63,7.66,1.48,15.26,2.15,22.68,2.24.7-.69,1.43-1.34,2.22-1.92.22-.16.48-.15.72-.05.19-.29.39-.57.6-.85.45-1.72.95-3.42,1.54-5.1,2.09-6.01,5.09-11.62,8.43-17.02,3.14-5.08,6.66-9.92,10.63-14.38,4.09-4.6,8.6-9.18,14.09-12.07,2-1.05,4.09-1.92,6.16-2.84,1.09-3.66,3.33-6.95,6.48-9.21,2.88-2.06,6.23-2.82,9.48-2.37.28-.18.56-.35.86-.51,2.06-1.04,4.35-1.52,6.63-1.76,9.24-.97,18.32,1.69,26.86,4.98,1.17-.34,2.39-.49,3.62-.35,2.46.27,5.19,1.51,6.93,3.29,1.12,1.14,1.77,2.5,2.14,3.96.03.03.06.06.09.08,2.97-6.98,5.57-13.61,7.77-18.78,8.15-19.18,44.88-62.33,33.45-75.78Zm-28.24,1.3c-6.1,8.27-28.77,36.68-42.91,51.8-8.65,9.24-12.26,18.08-25.23,25.65-15.57,9.08-54.15,43-72.54,37.49,0,0,.61-16.24,18.03-34.47,18.45-19.3,69.62-77.23,95.07-82.92,25.45-5.69,31.88-3.37,27.58,2.45Z"/><path class="d" d="m196.25,824.18c.33-.93.69-1.85,1.06-2.76,0-.02,0-.04,0-.06-.89,1.92-1.55,3.92-2.05,5.96.3-1.05.62-2.1.99-3.14Z"/><path class="d" d="m188.73,875.85c-.36-4.09-.22-8.24.36-12.3-.03-1.38-.04-2.77,0-4.15.2-6.3,1.33-12.52,2.76-18.64.2-.87.42-1.74.64-2.61-.02-1.75.02-3.5.17-5.25.43-5.08,1.75-10,4.26-14.46.35-.62,1.35-.49,1.52.2,0,.03.01.05.02.08.19-.41.38-.83.58-1.24.2-.59.42-1.18.68-1.75,1.07-2.42,2.27-4.81,3.53-7.14.63-1.15,1.28-2.32,1.98-3.47.88-8.27.58-15.91-5.01-18.77-9.4-4.8-29.76-16.52-55.16,7.98-11.7,11.29-32.2,43.9-25.29,81.98,3.54,19.53,13.83,25.23,13.83,25.23,23.93-4.29,44.58-13.17,56.02-19.9-.09-.36-.16-.73-.23-1.09-.6-1.47-.77-3.08-.65-4.7Zm-9.95-56.61c-.21,12.79-6.48,23.69-13.3,34.87-13.11,21.5-34.5,37-42.22,23.62-7.72-13.38,9.24-72.77,23.04-81.37,13.8-8.6,15.94-10.61,25.33-5.81,9.4,4.8,7.34,16.61,7.14,28.68Z"/><path class="d" d="m664.36,1088.62c-.39-6.83-.57-22.1-20.61-27.15-9.23-2.33-31.91-1.8-49.12,15.58-8.83,8.92-8.63,16.55-8.63,16.55,9.79,12.01,21.04,20.26,27.82,23.84,5.86,3.1,27.16-10.83,33.56-14.64,6.44-3.84,17.37-7.36,16.98-14.19Zm-23.1.11c-6.54,4.46-13.95,4.96-21.66,5.25-14.83.56-29.11-5.52-24.65-14.51,4.46-8.99,39.64-21.02,48.14-16.59,8.5,4.43,10.16,4.87,10.55,11.7.39,6.83-6.21,9.94-12.38,14.15Z"/><path class="d" d="m786.79,1368.15c2.33-10.29,8.65-32.92-21.38-51.47-13.83-8.55-50.5-20.33-85.68-4.22-18.05,8.26-21.02,19.64-21.02,19.64,10.53,23.14,25.05,41.56,34.39,50.59,8.08,7.82,48.33-.93,60.26-3.01,12.01-2.09,31.1-1.23,33.43-11.53Zm-37.17-12.64c-12.44,2.96-24.56-.41-37.08-4.26-24.07-7.38-44.39-24.27-33.33-35.06,11.06-10.79,72.8-9.05,84.54,2.19,11.75,11.24,14.22,12.82,11.89,23.11-2.33,10.29-14.28,11.23-26.02,14.02Z"/><path class="d" d="m253.23,1368.15c2.33-10.29,8.65-32.92-21.38-51.47-13.83-8.55-50.5-20.33-85.68-4.22-18.05,8.26-21.02,19.64-21.02,19.64,10.53,23.14,25.05,41.56,34.39,50.59,8.08,7.82,48.33-.93,60.26-3.01,12.01-2.09,31.1-1.23,33.43-11.53Zm-37.17-12.64c-12.44,2.96-24.56-.41-37.08-4.26-24.07-7.38-44.39-24.27-33.33-35.06,11.06-10.79,72.8-9.05,84.54,2.19,11.75,11.24,14.22,12.82,11.89,23.11-2.33,10.29-14.28,11.23-26.02,14.02Z"/><path class="e" d="m541.6,961.31h127.33s.82-66.55-63.66-66.55-63.66,66.55-63.66,66.55Z"/><circle class="d" cx="605.26" cy="932.77" r="28.81"/><path class="e" d="m361.39,961.31h127.33s.82-66.55-63.66-66.55-63.66,66.55-63.66,66.55Z"/><circle class="d" cx="425.06" cy="932.77" r="28.81"/><path class="d" d="m1457.18,1203.28c10.63,11.85,56.8,11.03,79.69,11.03,22.88,0,66.61-8.17,77.32-22.07,0,0,11.77-29.42,6.46-38.06-5.31-8.64-27.38-31.41-41.39-42.39-14.01-10.98-63.63-19.67-84.07-17.37-20.43,2.29-58.44,20.59-59.26,39.8-.82,19.21,10.63,57.21,21.25,69.06Zm-11.85-40.87c.76-11.3,28.83-27.26,47.81-28.61,18.98-1.35,55.64,7.43,68.65,13.89,13.02,6.46,45.11,47.9,45.11,47.9-9.95,8.18-50.57,12.98-71.84,12.98-21.26,0-64.17.48-74.04-6.49-9.87-6.97-16.46-28.38-15.7-39.68Z"/><path class="d" d="m1665.84,753.98c-.27.22-.53.44-.8.67-.89.62-1.76,1.25-2.61,1.92-2.58,2-5,4.21-7.24,6.59.71-1.21,1.44-2.4,2.25-3.55,3.86-5.51,9.55-9.05,15.84-11.22-2.63,1.71-5.1,3.67-7.44,5.59Z"/><path class="d" d="m1643.22,786c.22-1.4.62-2.74,1.11-4.05-.55,2.07-.83,4.22-.57,6.32.12.97.34,1.96.66,2.95-.02.81-.02,1.63.04,2.43-.31.18-.63.37-.94.55-.4-2.72-.72-5.48-.29-8.19Z"/><path class="d" d="m1689.24,739.09c1.1-1.06,2.65-1.91,4.23-2.36,0,.15,0,.31-.02.46-1.67.76-3.31,1.6-4.83,2.61.19-.25.39-.49.62-.71Z"/><path class="d" d="m1414.76,710.59l13.05,39.62c5.42,16.44,18.45,29.25,35,34.36,38.87,12.01,109.98,32.01,139.83,27.62,9.5-1.4,24.34-8.57,39.34-17.11-.18-1.27-.36-2.54-.47-3.82-.34-3.77.16-7.31,1.62-10.81,1.39-3.3,3.38-6.31,5.37-9.27,1.86-2.76,3.4-5.72,5.08-8.6,1.65-2.83,3.48-5.61,5.83-7.92,2.25-2.22,4.96-4.03,7.78-5.46,3.96-2.01,8.22-3.35,12.57-4.21,1.43-.56,2.91-.99,4.43-1.27.48-.6,1-1.17,1.58-1.7.38-1.46,1.02-2.82,2.14-3.96,1.44-1.47,3.56-2.56,5.64-3.06.03-1.16.05-2.33,0-3.5l-.03-.8c-.32-8.37-2.6-16.55-6.66-23.88l-15.33-27.66c-5.16-9.31-12.98-16.87-22.46-21.71l-73.48-37.5c-12.37-6.31-26.7-7.57-39.97-3.5l-85.72,26.26c-13.85,4.24-25.39,13.92-31.97,26.83-6.48,12.71-7.62,27.48-3.16,41.03Zm14.44-51.67h0c5.72-8.12,15.74-14.21,27.76-16.89l75.97-21.68c11.53-2.56,22.67-3.05,33.41.92l63.59,30.04c8.23,3.05,15.03,7.8,19.51,13.66l13.31,17.41c3.53,4.61,5.51,9.76,5.79,15.03l.03.5c.63,11.88-7.44,23.11-21.21,29.56-18.64,8.74-44.32,19.79-57.74,21.21-25.92,2.76-87.67-9.82-121.43-17.38-14.36-3.22-25.69-11.28-30.39-21.63l-11.33-24.93c-3.88-8.53-2.89-17.83,2.74-25.83Z"/><path class="d" d="m1249.47,906.9l40.6,9.55c16.85,3.96,34.58-.48,47.57-11.92,30.53-26.89,84.7-77.11,96.54-104.86,6.13-14.37,6.59-48.75,5.95-74.31-.47-18.88-10.84-36.12-27.32-45.35l-.7-.39c-7.31-4.1-15.48-6.42-23.84-6.78l-31.59-1.36c-10.64-.46-21.16,2.27-30.24,7.83l-70.34,43.1c-11.84,7.25-20.39,18.83-23.85,32.27l-22.34,86.82c-3.61,14.03-1.37,28.92,6.2,41.27h0c7.46,12.16,19.46,20.84,33.35,24.11Zm-36.54-39.29h0c-3.94-9.12-3.91-20.84.09-32.5l21.16-76.12c3.83-11.17,9.23-20.93,18.22-28.02l58.81-38.56c6.9-5.43,14.5-8.74,21.84-9.51l21.8-2.27c5.77-.6,11.2.39,15.84,2.91l.44.24c10.46,5.66,15.83,18.41,14.15,33.52-2.28,20.46-6.25,48.13-12.04,60.33-11.17,23.55-54.14,69.66-78.2,94.5-10.24,10.57-23.03,16.03-34.31,14.64l-27.18-3.35c-9.3-1.15-16.71-6.84-20.6-15.82Z"/><path class="d" d="m1568.72,1098.94c.57,22.92,30.37,64.18,49.86,68.2,19.48,4.01,45.97,20.84,121.98-22.07,0,0,52.1-64.36,52.72-102.37.48-29.58-51.61-53.77-79.69-60.07-28.08-6.3-112.44,9.62-125.05,24.52-12.61,14.9-20.39,68.87-19.82,91.79Zm44.41-53.52c12.61-14.9,103.73-35.53,131.81-29.23,28.08,6.3,47.56,6.88,42.98,36.1-4.58,29.23-46.99,87.68-46.99,87.68-17.19,14.33-73.35,34.96-92.84,30.95-19.48-4.01-49.28-45.27-49.86-68.2-.57-22.92,2.29-42.41,14.9-57.31Z"/><path class="d" d="m1566.18,1256.97c-.22,19.52,53.12,86.78,78.47,100.4,25.35,13.62,80.56,29.43,99.57,6.76,24.42-29.13,27.17-111.89,27.17-111.89-29.37-82.2-60.41-86.82-77.76-96.54-17.35-9.72-66.89,1.96-82.33,18.91-15.44,16.95-44.89,62.85-45.11,82.36Zm69.9-65.9c15.44-16.95,64.98-28.63,82.33-18.91,17.35,9.72,46.3,62.09,49.92,84.17,0,0-6.21,71.95-21.88,97.04-15.67,25.09-30.77,12.77-56.13-.85-25.35-13.62-80.72-88.87-80.5-108.38.22-19.52,10.81-36.12,26.25-53.07Z"/><path class="d" d="m1418.27,1120.97c-14.03-18.14-62.47-33.75-80.55-25.45-18.08,8.3-49.39,10.41-85.26,89.99,0,0-3.9,82.72,18.1,113.71,17.12,24.12,73.42,12.79,99.79,1.25,26.36-11.54,84.93-74.31,86.28-93.78,1.34-19.47-24.33-67.58-38.36-85.72Zm-4.12,69.43c-1.34,19.47-62.57,90.03-88.94,101.57-26.36,11.54-42.41,22.61-56.01-3.66-13.6-26.27-14.02-98.49-14.02-98.49,5.38-21.72,38.43-71.59,56.51-79.89,18.08-8.3,66.52,7.32,80.55,25.45,14.03,18.14,23.25,35.54,21.91,55.01Z"/><path class="d" d="m1281.43,1078.23c1.55,9.29,8.42,20.49,12.63,22.4,4.21,1.91,21.94,7.86,27.7,6.91,5.76-.95,25.26-12.15,27.7-17.39,2.44-5.24,6.07-27.88,5.58-32.41-.49-4.53-19.98-22.22-30.18-26.02-10.19-3.8-42.33,9.57-42.33,9.57-4.21,7.86-2.66,27.64-1.11,36.93Zm10.15-28.11s20.31-4.32,27.43-1.32c7.11,3.01,22.82,10.75,23.16,14.34.34,3.59-2.19,21.52-3.9,25.67s-15.31,13.03-19.33,13.78c-4.02.76-16.39-3.96-19.33-5.47-2.94-1.51-7.73-10.38-8.81-17.75-1.08-7.36-2.16-23.03.77-29.26Z"/><path class="d" d="m1442.05,1082.11c-9.14-2.27-22.15-.41-25.57,2.7-3.42,3.11-15.93,17.01-17.34,22.68-1.41,5.67,1.12,28.01,4.96,32.33,3.84,4.32,23.18,16.64,27.52,17.99,4.35,1.35,28.33-9.51,35.86-17.36,7.53-7.85,8.02-42.65,8.02-42.65-5.54-6.99-24.31-13.42-33.46-15.69Zm21.77,20.48s-4.1,20.36-9.69,25.69c-5.58,5.33-18.94,16.68-22.36,15.56-3.43-1.11-18.88-10.56-22.02-13.77-3.14-3.21-5.88-19.22-4.97-23.21.9-3.99,10.15-13.47,12.7-15.56,2.55-2.1,12.6-2.97,19.79-1.04,7.19,1.93,22,7.16,26.55,12.33Z"/><path class="d" d="m1738.46,1002.25c6.48,3.78,17.03,5.09,20.5,3.35,3.47-1.74,20.98,17.49,23.57,13.27,2.59-4.22,2.36-50.23.53-54.5-1.83-4.27-13.54-18.26-16.55-20.28-3.01-2.01-24.43,1.5-32.33,6.14-7.9,4.64-17.46,32.31-17.46,32.31,2.45,6.77,15.27,15.94,21.75,19.71Zm-11.44-21.03s8.55-15.37,14.27-18.42c5.73-3.05,19.05-9.23,21.41-7.61s11.82,12.49,13.4,15.72-.52,16.6-2.28,19.59-11.41,8.56-13.94,9.69c-2.53,1.12-10.53-.34-15.59-3.42-5.05-3.09-15.13-10.44-17.29-15.55Z"/><path class="d" d="m1777.08,911.65c.08.06.17.11.29.13,2.8.54,5.71.47,8.43-.4.02,0,.04-.01.05-.02-8.24,21.93.62,96.2,7.43,127.52,7.09,32.6,20.8,41.14,40.41,49,13.32,5.34,67.71,25.15,73.47,24.63,22.35-2.02,66.01-80.47,67.5-99.55,1.49-19.08-42.51-98.16-54.82-105.44,0,0-65.99-19.31-90.6-20.35-7.13-.3-12.83-.12-17.58.72.68-.99,1.2-2.09,1.42-3.18.52-1.29.9-2.64,1.18-4.01,5.65-.98,11.9-1.29,18.85-.98,26.97,1.23,97.26,29.01,97.26,29.01,13.49,8.58,61.71,101.76,60.07,124.23-1.63,22.48-49.45,115.24-73.97,117.29s-62.12-13.89-80.51-29.01c-18.39-15.12-40.46-19.62-48.22-58.03-7.38-36.51-19-124.51-10.66-151.56Z"/><path class="d" d="m1159.15,1017.47c-4.46,33.43,8.46,43.92,16.44,61.85,7.99,17.93,27.97,42.48,44.05,48.46,16.08,5.97,69.14-54.07,75.68-71.72,6.54-17.64-1.31-107.87-7.78-118.99,0,0-37.86-44.29-54.7-53.66-16.84-9.37-29.3-8.08-41.56,5.81-12.26,13.9-27.68,94.82-32.14,128.26Zm34.16-128.29c10.85-11.57,22.1-12.34,37.48-3.85,15.38,8.49,39.1,54.56,39.1,54.56,6.04,9.71,17.26,76.21,11.65,91.15-5.61,14.94-44.18,69.54-58.57,63.36-12.23-5.25-27.55-25.06-40.65-42.72-10.31-13.9-19.38-24.92-15.91-53.45,3.47-28.53,16.05-97.47,26.9-109.04Z"/><path class="d" d="m1620.29,850.42c8.93,21.12,36.55,94.25,55.99,98.49,22.48,4.9,63.75,7.76,107.89-.82,0,0,44.08-51.98,38.01-89.5-11.85-73.15-63.87-124.47-91.95-130.77-28.08-6.3-114.08,42.31-126.68,57.21-12.61,14.9,7.76,44.14,16.76,65.39Zm33.1-76.83c12.61-14.9,47.93-47.58,76.01-41.27,28.08,6.3,92.45,101.95,87.86,131.18s-20.43,43.73-20.43,43.73c-17.19,14.33-74.92-19.28-94.4-23.29-3.65-.75-7.17-2.31-10.53-4.51-1.12-.73-2.22-1.53-3.31-2.4-1.63-1.3-3.21-2.74-4.75-4.3-1.03-1.04-2.03-2.13-3.02-3.27-2.46-2.85-4.8-5.99-6.99-9.32-3.51-5.33-6.64-11.14-9.36-17.02-1.02-2.2-1.97-4.41-2.87-6.61-.6-1.46-1.17-2.92-1.71-4.37-.27-.72-.53-1.44-.79-2.16-7.71-21.59-18.33-41.5-5.72-56.39Z"/><path class="d" d="m1695.24,736.41c-2.29.96-4.55,2.02-6.62,3.38.19-.24.39-.48.62-.7,1.51-1.45,3.88-2.53,6-2.68Z"/><path class="d" d="m1677.91,723.33c2.2,5.17,4.8,11.8,7.77,18.78.03-.03.06-.06.09-.08.38-1.46,1.02-2.82,2.14-3.96,1.75-1.78,4.47-3.02,6.93-3.29,1.23-.14,2.45.02,3.62.35,8.53-3.29,17.61-5.96,26.86-4.98,2.28.24,4.57.71,6.63,1.76.3.15.58.33.86.51,3.25-.45,6.6.32,9.48,2.37,3.15,2.25,5.39,5.55,6.48,9.21,2.07.91,4.16,1.78,6.16,2.84,5.49,2.89,9.99,7.47,14.09,12.07,3.97,4.46,7.5,9.3,10.63,14.38,3.33,5.4,6.34,11.01,8.43,17.02.58,1.68,1.09,3.38,1.54,5.1.21.28.41.56.6.85.23-.1.5-.11.72.05.79.58,1.52,1.23,2.22,1.92,7.42-.09,15.02-.75,22.68-2.24,0,0,13.79-42.3-18.6-72.63-48.81-45.72-70.76-75.3-96.21-80.99-25.45-5.69-45.14-8.24-56.57,5.21-11.43,13.45,25.31,56.6,33.45,75.78Zm22.37-76.93c25.45,5.69,76.62,63.62,95.07,82.92,17.42,18.22,18.03,34.47,18.03,34.47-18.39,5.52-56.97-28.4-72.54-37.49-12.97-7.57-16.59-16.41-25.23-25.65-14.14-15.12-36.81-43.53-42.91-51.8-4.29-5.82,2.14-8.14,27.58-2.45Z"/><path class="d" d="m1807.42,824.18c-.33-.93-.69-1.85-1.06-2.76,0-.02,0-.04,0-.06.89,1.92,1.55,3.92,2.05,5.96-.3-1.05-.62-2.1-.99-3.14Z"/><path class="d" d="m1814.28,880.55c-.07.36-.15.73-.23,1.09,11.44,6.73,32.08,15.61,56.02,19.9,0,0,10.28-5.7,13.83-25.23,6.91-38.07-13.59-70.69-25.29-81.98-25.41-24.5-45.77-12.78-55.16-7.98-5.59,2.86-5.89,10.49-5.01,18.77.7,1.15,1.35,2.32,1.98,3.47,1.27,2.33,2.46,4.71,3.53,7.14.26.58.48,1.16.68,1.75.2.41.39.82.58,1.24,0-.03.01-.05.02-.08.17-.69,1.17-.82,1.52-.2,2.51,4.46,3.83,9.38,4.26,14.46.15,1.75.19,3.5.17,5.25.21.87.43,1.74.64,2.61,1.43,6.12,2.57,12.34,2.76,18.64.04,1.38.03,2.76,0,4.15.58,4.06.72,8.21.36,12.3.12,1.61-.05,3.22-.65,4.7Zm17.74-89.98c9.4-4.8,11.54-2.79,25.33,5.81,13.8,8.6,30.76,67.99,23.04,81.37-7.72,13.38-29.11-2.13-42.22-23.62-6.82-11.19-13.08-22.09-13.3-34.87-.2-12.07-2.25-23.88,7.14-28.68Z"/><path class="d" d="m1356.28,1102.81c6.4,3.81,27.7,17.74,33.56,14.64,6.78-3.58,18.03-11.84,27.82-23.84,0,0,.2-7.63-8.63-16.55-17.21-17.38-39.89-17.91-49.12-15.58-20.04,5.05-20.22,20.32-20.61,27.15-.39,6.83,10.54,10.35,16.98,14.19Zm-6.27-28.23c.39-6.83,2.05-7.27,10.55-11.7,8.5-4.43,43.68,7.6,48.14,16.59,4.46,8.99-9.82,15.07-24.65,14.51-7.71-.29-15.12-.79-21.66-5.25-6.17-4.21-12.77-7.32-12.38-14.15Z"/><path class="d" d="m1250.3,1379.68c11.93,2.08,52.18,10.83,60.26,3.01,9.34-9.04,23.86-27.46,34.39-50.59,0,0-2.98-11.37-21.02-19.64-35.18-16.11-71.85-4.32-85.68,4.22-30.02,18.56-23.71,41.18-21.38,51.47,2.33,10.29,21.43,9.43,33.43,11.53Zm-22.28-38.18c-2.33-10.29.15-11.87,11.89-23.11,11.75-11.24,73.49-12.98,84.54-2.19,11.06,10.79-9.26,27.68-33.33,35.06-12.53,3.84-24.64,7.21-37.08,4.26-11.74-2.79-23.7-3.72-26.02-14.02Z"/><path class="d" d="m1783.86,1379.68c11.93,2.08,52.18,10.83,60.26,3.01,9.34-9.04,23.86-27.46,34.39-50.59,0,0-2.98-11.37-21.02-19.64-35.18-16.11-71.85-4.32-85.68,4.22-30.02,18.56-23.71,41.18-21.38,51.47,2.33,10.29,21.43,9.43,33.43,11.53Zm-22.28-38.18c-2.33-10.29.15-11.87,11.89-23.11,11.75-11.24,73.49-12.98,84.54-2.19,11.06,10.79-9.26,27.68-33.33,35.06-12.53,3.84-24.64,7.21-37.08,4.26-11.74-2.79-23.7-3.72-26.02-14.02Z"/><path class="e" d="m1462.06,961.31h-127.33s-.82-66.55,63.66-66.55,63.66,66.55,63.66,66.55Z"/><circle class="d" cx="1398.4" cy="932.77" r="28.81"/><path class="e" d="m1642.27,961.31h-127.33s-.82-66.55,63.66-66.55,63.66,66.55,63.66,66.55Z"/><circle class="d" cx="1578.61" cy="932.77" r="28.81"/></g></svg>