<?xml version="1.0" encoding="UTF-8"?><svg xmlns="http://www.w3.org/2000/svg" viewBox="0 0 2000 2000"><defs><style>.d,.e{stroke-width:0px;}.f{stroke:#000;stroke-linejoin:round;stroke-width:11.01px;}.f,.e{fill:#fff;}</style></defs><g id="b"><path class="d" d="m1065.93,1453.83c23.09-22.18,34.57-45.47,48.3-52.87,13.72-7.4,137.52-73.11,158.1-93.98,20.58-20.87,91.12-80.49,101.87-83.5,10.75-3.01-4.26-34.62,14.23-58.4,18.24-23.45,87-44.61,93.05-77.58,5.05-27.5-1.31-44.59,2.06-44.75,3.37-.16,31.16,8.64,79.98-3.58,23.07-5.78,107.85-44.88,98.54-110.28-7.3-51.27-62.09-80.67-114.95-72.33-59.75,9.42-92.53,56.1-101.69,88.09-10.9,38.09,6.61,82.9-9.92,106.21-13.35,18.82-21.45,26.21-27.5,28.66-6.04,2.46-12.12,8.83-14.68,18.47-3.33,12.48-19.18,23.68-26.44,32.4-5.93,7.12-30.66,29.13-47.84,30.24-17.18,1.11-32.41,2.56-47.5,16.27-15.09,13.71-52.22,39.81-53.19,51.85-.97,12.05,2.59,17.98,2.59,17.98-7.06,1.95-37.06,26.08-79.91,66.42-46.07,43.38-105.7,81.98-132.72,108.61-61.04,60.17-162.58,111.08-162.58,111.08,0,0-1.66,9.83,17.17,7.61,18.83-2.22,179.94-64.43,203.03-86.61Zm408.22-456.46c-20.29-41.3,5.11-78.53,39.52-100.48,41.99-26.79,87.02-12.8,106.56,22.14,21.05,37.63-11.7,73.71-35.76,88.38-24.06,14.68-90.04,31.26-110.32-10.04Z"/><path class="d" d="m1413.75,1445.57c53.21-26.55,89.71-84.53,69.64-118.6-20.07-34.07-64.65-51.91-124.47-46.38-58.89,5.45-113.02,57.51-113.02,57.51,0,0-22.21-25.18-39.12-32.04-16.91-6.86-63.65,3.77-76.72,8.68-16.05,6.03-33.89-2.58-43.79,3.85-4.09,2.66-37.76-3.38-61.62-16.51-23.86-13.13-56.96-12.9-114.81-17.22-57.84-4.32-116.37,6.78-176.05,29.72-35.15,13.51-66.93-2.01-95.76-1.71-38.67.41-174.31,33.53-191.45,39.48-17.14,5.96-11.52,16.49-11.52,16.49-1.89-.95,182.37-2.62,218.96-1.08,27.37,1.15,139.42-3.65,186.04,2.81,20.39,2.83,85.74-2.86,105.92-1.02,20.18,1.83,99.23-6.64,125.82-13.3,26.59-6.66,72.44,9.09,72.44,9.09,0,0,68.29,9.96,81.16,19.9,12.87,9.94,19.03,35.23,46.72,54.34,27.7,19.11,82.41,35.51,141.6,5.98Zm-70.91-10.44c-60.07,2.92-79.93-50.71-80.3-70.78-.37-20.07,57.29-60.23,80.55-62.97,45.28-5.33,71.58,20.28,76.69,55.34,5.11,35.06-16.88,75.49-76.95,78.41Z"/><path class="d" d="m1013.41,1025.22c-7.23-21.94-57.15-30.66-81.52-26.63-24.37,4.03-78.9,30.31-91.51,47.59-12.61,17.28-30.67,50.83-33.98,62.55-3.32,11.72,19.92,41.89,19.92,41.89,16.92,12.56,70.15,7.71,96.6.22,26.46-7.49,80.11-21.65,88.52-38.82,8.41-17.18,9.2-64.86,1.98-86.8Zm-6.81,86.68c-9.13,11.29-58.89,24.77-83.48,31.73-24.58,6.96-73.13,14.69-87.3,8.49,0,0,23.54-58.4,36.48-70.13,12.94-11.73,52.44-33.87,74.83-38.52,22.39-4.65,60.06,4.61,64.63,17.43,4.57,12.82,3.97,39.72-5.17,51.01Z"/><path class="d" d="m882.24,482.12h0c-11.83-12.76-28.34-20.18-45.74-20.56l-107.69-2.32c-16.68-.36-32.84,5.78-45.07,17.12l-72.68,67.39c-9.38,8.7-15.95,19.99-18.87,32.45l-8.68,36.99c-2.3,9.8-2.26,20,.11,29.78l.23.93c5.34,22.05,21.91,39.64,43.6,46.31,29.36,9.03,69.28,19.65,87.9,17.22,35.94-4.69,111.61-51.07,152.62-77.67,17.45-11.32,28.34-30.39,29.22-51.17l2.13-50.07c.73-17.13-5.42-33.84-17.07-46.41Zm-4.91,20.36l-4.94,32.53c-2.05,13.5-12.51,26.53-28.06,34.94-36.55,19.78-103.83,54.53-134.7,59.82-15.99,2.74-49.29-1.63-73.7-5.64-18.03-2.96-31.03-13.3-34.19-27.24l-.13-.59c-1.4-6.18-.79-12.78,1.78-19.27l9.7-24.48c3.26-8.24,9.56-15.96,18.08-22.18l63.68-55.53c11.12-8.1,24.16-11.18,38.32-11.99l94.92.22c14.78-.85,28.36,2.92,37.62,10.44h0c9.13,7.41,13.31,17.83,11.62,28.96Z"/><path class="d" d="m1185.3,662.64h0c4.71-16.76,2.43-34.71-6.34-49.74l-54.23-93.07c-8.4-14.41-22.07-24.99-38.13-29.51l-95.42-26.82c-12.31-3.46-25.38-3.17-37.52.84l-36.08,11.91c-9.56,3.15-18.24,8.51-25.35,15.63l-.68.68c-16.03,16.06-22.38,39.38-16.75,61.36,7.62,29.75,19.4,69.35,31.19,83.96,22.76,28.2,101.82,68.55,145.91,89.64,18.76,8.98,40.71,8.31,58.9-1.78l43.82-24.32c14.99-8.32,26.03-22.28,30.67-38.78Zm-19.93,6.44l-30.33,12.76c-12.59,5.3-29.15,3.18-44.45-5.7-35.95-20.85-100.71-60.11-121.33-83.67-10.68-12.21-24.33-42.89-33.65-65.8-6.89-16.93-4.85-33.41,5.39-43.38l.43-.42c4.54-4.42,10.49-7.35,17.36-8.54l25.94-4.51c8.73-1.52,18.61-.18,28.35,3.85l80.61,25.34c12.71,5.25,22.14,14.77,30.23,26.43l49.36,81.08c8.44,12.16,12.31,25.71,10.73,37.54h0c-1.55,11.65-8.26,20.66-18.64,25.03Z"/><path class="d" d="m795.41,928.23c-19.45-13.1-122.19-3.92-152.59,12.56-30.4,16.47-82.71,61.48-72.48,95.52,13.14,43.74,94.43,101.11,94.43,101.11,101.91,24.74,127.03-3.38,148.25-14.39,21.21-11.01,42.17-68.46,35.33-95.15-6.84-26.69-33.49-86.54-52.94-99.64Zm20.06,113.67c6.84,26.69-14.12,84.14-35.33,95.15-21.21,11.01-92.89,5.53-117.45-5.41,0,0-68.15-53.71-83.01-86-14.86-32.29,7.48-39.33,37.88-55.8,30.4-16.47,142.49-22.43,161.94-9.33,19.45,13.1,29.14,34.69,35.97,61.38Z"/><path class="d" d="m827.72,1109.48c-15.76-22.59,40.17-.77,17.98,8.12-22.19,8.89-173.03-33.86-220.77,59.51,0,0-9.57,99.03,15,137.53,19.12,29.96,87.35,19.69,119.67,7.4,32.32-12.29,106.32-84.15,109.08-107.44,2.76-23.29-25.2-82.54-40.96-105.13Zm-9.04,83.07c-2.76,23.29-80.41,104.34-112.73,116.63-32.32,12.29-52.23,24.63-67-7.7-14.77-32.33-11-119.01-11-119.01,7.74-25.75,163.49-40.21,185.68-49.1,22.19-8.89-33.74-30.72-17.98-8.12,15.76,22.59,25.8,44.02,23.04,67.31Z"/><path class="d" d="m1092.81,1170.94c20.71,11,121.93-8.84,150.45-28.39,28.52-19.55,75.85-69.76,62.13-102.55-17.63-42.13-104.45-90.72-104.45-90.72-103.94-13.99-125.99,16.6-145.94,29.76-19.95,13.16-34.81,72.48-25.23,98.31,9.58,25.83,42.33,82.58,63.04,93.58Zm-31.79-110.96c-9.58-25.83,5.28-85.15,25.23-98.31,19.95-13.16,91.81-15.18,117.38-6.86,0,0,73.37,46.31,91.52,76.88,18.14,30.57-3.34,39.89-31.86,59.44-28.52,19.55-139.38,37.15-160.09,26.15-20.71-11-32.59-31.47-42.17-57.3Z"/><path class="d" d="m1160.35,867.62s-41.52-4.95-52.07,2.78c-10.54,7.72-27.3,34.56-26.38,39.95.92,5.39,12.52,30.38,17.06,35.64,4.53,5.26,30.74,11.83,37.71,11.05,6.97-.78,25.52-13.47,29.76-17.05,4.24-3.58,8.52-18.78,7.28-30.03-1.25-11.25-5.92-34.62-13.36-42.34Zm2.9,46.73c1.16,8.87-1.48,20.69-4.38,23.4-2.9,2.71-15.66,12.21-20.55,12.65-4.89.44-23.53-5.37-26.85-9.61-3.32-4.25-12.12-24.15-12.9-28.41-.78-4.26,14.85-18.35,22.09-24.16,7.24-5.8,32.14-7.45,32.14-7.45,5.43,6.24,9.31,24.71,10.47,33.58Z"/><path class="d" d="m955.74,996.06s11.95,40.07,23.23,46.68c11.27,6.61,42.55,11.33,47.14,8.34,4.58-2.98,22.9-23.56,25.93-29.81,3.03-6.25-1.35-32.91-4.84-39-3.49-6.09-22.5-18.07-27.47-20.54-4.97-2.47-20.62-.36-30.45,5.25-9.83,5.61-29.42,19.19-33.55,29.08Zm41.74-21.22c7.68-4.58,19.58-6.86,23.22-5.27,3.64,1.59,17.42,9.52,19.77,13.84s4.42,23.72,1.84,28.46c-2.58,4.74-17.35,20.72-20.95,23.12-3.6,2.41-22.74-6.34-30.94-10.68-8.2-4.34-19.6-26.54-19.6-26.54,3.57-7.47,18.98-18.36,26.66-22.94Z"/><path class="d" d="m639.19,941.71s-20.11-28.86-30.76-31.64c-10.65-2.78-36.57.16-39.39,3.48-2.82,3.31-11.78,23.32-12.5,28.86-.72,5.54,14.06,58.81,18.44,62.84,4.37,4.03,18.33-23.93,22.91-23.05,4.58.88,16.35-4.09,22.61-10.58,6.26-6.48,18.09-21.28,18.7-29.9Zm-27.26,25.49c-4.83,5.22-13.61,9.53-16.9,9.06-3.29-.47-16.28-3.76-19.28-6.64-3-2.88-9.81-17.65-9.04-21.9.77-4.26,8.16-19.91,10.35-22.56s19.62.14,27.24,1.79c7.62,1.66,22.53,16.63,22.53,16.63-.82,6.61-10.07,18.41-14.91,23.63Z"/><path class="d" d="m543.28,875.67c-19.77-21.19-41.52-24.99-72.3-14.75-30.78,10.24-102.95,65.36-102.95,65.36-12.78,14.33-38.05,137.83-28.81,163.28,9.24,25.45,94.86,117.06,123.88,111.4,29.02-5.66,67.27-36.38,83.58-59.88,16.31-23.5,40.36-35.91,36.77-82.86-3.59-46.95-20.39-161.35-40.17-182.54Zm25.8,156.23c2.47,40.01-10.59,54.37-30.7,69.87-13.65,10.53-70.06,51.22-76.88,52.5-26.5,4.97-102.64-71.44-110.6-93.01-7.96-21.57,17.04-127.39,28.89-139.84,0,0,69.98-43.91,98.09-53.16,28.12-9.25,38.42-6.44,56.02,11.32,17.6,17.76,32.71,112.3,35.18,152.31Z"/><path class="d" d="m1216.1,661.94c-18.72-12.05-33.55-9.47-49.95,6.88-16.4,16.34-45.68,79.93-45.68,79.93-3.84,14.97,16.6,121.86,29.93,140.11,13.33,18.26,94.32,70.32,110.95,58.16,16.63-12.16,31.71-47.09,35.08-70.43,3.37-23.34,14.87-39.69-1.22-76.88-16.09-37.19-60.39-125.71-79.11-137.77Zm64.43,117.89c13.35,31.85,6.46,47.56-.91,67-9.37,24.71-20.6,52.62-33.02,62.69-14.61,11.85-77.06-38.65-88.44-54.09-11.38-15.44-20.16-96-16.35-109.19,0,0,12.35-61.01,27.36-75.86,15.01-14.85,28.26-17.64,44.59-7.81,16.33,9.83,53.43,85.41,66.77,117.26Z"/><path class="d" d="m549.94,923.95c53.83-4.52,100.61-21.32,124.99-34.35,21.08-11.26,29.09-104.84,32.51-132.17,3.44-27.51,17.43-67.97-2.02-81.07-19.45-13.1-134.77-41.18-165.17-24.7-30.4,16.47-73.75,92.82-63.53,181.26,5.25,45.37,73.21,91.04,73.21,91.04Z"/><path class="e" d="m644.04,679.43c-19.45-13.1-70.98-39.33-101.38-22.85-30.4,16.47-73.53,148.11-58.67,180.4,14.86,32.29,37.93,43.87,37.93,43.87,24.56,10.94,80.3-46.8,101.52-57.81,21.21-11.01,30.47-47.4,32.43-76.53,1.85-27.49,7.62-53.97-11.83-67.07Z"/><path class="d" d="m705.42,676.35c-19.45-13.1-134.77-41.18-165.17-24.7-30.4,16.47-73.75,92.82-63.53,181.26,5.25,45.37,73.21,91.04,73.21,91.04,53.83-4.52,100.61-21.32,124.99-34.35,21.08-11.26,29.09-104.84,32.51-132.17,3.44-27.51,17.43-67.97-2.02-81.07Zm-49.55,70.15c-1.96,29.13-11.22,65.52-32.43,76.53-21.21,11.01-76.95,68.75-101.52,57.81,0,0-23.07-11.58-37.93-43.87-14.86-32.29,28.27-163.92,58.67-180.4,30.4-16.47,81.93,9.75,101.38,22.85,19.45,13.1,13.69,39.58,11.83,67.07Z"/><path class="d" d="m613.14,530.79c-17.61-11.81-39.54-2.42-67.1,12.48-27.56,14.9-43.26,56.29-84.74,125.11-27.52,45.67,2.26,90.05,2.26,90.05,48.77-4.13,88.39-33.26,110.49-45.04,19.11-10.19,22.08-59.38,25.2-84.06,3.15-24.83,31.5-86.74,13.89-98.55Zm-32.23,10.74c-4.34,11.56-21.26,51.82-32.66,73.92-6.97,13.51-8.26,24.92-20.78,37.91-15.03,15.59-48.53,67.43-71.6,67.06,0,0-4.6-18.98,9.57-45.75,15.01-28.35,55.23-112.06,82.78-126.96,27.56-14.9,35.75-14.32,32.69-6.19Z"/><path class="d" d="m474.74,743.27c-12.43-2.48-39.81-9.37-61.16,27.27-9.84,16.88-22.86,61.29-2.42,103.05,10.48,21.42,24.24,24.64,24.24,24.64,27.46-13.37,49.14-31.38,59.7-42.88,9.14-9.94-2.61-58.02-5.48-72.29-2.88-14.36-2.44-37.32-14.88-39.8Zm-14.03,45.04c3.94,14.86.26,29.51-3.97,44.67-8.13,29.14-27.78,54.07-41.08,41.12-13.3-12.95-13.12-87.16.02-101.61,13.14-14.46,14.95-17.48,27.39-15,12.43,2.48,13.93,16.81,17.64,30.82Z"/><path class="d" d="m1110.21,940.9c-2.68-7.77-7.89-25.36-32.71-24.64-11.43.33-37.48,8.36-51.69,34.09-7.29,13.2-4.56,21.95-4.56,21.95,15.24,10.68,30.95,16.54,39.96,18.47,7.79,1.66,27.85-21.4,34-27.9,6.19-6.54,17.68-14.19,14.99-21.96Zm-26.67,7.68c-6.11,7.3-14.5,10.29-23.32,13.15-16.96,5.5-35.46,3.14-33.24-8.71,2.22-11.85,38.95-37.26,50.23-34.93s13.34,2.31,16.02,10.07c2.68,7.77-3.93,13.52-9.69,20.41Z"/><path class="d" d="m1409.81,1029.05c-9.02-8.91-28.07-29.73-66.07-10.91-17.5,8.67-52.83,38.58-58.75,84.69-3.04,23.65,6.67,33.92,6.67,33.92,30.29,3.96,58.29.86,73.45-2.92,13.1-3.27,29.76-49.87,35.22-63.36,5.5-13.57,18.51-32.5,9.49-41.42Zm-36.51,29.88c-4.89,14.57-16.03,24.78-27.9,35.11-22.83,19.86-52.96,29.84-56.93,11.71-3.97-18.13,37.03-79.98,55.96-84.82s22.11-6.36,31.12,2.56c9.02,8.91,2.37,21.7-2.24,35.44Z"/><path class="d" d="m631.9,1318.48c4.37-11.9,15.41-37.88-17.48-64.65-15.15-12.33-57.01-32.07-101.43-18.33-22.78,7.04-28.1,20.13-28.1,20.13,8.96,29.2,23.4,53.4,33.12,65.62,8.41,10.57,57.72,6.39,72.26,5.77,14.63-.63,37.25,3.36,41.62-8.54Zm-42.33-20.83c-15.29,1.59-29.19-4.31-43.52-10.83-27.53-12.54-49.12-35.81-34.27-46.95,14.85-11.14,88.14.52,100.39,15.74,12.25,15.22,14.96,17.48,10.58,29.38-4.37,11.9-18.76,11.16-33.18,12.66Z"/><path class="f" d="m913.27,786.62l147.2-41.65s22.71,76.67-51.83,97.77-95.37-56.12-95.37-56.12Z"/><circle class="d" cx="996.21" cy="798.8" r="34.62"/><path class="f" d="m704.93,845.57l147.2-41.65s22.71,76.67-51.83,97.77c-74.55,21.09-95.37-56.12-95.37-56.12Z"/><circle class="d" cx="787.87" cy="857.75" r="34.62"/><path class="d" d="m1321.51,1327.85c3.62,1.55,5.99,2.28,7.09,2.19,3.93.75,6.29,1.59,7.09,2.52,1.81,3.4,2.65,5.46,2.52,6.16-.09.75-.3.54-.63-.63-.33-1.17-.92-1.96-1.76-2.35-.18.18-.03.82.43,1.92.46,1.1,1.16,2.42,2.09,3.94.93,1.52,2.02,3.1,3.28,4.74,1.26,1.63,2.59,3.05,4.01,4.24.49-.35.82-.62.99-.8l.86-.86c.4-.35.67-.65.83-.89.15-.24.34-.56.56-.96,0,.22-.02.42-.07.6.75-.26,1.63-1.41,2.65-3.45,1.02-2.03,1.99-4.22,2.92-6.56.93-2.34,2.05-5.43,3.38-9.28.71-1.81.57-3.53-.4-5.17-.93-.93-.91-2.3.07-4.11l-1.86-1.13,3.05.26-.53-1.86c2.12-2.25,5.85-3.58,11.2-3.98.88,0,2.45-1.28,4.7-3.84l-1.46,3.18,2.58-1.52-1.26,2.58c.31-.53,1.13-.62,2.45-.27-.53,0-1.06.58-1.59,1.72-.13,1.46-.95,3.47-2.45,6.03l1.92-.27-2.78,1.59c-.93,3.58-2.35,7.13-4.27,10.67s-3.9,6.76-5.93,9.67c-2.03,2.92-3.88,5.35-5.53,7.29-1.66,1.94-2.64,3.09-2.95,3.45l4.04,2.45c-1.33.49-.96,1.77,1.09,3.84,2.05,2.08,4.57,4.27,7.55,6.59s7.19,5.33,12.62,9.04c2.03,1.63,4.48,2.32,7.36,2.05,1.85-.53,3.73.13,5.63,1.99l2.72-1.39-2.19,3.11,2.85.33c.93,1.68,1.39,3.35,1.39,5s-.19,3.15-.56,4.47c-.38,1.33-1.03,2.81-1.96,4.44-.49.93.38,3.22,2.58,6.89l-3.58-3.05.6,3.51-2.85-2.65c.53.62.18,1.55-1.06,2.78.26-.53-.24-1.39-1.52-2.58-1.9-.79-4.17-2.63-6.83-5.5l-.79,2.19-.6-3.78c-3.8-2.3-7.37-5.05-10.7-8.25-3.34-3.2-6.35-6.41-9.04-9.61-2.7-3.2-5.01-6.23-6.96-9.08-1.94-2.85-3.38-5.05-4.31-6.59l.46,2.05c-1.77-1.99-3-2.83-3.71-2.52l-.2-.2c-1.55,2.52-3.51,5.22-5.9,8.12-2.39,2.89-5.19,5.27-8.42,7.12l-.07,2.52-.73-1.52c-1.5,1.81-2.85,2.92-4.04,3.31-.75.71-.99,1.26-.73,1.66-.93-.88-1.26-1.52-.99-1.92l-1.66,1.66.07-2.32-2.12,1.86c1.11-2.34,1.46-3.84,1.06-4.51-2.39-4.02-3.11-7.13-2.19-9.34l1.86-.07-1.72-2.19,1.92,1.06c1.06-1.1,2.25-1.46,3.58-1.06,1.94.4,3.51.07,4.7-.99,4.95-3.4,8.33-5.9,10.14-7.49l1.19-1.39c-1.46-1.94-3.16-4.16-5.1-6.66-1.94-2.5-3.84-4.88-5.7-7.16-1.86-2.27-3.53-4.25-5.04-5.93-1.5-1.68-2.58-2.69-3.25-3.05.97.09,1.59.24,1.86.46-.93-.75-1.66-1.17-2.19-1.26l.99-.4-.79-.93Z"/><path class="d" d="m1509.55,917.9c3.62,1.55,5.99,2.28,7.09,2.19,3.93.75,6.29,1.59,7.09,2.52,1.81,3.4,2.65,5.46,2.52,6.16-.09.75-.3.54-.63-.63-.33-1.17-.92-1.96-1.76-2.35-.18.18-.03.82.43,1.92.46,1.1,1.16,2.42,2.09,3.94.93,1.52,2.02,3.1,3.28,4.74,1.26,1.63,2.59,3.05,4.01,4.24.49-.35.82-.62.99-.8l.86-.86c.4-.35.67-.65.83-.89.15-.24.34-.56.56-.96,0,.22-.02.42-.07.6.75-.26,1.63-1.41,2.65-3.45,1.02-2.03,1.99-4.22,2.92-6.56.93-2.34,2.05-5.43,3.38-9.28.71-1.81.57-3.53-.4-5.17-.93-.93-.91-2.3.07-4.11l-1.86-1.13,3.05.26-.53-1.86c2.12-2.25,5.85-3.58,11.2-3.98.88,0,2.45-1.28,4.7-3.84l-1.46,3.18,2.58-1.52-1.26,2.58c.31-.53,1.13-.62,2.45-.27-.53,0-1.06.58-1.59,1.72-.13,1.46-.95,3.47-2.45,6.03l1.92-.27-2.78,1.59c-.93,3.58-2.35,7.13-4.27,10.67s-3.9,6.76-5.93,9.67c-2.03,2.92-3.88,5.35-5.53,7.29-1.66,1.94-2.64,3.09-2.95,3.45l4.04,2.45c-1.33.49-.96,1.77,1.09,3.84,2.05,2.08,4.57,4.27,7.55,6.59s7.19,5.33,12.62,9.04c2.03,1.63,4.48,2.32,7.36,2.05,1.85-.53,3.73.13,5.63,1.99l2.72-1.39-2.19,3.11,2.85.33c.93,1.68,1.39,3.35,1.39,5s-.19,3.15-.56,4.47c-.38,1.33-1.03,2.81-1.96,4.44-.49.93.38,3.22,2.58,6.89l-3.58-3.05.6,3.51-2.85-2.65c.53.62.18,1.55-1.06,2.78.26-.53-.24-1.39-1.52-2.58-1.9-.79-4.17-2.63-6.83-5.5l-.79,2.19-.6-3.78c-3.8-2.3-7.37-5.05-10.7-8.25-3.34-3.2-6.35-6.41-9.04-9.61-2.7-3.2-5.01-6.23-6.96-9.08-1.94-2.85-3.38-5.05-4.31-6.59l.46,2.05c-1.77-1.99-3-2.83-3.71-2.52l-.2-.2c-1.55,2.52-3.51,5.22-5.9,8.12-2.39,2.89-5.19,5.27-8.42,7.12l-.07,2.52-.73-1.52c-1.5,1.81-2.85,2.92-4.04,3.31-.75.71-.99,1.26-.73,1.66-.93-.88-1.26-1.52-.99-1.92l-1.66,1.66.07-2.32-2.12,1.86c1.11-2.34,1.46-3.84,1.06-4.51-2.39-4.02-3.11-7.13-2.19-9.34l1.86-.07-1.72-2.19,1.92,1.06c1.06-1.1,2.25-1.46,3.58-1.06,1.94.4,3.51.07,4.7-.99,4.95-3.4,8.33-5.9,10.14-7.49l1.19-1.39c-1.46-1.94-3.16-4.16-5.1-6.66-1.94-2.5-3.84-4.88-5.7-7.16-1.86-2.27-3.53-4.25-5.04-5.93-1.5-1.68-2.58-2.69-3.25-3.05.97.09,1.59.24,1.86.46-.93-.75-1.66-1.17-2.19-1.26l.99-.4-.79-.93Z"/></g><g id="c"><path class="d" d="m-525.53-995.61c19.92,28.66,39.3,57.71,59.83,85.93C-139.69-461.62,186.48-13.66,512.58,434.34c2.7,3.71,5.02,7.7,7.51,11.56-1.06.92-2.12,1.83-3.18,2.75-1.99-2.91-3.76-6.01-6.01-8.71C115.33-34.54-280.29-508.99-675.83-983.51c-3.01-3.61-5.03-8.05-7.51-12.1,52.6,0,105.21,0,157.81,0Z"/><path class="d" d="m2433.44,2995.61c-17.01-24.65-33.5-49.7-51.12-73.9-297.8-408.95-595.75-817.8-893.65-1226.68-3.06-4.2-5.84-8.59-8.76-12.89,1.38-1.28,2.77-2.56,4.15-3.84,1.28,2.74,2.05,5.91,3.92,8.15,362.65,435.57,725.38,871.07,1088.1,1306.57.7.84,1.34,1.73,2.01,2.59h-144.66Z"/><path class="d" d="m2015.89-995.61c-26.53,52.75-52.94,105.57-79.61,158.25-168.32,332.45-336.75,664.86-505.04,997.32-37.07,73.22-73.74,146.64-110.64,219.95-2.92,5.81-6.11,11.5-11.95,16.23,1.71-4.55,3.24-9.16,5.14-13.63,192.7-454.27,385.43-908.53,578.11-1362.8,2.12-5,3.76-10.21,5.62-15.32,39.45,0,78.91,0,118.36,0Z"/><path class="d" d="m-12.64-995.61c16.87,36.7,33.22,73.65,50.7,110.06C233.16-479.13,428.44-72.79,623.67,333.58c2.51,5.22,4.89,10.5,4.94,16.85-25.14-45.27-50.19-90.58-75.43-135.79C334.7-176.74,116.19-568.09-102.25-959.48c-6.62-11.86-12.6-24.08-18.88-36.13,36.17,0,72.33,0,108.5,0Z"/><path class="d" d="m2472.89-995.61c-316.25,432.28-632.5,864.57-949.95,1298.51,2.05-4.48,3.05-7.59,4.76-10.24,277.11-428.57,554.28-857.1,831.45-1285.62.59-.92,1.31-1.76,1.96-2.64,37.26,0,74.52,0,111.78,0Z"/><path class="d" d="m49.82,2995.61c19.13-38.65,37.98-77.45,57.44-115.93,169.33-335.01,338.77-669.96,508.16-1004.94,27.56-54.5,55.01-109.04,84.79-162.52-20.34,47.58-40.78,95.11-61,142.74-161.42,380.21-322.79,760.43-484.17,1140.65H49.82Z"/><path class="d" d="m2657-995.61c-113.28,137.24-226.91,274.2-339.77,411.79-209.41,255.3-418.36,510.98-627.52,766.49-3.41,4.16-6.96,8.2-13.39,10.36,2.75-4.1,5.35-8.31,8.29-12.27,230.64-311.55,461.38-623.03,691.93-934.66,56.66-76.58,112.71-153.62,168.95-230.5,2.51-3.43,4.22-7.45,6.3-11.2,35.07,0,70.14,0,105.21,0Z"/><path class="d" d="m444.35-995.61c5.78,25.49,10.88,51.16,17.44,76.44,105.4,406.22,211,812.4,316.52,1218.59,1.61,6.21,2.89,12.51,2.1,19.4-7.78-23.62-15.59-47.23-23.33-70.87-133.72-408.72-267.44-817.44-401.07-1226.19-1.83-5.6-2.51-11.57-3.73-17.37,30.69,0,61.37,0,92.06,0Z"/><path class="d" d="m2995.64-995.61c1.94,20.8-2.48,37.03-19.26,53.35-128.34,124.87-255.71,250.75-382.56,377.14-233.94,233.08-467.32,466.72-700.94,700.12-3.09,3.08-6.32,6.02-11.73,7.32,3.6-4.09,7.14-8.24,10.81-12.26,332.59-363.72,665.19-727.42,997.73-1091.17,4.36-4.77,7.98-10.23,11.95-15.37,5.03-6.38,10.06-12.75,15.09-19.13,26.3,0,52.6,0,78.91,0Z"/><path class="d" d="m1953.43,2995.61c-159.24-332-318.43-664.02-477.73-995.99-33.85-70.54-68.07-140.89-102.1-211.34-2.3-4.77-4.44-9.62-4.68-15.48,19.77,35.61,39.48,71.25,59.32,106.82,204.99,367.55,410.01,735.09,614.95,1102.67,2.33,4.18,3.75,8.86,5.59,13.31h-95.34Z"/><path class="d" d="m1279.44-995.61c-6.57,41.01-13.55,81.96-19.64,123.04-24.91,167.86-49.74,335.73-74.26,503.65-24.76,169.55-49.12,339.16-73.65,508.75-9.09,62.82-18.14,125.64-29.44,188.29,2.43-30.8,4.74-61.6,7.31-92.38,10.49-125.52,21.26-251.03,31.55-376.57,15.27-186.12,30.31-372.26,45.26-558.41,7.28-90.63,14.1-181.29,21.21-271.93.64-8.17,1.9-16.3,2.87-24.44,29.59,0,59.18,0,88.77,0Z"/><path class="d" d="m-377.58,2995.61c46.38-63.71,92.75-127.42,139.13-191.13C-5.09,2483.99,228.26,2163.49,461.64,1843.01c3.33-4.57,6.92-8.95,11.86-12.34-250.82,388.31-501.64,776.63-752.46,1164.94h-98.63Z"/><path class="d" d="m947.38-995.61c2.55,196.6,4.88,393.2,7.72,589.8,3.08,213.02,6.65,426.02,9.93,639.04.3,19.68.04,39.38-.59,59.17-6.65-89.18-13.27-178.37-19.97-267.55-12.91-172.01-25.78-344.01-38.81-516.01-11.29-149.07-22.82-298.13-34.12-447.2-1.44-19.05-2.07-38.16-3.08-57.25,26.3,0,52.6,0,78.91,0Z"/><path class="d" d="m-992.71-973.27c-.99-7.45-1.98-14.9-2.97-22.34,27.4,0,54.8,0,82.19,0,12.99,15.34,25.52,31.1,39.05,45.95C-561.16-606.03-247.77-262.49,65.57,81.08c3.15,3.46,6.13,7.07,6.77,12.92-9.22-9.69-18.26-19.56-27.68-29.05C-122.78-103.77-290.01-272.71-457.84-441.05c-156.23-156.71-313.09-312.78-469.76-469.05-4.14-4.13-9.32-7.22-14.02-10.8-17.03-17.46-34.06-34.91-51.09-52.37Z"/><path class="d" d="m1522.73,2995.61c-6.1-26.54-11.54-53.24-18.38-79.58-95.45-367.57-191.1-735.1-286.66-1102.64-.26-1-.03-2.13,1.89-3.93,2.42,6.93,4.96,13.83,7.23,20.8,125.36,383.87,250.69,767.75,376.06,1151.61,1.52,4.66,3.55,9.16,5.34,13.74h-85.48Z"/><path class="d" d="m-551.83,2995.61c294.37-358.11,588.75-716.22,883.12-1074.32.52.3,1.04.6,1.56.9-3.2,4.65-6.26,9.41-9.61,13.94-255.61,345.59-511.25,691.16-766.86,1036.74-5.53,7.47-10.77,15.15-16.15,22.74h-92.06Z"/><path class="d" d="m740.25,2995.61c10.97-72.51,22.18-144.98,32.87-217.53,27.11-184.13,54.16-368.27,80.9-552.45,19.42-133.79,38.29-267.67,57.48-401.49,1.08-7.53,2.78-14.98,5.9-22.3-2.28,28.48-4.51,56.96-6.85,85.43-16.43,199.74-33.01,399.48-49.3,599.23-13.35,163.74-26.35,327.5-39.57,491.25-.48,5.98-1.66,11.9-2.52,17.86h-78.91Z"/><path class="d" d="m-897.04,2995.61c9.95-10.69,19.55-21.73,29.89-32.03,321.65-320.6,643.37-641.13,965.09-961.66,4.03-4.02,8.31-7.8,14.65-9.65-4.53,5.04-9.01,10.12-13.58,15.11-297.76,325.26-595.53,650.52-893.28,975.8-3.69,4.03-7.14,8.28-10.71,12.43h-92.06Z"/><path class="d" d="m1049.3,2995.61c-.06-52.51.41-105.03-.26-157.53-2.38-185.08-4.96-370.16-7.84-555.24-2.19-140.72-4.96-281.43-7.44-422.14-.14-8.19-.02-16.39,1.78-24.69,6.77,91.15,13.48,182.31,20.32,273.45,12.73,169.81,25.49,339.62,38.33,509.43,9.08,120.13,18.33,240.24,27.43,360.37.41,5.42.03,10.9.02,16.35h-72.33Z"/><path class="d" d="m1108.48-995.61c-6.94,108.2-13.85,216.4-20.84,324.6-7.34,113.66-14.84,227.32-22.09,340.99-9.55,149.75-18.94,299.51-28.38,449.27-1.77,28.16-3.44,56.32-4.88,79.84,0-66.04-.41-136.65.08-207.25,1.46-211.4,3.34-422.8,4.91-634.21.87-117.75,1.45-235.5,2.15-353.24,23.01,0,46.03,0,69.04,0Z"/><path class="d" d="m161.61-995.61c28.36,71.72,56.76,143.43,85.07,215.16C360.19-492.87,473.69-205.28,587.16,82.31c1.89,4.8,3.49,9.71,2.47,15.62-20.37-45.35-40.62-90.75-61.13-136.04C386.5-351.72,244.43-665.31,102.43-978.92c-2.46-5.44-4.4-11.12-6.57-16.69,21.92,0,43.84,0,65.75,0Z"/><path class="d" d="m901.35,2995.61c2.58-48.59,4.78-97.19,7.82-145.75,7.12-113.64,14.74-227.26,21.99-340.89,10.6-166.09,21.07-332.19,31.57-498.29,1.79-28.4,3.43-56.8,6.93-85.17-3.04,356.7-6.09,713.4-9.13,1070.1h-59.18Z"/><path class="d" d="m1433.96-995.61c-16.36,71.44-33.1,142.79-49.01,214.32-55.59,249.94-110.89,499.94-166.28,749.92-5.19,23.42-10.29,46.86-18.11,69.81,5.89-34.03,11.8-68.06,17.67-102.1,40.15-232.96,80.36-465.92,120.41-698.9,13.35-77.65,26.3-155.37,39.43-233.06,18.63,0,37.26,0,55.89,0Z"/><path class="d" d="m348.01,1556.96c-447.18,360.17-894.35,720.34-1343.69,1082.25,0-31.97,2.36-62.55-.65-92.58-3.15-31.52,8.86-49.1,34.59-67.22,432.54-304.53,864.21-610.29,1296.08-915.76,3.96-2.8,8.02-5.47,12.03-8.21.55.51,1.1,1.01,1.64,1.52Z"/><path class="d" d="m2995.61-511.43c0,43.98.51,86-.6,127.96-.15,5.63-7.55,12.37-13.18,16.35-126.6,89.29-253.71,177.86-380.14,267.38-311.41,220.5-622.52,441.42-933.76,662.16-4.84,3.44-9.78,6.74-15.96,8.42,447.09-360.12,894.17-720.23,1343.64-1082.27Z"/><path class="d" d="m2995.63,249.95c0,31.45-.53,60.47.27,89.46.31,11.13-6.94,11.97-14.04,14.4-104.49,35.86-209.07,71.47-313.45,107.65-319.35,110.72-638.63,221.66-957.94,332.5-5.45,1.89-10.97,3.58-17.05,3.54,433.38-182.23,866.76-364.45,1302.21-547.55Z"/><path class="d" d="m-995.67,1877.72c0-31.04.56-60.07-.29-89.06-.32-10.99,6.6-12.25,13.78-14.72,93.65-32.14,187.37-64.06,280.92-96.48,326.67-113.19,653.28-226.56,979.92-339.85,5.97-2.07,11.96-4.1,18.8-3.66-430.32,180.95-860.65,361.91-1293.14,543.77Z"/><path class="d" d="m1882.82,248.53c370.16-358.31,740.32-716.62,1112.72-1077.09,0,33.81.44,65.74-.49,97.63-.13,4.58-6.39,9.57-10.7,13.35-142.94,125.21-286.31,249.93-428.95,375.48-219.51,193.22-438.52,387-657.76,580.53-4.42,3.9-8.96,7.65-13.44,11.47-.46-.46-.92-.92-1.38-1.38Z"/><path class="d" d="m89.31,1905.87c-360.82,349.36-721.64,698.71-1084.99,1050.52,0-20.52,2.07-39.47-.46-57.78-4.36-31.5,8.3-51.37,31.93-72.05,345.08-301.93,689.19-604.96,1033.53-907.73,5.95-5.23,11.94-10.42,17.91-15.63.69.89,1.38,1.77,2.07,2.66Z"/><path class="d" d="m305.92,812.58c-60.15-19.82-120.27-39.74-180.45-59.46-367.6-120.43-735.18-240.94-1102.98-360.78-15.07-4.91-19.52-11.42-18.47-26.3,1.3-18.48.31-37.12.31-58.99C-559.58,474.11-125.54,640.39,308.49,806.67c-.86,1.97-1.72,3.94-2.57,5.91Z"/><path class="d" d="m153.26,1577.55c-382.16,245.25-764.31,490.5-1148.87,737.3,0-27.83-.62-53.8.6-79.69.21-4.41,7.73-9.53,12.92-12.48,158.81-90.45,317.91-180.39,476.63-270.99,214.32-122.35,428.37-245.19,642.54-367.8,5.02-2.87,10.16-5.54,15.25-8.3.31.66.62,1.31.92,1.97Z"/><path class="d" d="m2995.62-187.12c0,27.38.59,52.45-.52,77.45-.21,4.75-6.22,10.78-11.08,13.55-167.78,95.66-335.89,190.73-503.64,286.46-202.92,115.8-405.55,232.11-608.32,348.17-4.98,2.85-10.17,5.31-16.33,6,379.06-243.3,758.12-486.59,1139.89-731.63Z"/><path class="d" d="m2970.84,1772.8c-192.34-74.79-384.68-149.59-577.02-224.38.27-.82.53-1.64.8-2.47,26.98,8.76,53.96,17.49,80.93,26.28,167.98,54.74,335.89,109.67,504.04,163.89,12.88,4.15,16.93,9.56,16.37,22.77-1.12,26.58-.33,53.24-.33,82.28-424.13-170.54-846.84-340.52-1269.55-510.49.17-.46.34-.92.51-1.38,414.15,149.45,828.3,298.89,1242.45,448.34.6-1.61,1.2-3.23,1.8-4.84Z"/><path class="d" d="m2994.84,1173.92v68.61c-390.12-39.48-779.42-78.88-1168.71-118.28l.08-1.3c389.29,16.98,778.58,33.96,1168.63,50.97Z"/><path class="d" d="m173.91,1004.81c-389.37-16.98-778.74-33.96-1168.71-50.96v-68.61c390.22,39.5,779.47,78.89,1168.72,118.29,0,.43,0,.85,0,1.28Z"/><path class="d" d="m-995.09,1064.85v-63.66c377.86,16.28,755.07,32.53,1132.27,48.78-.01.39-.02.78-.03,1.17-376.83,4.56-753.67,9.12-1132.24,13.71Z"/><path class="d" d="m1864.68,1076.59c376.13-4.6,752.25-9.2,1129.67-13.82v63.66c-376.41-16.2-753.05-32.41-1129.69-48.62v-1.22Z"/><path class="d" d="m2995.58,156.55c0,20.87.81,39.88-.63,58.72-.32,4.14-8.07,9.09-13.39,11.27-141.73,58.05-283.68,115.55-425.4,173.62-198.41,81.3-396.66,162.98-594.99,244.48-5.47,2.25-11.05,4.25-17.43,4.43,349.91-163.84,699.82-327.69,1051.85-492.52Z"/><path class="d" d="m41.26,1485.55c-344.99,161.56-689.97,323.11-1036.91,485.58,0-20.26-.92-38.26.6-56.06.42-4.92,7.27-11.29,12.61-13.49,90.49-37.33,181.29-73.93,271.87-111.05,245.94-100.79,491.81-201.75,737.73-302.62,4.36-1.79,8.88-3.21,13.32-4.81.26.81.53,1.62.79,2.44Z"/><path class="d" d="m1953.44,1362c347.13,97.83,694.27,195.66,1041.7,293.57v64.05c-347.99-118.81-695.11-237.33-1042.24-355.85.18-.59.36-1.18.54-1.77Z"/><path class="d" d="m2994.88,1589.61v60.42c-351.02-107.75-701.19-215.24-1051.36-322.72.15-.55.29-1.11.44-1.66,350.04,87.92,700.08,175.84,1050.92,263.96Z"/><path class="d" d="m37.86,762.73c-343.78-98.88-687.55-197.77-1032.47-296.98v-57.41c344.57,117.66,688.79,235.19,1033,352.73l-.53,1.66Z"/></g></svg>