<?xml version="1.0" encoding="UTF-8"?><svg id="a" xmlns="http://www.w3.org/2000/svg" viewBox="0 0 2000 2000"><defs><style>.b{stroke-width:0px;}.c{fill:#fff;stroke:#000;stroke-linejoin:round;stroke-width:8.11px;}</style></defs><path class="b" d="m1164.8,1261.91c-13.94-28.82-32.54-46.95-35.33-62.29-2.79-15.34-26.96-153.39-40.44-179.42-13.48-26.03-48.34-111.56-47.88-122.71.46-11.16-34.24-6.66-51.13-31.61-16.66-24.6-15.49-96.53-44.97-112.49-24.59-13.31-42.81-12.55-41.92-15.8.89-3.25,17.86-26.96,21.35-77.16,1.65-23.72-9.3-116.44-74.37-127.83-51.01-8.93-95.92,34.08-104.35,86.92-9.53,59.73,24.71,105.35,52.29,123.95,32.85,22.16,80.88,19.37,97.92,42.3,13.77,18.52,18.28,28.51,18.75,35.02.46,6.51,4.65,14.25,13.02,19.68,10.84,7.02,16.58,25.57,22.62,35.17,4.93,7.84,18.21,38.17,13.94,54.85-4.27,16.68-7.59,31.61.77,50.2,8.37,18.59,21.69,61.98,32.85,66.63,11.16,4.65,17.9,3.1,17.9,3.1-.33,7.32,13.33,43.32,38.43,96.54,27,57.24,45.24,125.88,62.21,159.81,38.33,76.66,55.31,188.98,55.31,188.98,0,0,8.83,4.62,12.55-13.97,3.72-18.59-5.58-191.04-19.52-219.86Zm-307.72-529.44c-45.55,6.51-73.09-29.17-83.32-68.68-12.48-48.22,14.75-86.71,54.04-94.48,42.3-8.37,66.47,33.93,72.98,61.36,6.51,27.42,1.86,95.29-43.69,101.8Z"/><path class="b" d="m1255.21,612.31c-5.33-59.23-46.02-114.35-85.06-108.07-39.05,6.28-71.91,41.28-88.55,99.01-16.39,56.83,12.36,126.2,12.36,126.2,0,0-31.54,11.5-44.09,24.75-12.55,13.25-19.68,60.64-19.87,74.61-.23,17.14-14.76,30.62-12.38,42.18.98,4.78-16.91,33.93-37.83,51.36-20.92,17.43-32.77,48.34-57.87,100.64-25.1,52.29-36.09,110.84-36.49,174.78-.23,37.65-26.26,61.59-36.49,88.55-13.71,36.16-32.31,174.54-33,192.67-.7,18.13,11.16,16.73,11.16,16.73-1.57,1.41,64.02-170.78,78.79-204.29,11.05-25.07,47.41-131.16,70.42-172.22,10.07-17.96,28.59-80.88,37.65-99.01,9.06-18.13,29.98-94.83,33.47-122.02,3.49-27.19,34.86-64.15,34.86-64.15,0,0,34.16-59.96,48.11-68.33,13.94-8.37,39.74-4.88,67.63-23.71,27.89-18.83,63.1-63.8,57.17-129.69Zm-35.56,62.23c-19.17,57-76.35,55.95-95.17,48.98-18.83-6.97-35.21-75.3-29.28-97.96,11.54-44.11,44.97-59.27,79.49-51.25,34.51,8.02,64.15,43.23,44.97,100.23Z"/><path class="c" d="m784.86,645.14h112.6s.72,58.85-56.3,58.85-56.3-58.85-56.3-58.85Z"/><circle class="b" cx="841.16" cy="670.39" r="25.48"/><path class="c" d="m1103.52,645.14h112.6s.72,58.85-56.3,58.85-56.3-58.85-56.3-58.85Z"/><circle class="b" cx="1159.82" cy="670.39" r="25.48"/></svg>