<?xml version="1.0" encoding="UTF-8"?><svg xmlns="http://www.w3.org/2000/svg" viewBox="0 0 2000 2000"><defs><style>.d{stroke-width:0px;}.e{fill:#fff;stroke:#000;stroke-linejoin:round;stroke-width:8.11px;}</style></defs><g id="b"><path class="d" d="m889.55,1030.34c-3.85-5.33-7.42-9.92-10.61-14.74-10.26-15.53-18.67-31.9-21.89-50.48-4.72-27.29,4.37-50.19,22.73-69.94,33.88-36.45,90.58-30.98,116.92,11.29,1.09,1.75,1.37,4.82.64,6.75-5.27,14-11.11,27.79-16.33,41.81-2.48,6.66-4.76,13.6-1.67,20.87,2.59,6.08,7.13,9.51,13.65,10.2,11.48,1.21,21.31-3.24,30.2-9.76,5.98-4.39,11.31-9.66,17.36-14.9,1.09,1.23,2.28,2.54,3.43,3.88,21.76,25.44,43.48,50.92,65.31,76.31,4.39,5.11,7.05,10.61,5,17.36-3.9,12.83-19.12,16.57-28.21,6.64-12.59-13.76-24.72-27.95-37.04-41.96-1.87-2.13-3.73-4.27-5.59-6.4-2.48-2.83-5.4-5.24-8.92-2.17-3.45,3.01-1.75,6.24.8,9.14,11.23,12.75,22.42,25.53,33.63,38.31,2.97,3.38,6,6.71,8.84,10.19,6.08,7.47,5.3,17.75-1.69,23.79-6.95,6-16.75,5.42-23.25-1.85-14.22-15.89-28.23-31.97-42.33-47.96-.99-1.12-1.96-2.83-3.17-3.06-2.04-.39-4.96-.59-6.23.56-1.24,1.12-1.43,4.12-1.07,6.1.29,1.59,2.07,2.93,3.27,4.31,13.71,15.67,27.54,31.24,41.13,47.01,7.18,8.33,5.8,19.42-2.76,25.32-5.65,3.89-13.13,3.78-18.78-.1-3.38-2.32-4.38-4.07-.74-7.57,12.47-11.99,8.94-31.72-6.74-38.43-2.97-1.27-6.44-1.68-9.71-1.87-2.82-.16-4.05-.94-4.57-3.89-1.82-10.34-8.57-17.16-19.14-19.07-3.71-.67-5.23-1.83-5.6-5.83-1.04-11.48-10.01-19.83-21.57-20.35-3.52-.16-5.09-.8-5.76-4.79-3.02-17.97-23.79-25.52-37.78-13.86-7.14,5.96-13.98,12.28-21.76,19.15Z"/><path class="d" d="m1119.81,1036.69c-1.79-1.68-2.83-2.49-3.67-3.46-22.07-25.84-44.09-51.72-66.22-77.51-2.38-2.77-3.32-5.14-.77-8.27,1.13-1.39,1.88-3.16,2.53-4.86,4.01-10.41,12.18-15.89,22.35-19.04,1.75-.54,3.54-.94,5.3-1.44,3.13-.88,5.06-2.91,4.44-6.2-.62-3.25-3.12-4.88-6.34-4.2-14.4,3.02-26.99,8.96-33.7,23.08-7.04,14.81-16.66,27.36-31.08,35.49-4.65,2.62-10.15,4.29-15.45,5.05-6.77.97-9.58-2.57-8.12-9.4.86-4.03,2.42-7.93,3.91-11.8,3.95-10.23,8.05-20.41,12.08-30.6.98-2.47,1.49-5.28,2.99-7.38,13.38-18.71,28.72-35.43,51.72-41.93,28.33-8.01,53.19-.75,73.58,20.23,20.64,21.24,29.39,46.44,22.57,76-3.83,16.63-11.53,31.55-21.03,45.56-4.65,6.86-9.77,13.4-15.12,20.69Z"/><path class="d" d="m990.91,1081.15c-.93,1.57-2.17,5.17-4.61,7.52-7.52,7.26-15.41,14.16-23.34,20.98-5.78,4.98-13.09,4.53-17.88-.71-4.65-5.09-4.49-12.91.88-17.91,8.03-7.46,16.29-14.68,24.61-21.81,4.04-3.46,8.79-3.83,13.53-1.43,4.56,2.32,6.7,6.25,6.81,13.36Z"/><path class="d" d="m966.9,1053.34c-1.62,2.95-2.66,6.52-4.97,8.75-7.79,7.51-15.9,14.71-24.17,21.69-5.83,4.92-13.35,4.14-17.86-1.23-4.45-5.3-3.91-12.91,1.59-17.95,7.74-7.09,15.62-14.02,23.51-20.94,4.18-3.66,9.07-4.29,13.98-2,4.57,2.12,7.05,5.97,7.92,11.69Z"/><path class="d" d="m903.33,1063.08c-6.32-.3-10.16-2.58-12.37-7.19-2.3-4.81-2.02-9.83,1.76-13.46,8.63-8.27,17.51-16.32,26.76-23.88,5.04-4.12,11.99-2.73,16.2,2.03,4.28,4.84,4.65,12.16-.15,16.75-8.51,8.15-17.46,15.85-26.45,23.48-1.76,1.49-4.51,1.81-5.75,2.28Z"/><path class="d" d="m1019.05,1104.17c-.91,1.58-2.09,5.23-4.53,7.57-7.65,7.37-15.67,14.38-23.75,21.28-5.79,4.95-13.11,4.37-17.83-.97-4.65-5.26-4.31-12.76,1.2-17.87,7.8-7.23,15.77-14.26,23.78-21.25,4.13-3.6,9.01-4.36,13.95-1.96,4.52,2.19,6.9,6.06,7.17,13.2Z"/></g><g id="c"><path class="d" d="m1439.72,1262.41c-13.94-28.82-32.54-46.95-35.33-62.29-2.79-15.34-26.96-153.39-40.44-179.42-13.48-26.03-48.34-111.56-47.88-122.71.46-11.16-34.24-6.66-51.13-31.61-16.66-24.6-15.49-96.53-44.97-112.49-24.59-13.31-42.81-12.55-41.92-15.8.89-3.25,17.86-26.96,21.35-77.16,1.65-23.72-9.3-116.44-74.37-127.83-51.01-8.93-95.92,34.08-104.35,86.92-9.53,59.73,24.71,105.35,52.29,123.95,32.85,22.16,80.88,19.37,97.92,42.3,13.77,18.52,18.28,28.51,18.75,35.02.46,6.51,4.65,14.25,13.02,19.68,10.84,7.02,16.58,25.57,22.62,35.17,4.93,7.84,18.21,38.17,13.94,54.85-4.27,16.68-7.59,31.61.77,50.2,8.37,18.59,21.69,61.98,32.85,66.63,11.16,4.65,17.9,3.1,17.9,3.1-.33,7.32,13.33,43.32,38.43,96.54,27,57.24,45.24,125.88,62.21,159.81,38.33,76.66,55.31,188.98,55.31,188.98,0,0,8.83,4.62,12.55-13.97,3.72-18.59-5.58-191.04-19.52-219.86Zm-307.72-529.44c-45.55,6.51-73.09-29.17-83.32-68.68-12.48-48.22,14.75-86.71,54.04-94.48,42.3-8.37,66.47,33.93,72.98,61.36,6.51,27.42,1.86,95.29-43.69,101.8Z"/><path class="d" d="m1530.13,612.81c-5.33-59.23-46.02-114.35-85.06-108.07-39.05,6.28-71.91,41.28-88.55,99.01-16.39,56.83,12.36,126.2,12.36,126.2,0,0-31.54,11.5-44.09,24.75-12.55,13.25-19.68,60.64-19.87,74.61-.23,17.14-14.76,30.62-12.38,42.18.98,4.78-16.91,33.93-37.83,51.36-20.92,17.43-32.77,48.34-57.87,100.64-25.1,52.29-36.09,110.84-36.49,174.78-.23,37.65-26.26,61.59-36.49,88.55-13.71,36.16-32.31,174.54-33,192.67-.7,18.13,11.16,16.73,11.16,16.73-1.57,1.41,64.02-170.78,78.79-204.29,11.05-25.07,47.41-131.16,70.42-172.22,10.07-17.96,28.59-80.88,37.65-99.01,9.06-18.13,29.98-94.83,33.47-122.02,3.49-27.19,34.86-64.15,34.86-64.15,0,0,34.16-59.96,48.11-68.33,13.94-8.37,39.74-4.88,67.63-23.71,27.89-18.83,63.1-63.8,57.17-129.69Zm-35.56,62.23c-19.17,57-76.35,55.95-95.17,48.98-18.83-6.97-35.21-75.3-29.28-97.96,11.54-44.11,44.97-59.27,79.49-51.25,34.51,8.02,64.15,43.23,44.97,100.23Z"/><path class="e" d="m1059.77,678.78h112.6s.72-58.85-56.3-58.85-56.3,58.85-56.3,58.85Z"/><circle class="d" cx="1116.07" cy="653.54" r="25.48"/><path class="e" d="m1378.44,678.78h112.6s.72-58.85-56.3-58.85-56.3,58.85-56.3,58.85Z"/><circle class="d" cx="1434.74" cy="653.54" r="25.48"/><path class="d" d="m529.52,1482.27c3.72,18.59,12.55,13.97,12.55,13.97,0,0,16.98-112.32,55.31-188.98,16.97-33.93,35.21-102.57,62.21-159.81,25.1-53.22,38.76-89.22,38.43-96.54,0,0,6.74,1.55,17.9-3.1,11.16-4.65,24.48-48.03,32.85-66.63,8.37-18.59,5.04-33.52.77-50.2-4.27-16.68,9.01-47.01,13.94-54.85,6.04-9.61,11.78-28.15,22.62-35.17,8.37-5.42,12.55-13.17,13.02-19.68.46-6.51,4.98-16.49,18.75-35.02,17.04-22.93,65.08-20.14,97.92-42.3,27.59-18.61,61.82-64.22,52.29-123.95-8.43-52.84-53.35-95.85-104.35-86.92-65.08,11.39-76.02,104.11-74.37,127.83,3.49,50.2,20.45,73.91,21.35,77.16.89,3.25-17.32,2.49-41.92,15.8-29.48,15.96-28.32,87.89-44.97,112.49-16.89,24.95-51.6,20.45-51.13,31.61.46,11.16-34.4,96.68-47.88,122.71-13.48,26.03-37.65,164.08-40.44,179.42-2.79,15.34-21.38,33.47-35.33,62.29-13.94,28.82-23.24,201.27-19.52,219.86Zm283.55-851.1c6.51-27.42,30.68-69.72,72.98-61.36,39.28,7.77,66.52,46.26,54.04,94.48-10.23,39.51-37.77,75.19-83.32,68.68-45.55-6.51-50.2-74.37-43.69-101.8Z"/><path class="d" d="m515.81,742.5c27.89,18.83,53.69,15.34,67.63,23.71,13.94,8.37,48.11,68.33,48.11,68.33,0,0,31.38,36.95,34.86,64.15,3.49,27.19,24.4,103.89,33.47,122.02,9.06,18.13,27.59,81.05,37.65,99.01,23.01,41.06,59.37,147.15,70.42,172.22,14.77,33.51,80.36,205.71,78.79,204.29,0,0,11.85,1.39,11.16-16.73-.7-18.13-19.29-156.52-33-192.67-10.23-26.96-36.26-50.9-36.49-88.55-.39-63.93-11.39-122.48-36.49-174.78-25.1-52.29-36.95-83.2-57.87-100.64-20.92-17.43-38.81-46.58-37.83-51.36,2.38-11.56-12.14-25.04-12.38-42.18-.19-13.96-7.32-61.36-19.87-74.61-12.55-13.25-44.09-24.75-44.09-24.75,0,0,28.75-69.38,12.36-126.2-16.64-57.72-49.5-92.73-88.55-99.01-39.05-6.28-79.74,48.85-85.06,108.07-5.93,65.89,29.28,110.86,57.17,129.69Zm23.36-167.69c34.51-8.02,67.95,7.14,79.49,51.25,5.93,22.66-10.46,90.99-29.28,97.96-18.83,6.97-76,8.02-95.17-48.98-19.17-57,10.46-92.21,44.97-100.23Z"/><path class="e" d="m928.99,678.78h-112.6s-.72-58.85,56.3-58.85,56.3,58.85,56.3,58.85Z"/><circle class="d" cx="872.69" cy="653.54" r="25.48"/><path class="e" d="m610.32,678.78h-112.6s-.72-58.85,56.3-58.85,56.3,58.85,56.3,58.85Z"/><circle class="d" cx="554.02" cy="653.54" r="25.48"/></g></svg>