<?xml version="1.0" encoding="UTF-8"?><svg xmlns="http://www.w3.org/2000/svg" viewBox="0 0 2000 2000"><defs><style>.d{stroke-width:10.66px;}.d,.e{stroke-linecap:round;}.d,.e,.f{stroke:#000;stroke-linejoin:round;}.d,.f{fill:#fff;}.g{stroke-width:0px;}.e{fill:none;stroke-width:23.79px;}.f{stroke-width:9.97px;}</style></defs><g id="a"><path class="g" d="m-525.26-995.61c19.92,28.66,39.3,57.71,59.83,85.93C-139.42-461.62,186.75-13.66,512.85,434.34c2.7,3.71,5.02,7.7,7.51,11.56-1.06.92-2.12,1.83-3.18,2.75-1.99-2.91-3.76-6.01-6.01-8.71C115.59-34.54-280.02-508.99-675.57-983.51c-3.01-3.61-5.03-8.05-7.51-12.1,52.6,0,105.21,0,157.81,0Z"/><path class="g" d="m2433.7,2995.61c-17.01-24.65-33.5-49.7-51.12-73.9-297.8-408.95-595.75-817.8-893.65-1226.68-3.06-4.2-5.84-8.59-8.76-12.89,1.38-1.28,2.77-2.56,4.15-3.84,1.28,2.74,2.05,5.91,3.92,8.15,362.65,435.57,725.38,871.07,1088.1,1306.57.7.84,1.34,1.73,2.01,2.59h-144.66Z"/><path class="g" d="m2016.16-995.61c-26.53,52.75-52.94,105.57-79.61,158.25-168.32,332.45-336.75,664.86-505.04,997.32-37.07,73.22-73.74,146.64-110.64,219.95-2.92,5.81-6.11,11.5-11.95,16.23,1.71-4.55,3.24-9.16,5.14-13.63,192.7-454.27,385.43-908.53,578.11-1362.8,2.12-5,3.76-10.21,5.62-15.32,39.45,0,78.91,0,118.36,0Z"/><path class="g" d="m-12.37-995.61c16.87,36.7,33.22,73.65,50.7,110.06C233.43-479.13,428.71-72.79,623.94,333.58c2.51,5.22,4.89,10.5,4.94,16.85-25.14-45.27-50.19-90.58-75.43-135.79C334.97-176.74,116.46-568.09-101.99-959.48c-6.62-11.86-12.6-24.08-18.88-36.13,36.17,0,72.33,0,108.5,0Z"/><path class="g" d="m2473.16-995.61c-316.25,432.28-632.5,864.57-949.95,1298.51,2.05-4.48,3.05-7.59,4.76-10.24,277.11-428.57,554.28-857.1,831.45-1285.62.59-.92,1.31-1.76,1.96-2.64,37.26,0,74.52,0,111.78,0Z"/><path class="g" d="m50.09,2995.61c19.13-38.65,37.98-77.45,57.44-115.93,169.33-335.01,338.77-669.96,508.16-1004.94,27.56-54.5,55.01-109.04,84.79-162.52-20.34,47.58-40.78,95.11-61,142.74-161.42,380.21-322.79,760.43-484.17,1140.65H50.09Z"/><path class="g" d="m2657.27-995.61c-113.28,137.24-226.91,274.2-339.77,411.79-209.41,255.3-418.36,510.98-627.52,766.49-3.41,4.16-6.96,8.2-13.39,10.36,2.75-4.1,5.35-8.31,8.29-12.27,230.64-311.55,461.38-623.03,691.93-934.66,56.66-76.58,112.71-153.62,168.95-230.5,2.51-3.43,4.22-7.45,6.3-11.2,35.07,0,70.14,0,105.21,0Z"/><path class="g" d="m444.62-995.61c5.78,25.49,10.88,51.16,17.44,76.44,105.4,406.22,211,812.4,316.52,1218.59,1.61,6.21,2.89,12.51,2.1,19.4-7.78-23.62-15.59-47.23-23.33-70.87-133.72-408.72-267.44-817.44-401.07-1226.19-1.83-5.6-2.51-11.57-3.73-17.37,30.69,0,61.37,0,92.06,0Z"/><path class="g" d="m2995.91-995.61c1.94,20.8-2.48,37.03-19.26,53.35-128.34,124.87-255.71,250.75-382.56,377.14-233.94,233.08-467.32,466.72-700.94,700.12-3.09,3.08-6.32,6.02-11.73,7.32,3.6-4.09,7.14-8.24,10.81-12.26,332.59-363.72,665.19-727.42,997.73-1091.17,4.36-4.77,7.98-10.23,11.95-15.37,5.03-6.38,10.06-12.75,15.09-19.13,26.3,0,52.6,0,78.91,0Z"/><path class="g" d="m1953.69,2995.61c-159.24-332-318.43-664.02-477.73-995.99-33.85-70.54-68.07-140.89-102.1-211.34-2.3-4.77-4.44-9.62-4.68-15.48,19.77,35.61,39.48,71.25,59.32,106.82,204.99,367.55,410.01,735.09,614.95,1102.67,2.33,4.18,3.75,8.86,5.59,13.31h-95.34Z"/><path class="g" d="m1279.71-995.61c-6.57,41.01-13.55,81.96-19.64,123.04-24.91,167.86-49.74,335.73-74.26,503.65-24.76,169.55-49.12,339.16-73.65,508.75-9.09,62.82-18.14,125.64-29.44,188.29,2.43-30.8,4.74-61.6,7.31-92.38,10.49-125.52,21.26-251.03,31.55-376.57,15.27-186.12,30.31-372.26,45.26-558.41,7.28-90.63,14.1-181.29,21.21-271.93.64-8.17,1.9-16.3,2.87-24.44,29.59,0,59.18,0,88.77,0Z"/><path class="g" d="m-377.31,2995.61c46.38-63.71,92.75-127.42,139.13-191.13C-4.82,2483.99,228.53,2163.49,461.91,1843.01c3.33-4.57,6.92-8.95,11.86-12.34-250.82,388.31-501.64,776.63-752.46,1164.94h-98.63Z"/><path class="g" d="m947.65-995.61c2.55,196.6,4.88,393.2,7.72,589.8,3.08,213.02,6.65,426.02,9.93,639.04.3,19.68.04,39.38-.59,59.17-6.65-89.18-13.27-178.37-19.97-267.55-12.91-172.01-25.78-344.01-38.81-516.01-11.29-149.07-22.82-298.13-34.12-447.2-1.44-19.05-2.07-38.16-3.08-57.25,26.3,0,52.6,0,78.91,0Z"/><path class="g" d="m-992.44-973.27c-.99-7.45-1.98-14.9-2.97-22.34,27.4,0,54.8,0,82.19,0,12.99,15.34,25.52,31.1,39.05,45.95C-560.89-606.03-247.51-262.49,65.84,81.08c3.15,3.46,6.13,7.07,6.77,12.92-9.22-9.69-18.26-19.56-27.68-29.05C-122.51-103.77-289.74-272.71-457.57-441.05c-156.23-156.71-313.09-312.78-469.76-469.05-4.14-4.13-9.32-7.22-14.02-10.8-17.03-17.46-34.06-34.91-51.09-52.37Z"/><path class="g" d="m1523,2995.61c-6.1-26.54-11.54-53.24-18.38-79.58-95.45-367.57-191.1-735.1-286.66-1102.64-.26-1-.03-2.13,1.89-3.93,2.42,6.93,4.96,13.83,7.23,20.8,125.36,383.87,250.69,767.75,376.06,1151.61,1.52,4.66,3.55,9.16,5.34,13.74h-85.48Z"/><path class="g" d="m-551.56,2995.61c294.37-358.11,588.75-716.22,883.12-1074.32.52.3,1.04.6,1.56.9-3.2,4.65-6.26,9.41-9.61,13.94-255.61,345.59-511.25,691.16-766.86,1036.74-5.53,7.47-10.77,15.15-16.15,22.74h-92.06Z"/><path class="g" d="m740.52,2995.61c10.97-72.51,22.18-144.98,32.87-217.53,27.11-184.13,54.16-368.27,80.9-552.45,19.42-133.79,38.29-267.67,57.48-401.49,1.08-7.53,2.78-14.98,5.9-22.3-2.28,28.48-4.51,56.96-6.85,85.43-16.43,199.74-33.01,399.48-49.3,599.23-13.35,163.74-26.35,327.5-39.57,491.25-.48,5.98-1.66,11.9-2.52,17.86h-78.91Z"/><path class="g" d="m-896.78,2995.61c9.95-10.69,19.55-21.73,29.89-32.03,321.65-320.6,643.37-641.13,965.09-961.66,4.03-4.02,8.31-7.8,14.65-9.65-4.53,5.04-9.01,10.12-13.58,15.11-297.76,325.26-595.53,650.52-893.28,975.8-3.69,4.03-7.14,8.28-10.71,12.43h-92.06Z"/><path class="g" d="m1049.57,2995.61c-.06-52.51.41-105.03-.26-157.53-2.38-185.08-4.96-370.16-7.84-555.24-2.19-140.72-4.96-281.43-7.44-422.14-.14-8.19-.02-16.39,1.78-24.69,6.77,91.15,13.48,182.31,20.32,273.45,12.73,169.81,25.49,339.62,38.33,509.43,9.08,120.13,18.33,240.24,27.43,360.37.41,5.42.03,10.9.02,16.35h-72.33Z"/><path class="g" d="m1108.75-995.61c-6.94,108.2-13.85,216.4-20.84,324.6-7.34,113.66-14.84,227.32-22.09,340.99-9.55,149.75-18.94,299.51-28.38,449.27-1.77,28.16-3.44,56.32-4.88,79.84,0-66.04-.41-136.65.08-207.25,1.46-211.4,3.34-422.8,4.91-634.21.87-117.75,1.45-235.5,2.15-353.24,23.01,0,46.03,0,69.04,0Z"/><path class="g" d="m161.88-995.61c28.36,71.72,56.76,143.43,85.07,215.16C360.46-492.87,473.96-205.28,587.43,82.31c1.89,4.8,3.49,9.71,2.47,15.62-20.37-45.35-40.62-90.75-61.13-136.04C386.77-351.72,244.7-665.31,102.7-978.92c-2.46-5.44-4.4-11.12-6.57-16.69,21.92,0,43.84,0,65.75,0Z"/><path class="g" d="m901.62,2995.61c2.58-48.59,4.78-97.19,7.82-145.75,7.12-113.64,14.74-227.26,21.99-340.89,10.6-166.09,21.07-332.19,31.57-498.29,1.79-28.4,3.43-56.8,6.93-85.17-3.04,356.7-6.09,713.4-9.13,1070.1h-59.18Z"/><path class="g" d="m1434.23-995.61c-16.36,71.44-33.1,142.79-49.01,214.32-55.59,249.94-110.89,499.94-166.28,749.92-5.19,23.42-10.29,46.86-18.11,69.81,5.89-34.03,11.8-68.06,17.67-102.1,40.15-232.96,80.36-465.92,120.41-698.9,13.35-77.65,26.3-155.37,39.43-233.06,18.63,0,37.26,0,55.89,0Z"/><path class="g" d="m348.28,1556.96c-447.18,360.17-894.35,720.34-1343.69,1082.25,0-31.97,2.36-62.55-.65-92.58-3.15-31.52,8.86-49.1,34.59-67.22,432.54-304.53,864.21-610.29,1296.08-915.76,3.96-2.8,8.02-5.47,12.03-8.21.55.51,1.1,1.01,1.64,1.52Z"/><path class="g" d="m2995.87-511.43c0,43.98.51,86-.6,127.96-.15,5.63-7.55,12.37-13.18,16.35-126.6,89.29-253.71,177.86-380.14,267.38-311.41,220.5-622.52,441.42-933.76,662.16-4.84,3.44-9.78,6.74-15.96,8.42,447.09-360.12,894.17-720.23,1343.64-1082.27Z"/><path class="g" d="m2995.9,249.95c0,31.45-.53,60.47.27,89.46.31,11.13-6.94,11.97-14.04,14.4-104.49,35.86-209.07,71.47-313.45,107.65-319.35,110.72-638.63,221.66-957.94,332.5-5.45,1.89-10.97,3.58-17.05,3.54,433.38-182.23,866.76-364.45,1302.21-547.55Z"/><path class="g" d="m-995.41,1877.72c0-31.04.56-60.07-.29-89.06-.32-10.99,6.6-12.25,13.78-14.72,93.65-32.14,187.37-64.06,280.92-96.48,326.67-113.19,653.28-226.56,979.92-339.85,5.97-2.07,11.96-4.1,18.8-3.66-430.32,180.95-860.65,361.91-1293.14,543.77Z"/><path class="g" d="m1883.09,248.53c370.16-358.31,740.32-716.62,1112.72-1077.09,0,33.81.44,65.74-.49,97.63-.13,4.58-6.39,9.57-10.7,13.35-142.94,125.21-286.31,249.93-428.95,375.48-219.51,193.22-438.52,387-657.76,580.53-4.42,3.9-8.96,7.65-13.44,11.47-.46-.46-.92-.92-1.38-1.38Z"/><path class="g" d="m89.58,1905.87c-360.82,349.36-721.64,698.71-1084.99,1050.52,0-20.52,2.07-39.47-.46-57.78-4.36-31.5,8.3-51.37,31.93-72.05,345.08-301.93,689.19-604.96,1033.53-907.73,5.95-5.23,11.94-10.42,17.91-15.63.69.89,1.38,1.77,2.07,2.66Z"/><path class="g" d="m306.19,812.58c-60.15-19.82-120.27-39.74-180.45-59.46-367.6-120.43-735.18-240.94-1102.98-360.78-15.07-4.91-19.52-11.42-18.47-26.3,1.3-18.48.31-37.12.31-58.99C-559.31,474.11-125.28,640.39,308.76,806.67c-.86,1.97-1.72,3.94-2.57,5.91Z"/><path class="g" d="m153.53,1577.55c-382.16,245.25-764.31,490.5-1148.87,737.3,0-27.83-.62-53.8.6-79.69.21-4.41,7.73-9.53,12.92-12.48,158.81-90.45,317.91-180.39,476.63-270.99,214.32-122.35,428.37-245.19,642.54-367.8,5.02-2.87,10.16-5.54,15.25-8.3.31.66.62,1.31.92,1.97Z"/><path class="g" d="m2995.89-187.12c0,27.38.59,52.45-.52,77.45-.21,4.75-6.22,10.78-11.08,13.55-167.78,95.66-335.89,190.73-503.64,286.46-202.92,115.8-405.55,232.11-608.32,348.17-4.98,2.85-10.17,5.31-16.33,6,379.06-243.3,758.12-486.59,1139.89-731.63Z"/><path class="g" d="m2971.11,1772.8c-192.34-74.79-384.68-149.59-577.02-224.38.27-.82.53-1.64.8-2.47,26.98,8.76,53.96,17.49,80.93,26.28,167.98,54.74,335.89,109.67,504.04,163.89,12.88,4.15,16.93,9.56,16.37,22.77-1.12,26.58-.33,53.24-.33,82.28-424.13-170.54-846.84-340.52-1269.55-510.49.17-.46.34-.92.51-1.38,414.15,149.45,828.3,298.89,1242.45,448.34.6-1.61,1.2-3.23,1.8-4.84Z"/><path class="g" d="m2995.11,1173.92v68.61c-390.12-39.48-779.42-78.88-1168.71-118.28l.08-1.3c389.29,16.98,778.58,33.96,1168.63,50.97Z"/><path class="g" d="m174.18,1004.81c-389.37-16.98-778.74-33.96-1168.71-50.96v-68.61c390.22,39.5,779.47,78.89,1168.72,118.29,0,.43,0,.85,0,1.28Z"/><path class="g" d="m-994.82,1064.85v-63.66c377.86,16.28,755.07,32.53,1132.27,48.78-.01.39-.02.78-.03,1.17-376.83,4.56-753.67,9.12-1132.24,13.71Z"/><path class="g" d="m1864.95,1076.59c376.13-4.6,752.25-9.2,1129.67-13.82v63.66c-376.41-16.2-753.05-32.41-1129.69-48.62v-1.22Z"/><path class="g" d="m2995.85,156.55c0,20.87.81,39.88-.63,58.72-.32,4.14-8.07,9.09-13.39,11.27-141.73,58.05-283.68,115.55-425.4,173.62-198.41,81.3-396.66,162.98-594.99,244.48-5.47,2.25-11.05,4.25-17.43,4.43,349.91-163.84,699.82-327.69,1051.85-492.52Z"/><path class="g" d="m41.53,1485.55c-344.99,161.56-689.97,323.11-1036.91,485.58,0-20.26-.92-38.26.6-56.06.42-4.92,7.27-11.29,12.61-13.49,90.49-37.33,181.29-73.93,271.87-111.05,245.94-100.79,491.81-201.75,737.73-302.62,4.36-1.79,8.88-3.21,13.32-4.81.26.81.53,1.62.79,2.44Z"/><path class="g" d="m1953.71,1362c347.13,97.83,694.27,195.66,1041.7,293.57v64.05c-347.99-118.81-695.11-237.33-1042.24-355.85.18-.59.36-1.18.54-1.77Z"/><path class="g" d="m2995.15,1589.61v60.42c-351.02-107.75-701.19-215.24-1051.36-322.72.15-.55.29-1.11.44-1.66,350.04,87.92,700.08,175.84,1050.92,263.96Z"/><path class="g" d="m38.13,762.73c-343.78-98.88-687.55-197.77-1032.47-296.98v-57.41c344.57,117.66,688.79,235.19,1033,352.73l-.53,1.66Z"/></g><g id="c"><path class="d" d="m825.31,1082.74c-56.75,11.3-116.31,22.13-172.4,26.55-147.55,11.64-259.04-31.03-259.04-31.03l340.71,557.03s133.95,30.36,262.44-24.69c110.5-47.35,107.69-97.3,211.07-137.72l-382.79-390.14Z"/><path class="d" d="m1181.99,663.95c9.76-87.06,51.25-168.35,51.25-168.35l426.61-139.24s-45.59,59.14-55.35,172.83c-9.5,110.59,40.99,257.81,34.55,377.86l-577.77-94.44s110.54-58.02,120.71-148.66Z"/><path class="e" d="m1255.21,1531.51s-18.23-17.23-51.94-14.73c-33.71,2.5-124.94,15.28-158.98,8.76-23.57-4.51-47.15-19.22-53.97-58.48-6.82-39.26,13.12-53.78,39.49-67.47,26.36-13.69,121.1-43.86,231.05-46.8,109.95-2.94,206.7,9.44,219.46,31.97,12.75,22.52,24.31,64.04-3.69,90.89-28,26.85-86.47,3.15-118.58.97-32.11-2.18-182.5.5-206.99,4.27-24.49,3.77-46.96-4.24-54.25-19.45-13.88-28.96,10.18-49.74,31.52-58.4,37.34-15.16,122.23-14.72,122.23-14.72"/><path class="g" d="m1408.62,1484.67c1.1,4.32,2.07,6.95,2.91,7.88,2.03,4.05,2.9,6.75,2.61,8.11-1.81,3.97-3.08,6.14-3.81,6.5-.74.44-.69.11.13-1s1.13-2.17.91-3.2c-.28-.04-.76.53-1.43,1.71s-1.38,2.71-2.11,4.59c-.73,1.88-1.4,3.95-2,6.21-.6,2.26-.96,4.43-1.05,6.52.65.2,1.12.31,1.4.35s.74.1,1.37.18c.59.11,1.05.16,1.37.13.32-.03.74-.08,1.25-.15-.2.15-.39.27-.58.35.75.49,2.39.5,4.92.01,2.53-.49,5.16-1.12,7.9-1.89,2.74-.78,6.3-1.89,10.67-3.35,2.11-.61,3.57-1.92,4.37-3.91.2-1.47,1.44-2.39,3.74-2.77l-.26-2.44,1.86,2.92,1.3-1.75c3.48.36,7.25,2.8,11.28,7.33.61.79,2.84,1.32,6.69,1.58l-3.86.88,3.15,1.28-3.19.65c.69-.09,1.33.59,1.93,2.02-.37-.48-1.25-.56-2.64-.24-1.4.88-3.77,1.53-7.11,1.95l1.56,1.54-3.34-1.41c-3.86,1.63-8.03,2.79-12.53,3.5-4.5.71-8.76,1.14-12.78,1.33-4.02.18-7.47.19-10.36.04-2.89-.15-4.6-.25-5.13-.28l.58,5.32c-1.35-.86-2.25.35-2.7,3.63-.45,3.28-.7,7.05-.73,11.33-.03,4.28.15,10.13.55,17.57-.07,2.95,1,5.63,3.22,8.03,1.75,1.3,2.45,3.45,2.09,6.43l3.12,1.48-4.3.18,1.66,2.79c-.87,1.99-2.05,3.55-3.54,4.69-1.49,1.14-2.96,2-4.41,2.57-1.45.57-3.23,1.01-5.34,1.3-1.17.2-2.64,2.55-4.42,7.06l.28-5.31-2.75,2.95.42-4.38c-.19.9-1.27,1.22-3.23.96.66-.13,1.08-1.18,1.27-3.15-.59-2.25-.51-5.56.25-9.92l-2.51.79,2.99-3.13c-.55-5-.53-10.1.05-15.3.58-5.2,1.39-10.12,2.41-14.74,1.03-4.63,2.15-8.79,3.37-12.5,1.22-3.71,2.21-6.51,2.96-8.41l-1.53,1.83c.57-2.96.47-4.65-.29-5.07l.04-.32c-3.33.34-7.11.44-11.36.29-4.24-.15-8.31-1.04-12.2-2.66l-2.31,1.67.87-1.71c-2.66-.1-4.58-.55-5.76-1.36-1.15-.19-1.82-.03-1.99.49.16-1.44.5-2.18,1.04-2.22l-2.63-.35,2.13-1.54-3.13-.63c2.86-.62,4.46-1.33,4.78-2.15,1.97-4.91,4.27-7.71,6.9-8.4l1.34,1.62.78-3.05.37,2.46c1.72.19,2.86,1.02,3.42,2.49.98,2.02,2.36,3.2,4.13,3.55,6.46,2.11,11.03,3.43,13.71,3.96l2.07.12c.74-2.65,1.57-5.71,2.48-9.17s1.74-6.81,2.51-10.05c.77-3.23,1.39-6.1,1.87-8.61.48-2.5.64-4.18.51-5.02.59.94.88,1.6.86,1.99.04-1.35-.09-2.29-.37-2.83l1.04.62.29-1.35Z"/><path class="g" d="m1340.67,1395.89c1.1,4.32,2.07,6.95,2.91,7.88,2.03,4.05,2.9,6.75,2.62,8.11-1.81,3.97-3.08,6.14-3.81,6.5-.74.44-.69.1.13-1,.82-1.1,1.13-2.17.91-3.2-.28-.04-.76.53-1.43,1.71-.67,1.18-1.38,2.71-2.11,4.59s-1.4,3.95-2,6.21c-.6,2.26-.96,4.43-1.05,6.52.65.19,1.12.31,1.4.35.28.04.74.1,1.37.18.59.11,1.05.16,1.37.13.32-.03.74-.08,1.25-.16-.2.15-.39.27-.58.35.75.49,2.4.5,4.92.01,2.52-.49,5.16-1.12,7.9-1.89,2.74-.78,6.3-1.89,10.67-3.35,2.11-.61,3.57-1.92,4.37-3.91.2-1.47,1.44-2.39,3.74-2.77l-.26-2.44,1.86,2.92,1.3-1.75c3.48.36,7.25,2.8,11.28,7.33.61.79,2.84,1.32,6.69,1.58l-3.86.88,3.15,1.28-3.19.65c.69-.09,1.33.59,1.93,2.02-.37-.48-1.25-.56-2.64-.25-1.4.88-3.77,1.53-7.11,1.95l1.56,1.55-3.34-1.41c-3.86,1.63-8.03,2.79-12.53,3.5-4.5.71-8.76,1.14-12.78,1.33-4.02.18-7.47.19-10.36.04-2.89-.15-4.6-.25-5.13-.28l.58,5.32c-1.35-.86-2.25.35-2.7,3.63-.45,3.28-.7,7.05-.73,11.33s.15,10.14.55,17.57c-.07,2.95,1,5.63,3.21,8.03,1.75,1.3,2.45,3.45,2.09,6.43l3.12,1.48-4.3.18,1.66,2.79c-.87,1.99-2.05,3.55-3.54,4.69-1.49,1.14-2.96,2-4.41,2.57-1.45.57-3.23,1.01-5.34,1.3-1.17.2-2.64,2.56-4.42,7.07l.28-5.31-2.75,2.95.42-4.39c-.19.9-1.27,1.22-3.23.96.66-.13,1.08-1.18,1.27-3.15-.59-2.25-.51-5.56.25-9.92l-2.51.79,2.99-3.13c-.55-5-.53-10.1.05-15.3.58-5.2,1.39-10.12,2.41-14.74,1.03-4.63,2.15-8.79,3.38-12.5,1.22-3.71,2.21-6.51,2.96-8.41l-1.53,1.83c.57-2.96.47-4.65-.29-5.07l.04-.32c-3.33.34-7.11.44-11.36.28-4.24-.15-8.31-1.04-12.2-2.66l-2.31,1.67.87-1.71c-2.66-.1-4.58-.55-5.76-1.35-1.15-.19-1.82-.03-1.99.49.16-1.44.5-2.18,1.04-2.22l-2.63-.35,2.13-1.54-3.13-.63c2.87-.62,4.46-1.33,4.78-2.15,1.97-4.91,4.27-7.71,6.9-8.4l1.34,1.62.78-3.05.37,2.46c1.72.19,2.86,1.02,3.42,2.49.98,2.02,2.36,3.2,4.13,3.55,6.46,2.11,11.03,3.43,13.71,3.96l2.07.11c.74-2.65,1.57-5.7,2.48-9.17s1.74-6.81,2.51-10.05c.77-3.23,1.39-6.1,1.87-8.61.48-2.5.64-4.18.51-5.02.59.93.88,1.6.86,1.99.04-1.35-.09-2.29-.37-2.83l1.04.62.29-1.35Z"/><path class="g" d="m1422.72,1129.42c-42.17-18.52-79.44-20.99-96.82-35.17-17.37-14.18-172.73-142.68-211.79-158.58-39.06-15.9-157.07-76.94-166.98-89.58-9.91-12.64-43.69,24.68-85.47,13.15-41.2-11.37-107.09-91.16-154.25-81.1-39.34,8.39-58.57,26.24-60.62,21.84-2.06-4.4-5.63-46.18-48.69-104.37-20.35-27.5-118.9-118.74-200.74-70.44-64.15,37.86-73.15,126.86-33.03,192.56,45.35,74.26,125.4,92.21,172.97,86.81,56.63-6.43,106.59-54.33,146.65-45.15,32.36,7.41,46.63,14.13,53.21,20.81,6.59,6.69,18.4,11.26,32.62,9.38,18.42-2.43,42.01,12.5,57.6,17.37,12.72,3.97,55.57,24.76,66.48,47,10.91,22.24,21.21,41.68,47.72,54.21,26.52,12.53,81.61,47.57,98.16,42.24,16.55-5.33,22.48-13.32,22.48-13.32,6.47,8.32,55.03,34.96,132.2,69.76,82.99,37.43,167.05,95.51,217.3,116.8,113.53,48.1,236.99,155.15,236.99,155.15,0,0,13.98-3.19.69-27.01-13.29-23.82-184.49-203.85-226.66-222.37Zm-831.09-292.03c-43.77,49.66-107.22,36.33-155.3,2.65-58.68-41.11-64.82-108.66-29.09-153.84,38.48-48.65,104.42-24.93,137.15-1,32.73,23.93,91.01,102.54,47.24,152.19Z"/><path class="g" d="m580.4,470c-84.45-13.61-175.74,23.54-180.86,80.2-5.12,56.66,32.01,114.9,106.57,158.6,73.4,43.02,180.32,27.58,180.32,27.58,0,0,4.84,48.05,18.85,70.25,14.01,22.2,77.55,48.97,96.94,54.19,23.81,6.41,37.44,31.45,54.41,32.23,7.01.32,41.3,35.62,58.17,70.97,16.87,35.35,55.75,62.85,119.73,116.41,63.98,53.56,141.7,89.68,230.68,112.93,52.4,13.69,76.53,58.48,110.48,82.31,45.53,31.96,231.84,107.02,256.86,114.43,25.02,7.41,27.29-9.61,27.29-9.61,1.41,2.69-215.33-149.89-256.8-182.38-31.03-24.3-166-112.67-215.07-159.33-21.46-20.41-102.6-68.57-124.65-87.65-22.05-19.07-121.54-75.47-158.21-89.98-36.67-14.52-77.04-71.38-77.04-71.38,0,0-71.46-68.92-78.17-91.33-6.71-22.41,7.31-57.13-9.03-102.7-16.34-45.56-66.53-110.62-160.48-125.75Zm74.12,71.67c72.65,46.97,50.89,126.3,34.48,150.07-16.4,23.77-117.48,22.34-146.96,6.03-57.39-31.74-66.65-83.74-43.21-129,23.43-45.26,83.04-74.07,155.69-27.1Z"/><path class="f" d="m427.01,749.18h138.43s.89,72.35-69.21,72.35-69.21-72.35-69.21-72.35Z"/><circle class="g" cx="496.22" cy="780.21" r="31.32"/><path class="f" d="m538.1,580.1h138.43s.89,72.35-69.21,72.35-69.21-72.35-69.21-72.35Z"/><circle class="g" cx="607.32" cy="611.14" r="31.32"/></g></svg>